{
DisplayStrings = (
"/ca-deva n",
"/u-deva/ja-deva/ga-deva/pa-deva/ja-deva/a-deva/i-deva/u-deva",
"/a-deva/ja-deva/nga-deva/i-deva/u-deva/ka-deva/gha-deva/e-deva/gha-deva/ca-deva/u-deva/gha-deva/a-deva/u-deva/ja-deva/gha-deva/nga-deva/i-deva/u-deva/ka-deva/e-deva/gha-deva/ca-deva/u-deva/gha-deva/a-deva/ja-deva/nga-deva/i-deva/u-deva/ka-deva/e-deva/gha-deva/ca-deva/u-deva/gha-deva/a-deva/ja-deva/nga-deva/i-deva/u-deva/ka-deva/e-deva/gha-deva/ca-deva/u-deva/gha-deva/a-deva/ja-deva/nga-deva/i-deva/u-deva/ka-deva/e-deva/gha-deva/ca-deva/u-deva/gha-deva",
"/ca-deva",
"/ja-deva",
"/pa-deva/ma-deva",
"/pha-deva",
"/visarga-deva/a-deva/visarga-deva/i-deva/visarga-deva/u-deva/visarga-deva/e-deva/visarga-deva/ka-deva/visarga-deva/kha-deva/visarga-deva/ga-deva/visarga-deva/gha-deva/visarga-deva/nga-deva/visarga-deva/ca-deva/visarga-deva/ja-deva/visarga-deva/nna-deva/visarga-deva/na-deva/visarga-deva/pa-deva/visarga-deva/pha-deva/visarga-deva/ra-deva/visarga-deva/va-deva/visarga-deva",
"/a-deva",
"/candraBindu-deva/ca-deva",
"\U00C1\U00C2",
"/a-deva/ja-deva/nga-deva/i-deva/tta-deva/da-deva/tta-deva/pa-deva/visarga-deva",
"/tta-deva/da-deva/ttha-deva  ",
" /da-deva",
"/ttha-deva  ",
"/na-deva/pa-deva/pha-deva/tha-deva/cha-deva/ba-deva    /bha-deva/ma-deva",
"/ttha-deva",
"/dda-deva",
"/ddha-deva",
"/tha-deva",
"/dha-deva",
"/ha-deva",
"/a-deva/i-deva/u-deva/e-deva/ka-deva/kha-deva/ga-deva/gha-deva/nga-deva/ca-deva/cha-deva/ja-deva/tta-deva/ttha-deva/dda-deva/ddha-deva/nna-deva/ta-deva/tha-deva/da-deva/dha-deva/na-deva/pa-deva/pha-deva/ba-deva/bha-deva/ma-deva/ya-deva/ra-deva/la-deva/va-deva/pa-deva/ssa-deva/sa-deva/ha-deva",
"/jha-deva",
"/ga-deva",
"/ma-deva",
"/u-deva",
"/uu-deva"
);
copyright = "Digitized data copyright (C) 2014, Google Corporation.";
customParameters = (
{
name = description;

glyphs = (
{
glyphname = exclam;
lastChange = "2014-05-31 17:36:30 -0600";
layers = (
{
layerId = "9038F23B-D43E-461B-9F57-51F4A7075990";
name = Regular;
paths = (
{
closed = 1;
nodes = (
"221 1462 LINE",
"459 1462 LINE",
"387 412 LINE",
"293 412 LINE"
);
},
{
closed = 1;
nodes = (
"211 178 OFFCURVE",
"225 213 OFFCURVE",
"249 234 CURVE SMOOTH",
"272 255 OFFCURVE",
"304 264 OFFCURVE",
"340 264 CURVE SMOOTH",
"375 264 OFFCURVE",
"407 255 OFFCURVE",
"431 234 CURVE SMOOTH",
"454 213 OFFCURVE",
"469 178 OFFCURVE",
"469 125 CURVE SMOOTH",
"469 73 OFFCURVE",
"454 37 OFFCURVE",
"431 16 CURVE SMOOTH",
"407 -5 OFFCURVE",
"375 -14 OFFCURVE",
"340 -14 CURVE SMOOTH",
"304 -14 OFFCURVE",
"272 -5 OFFCURVE",
"249 16 CURVE SMOOTH",
"225 37 OFFCURVE",
"211 73 OFFCURVE",
"211 125 CURVE SMOOTH"
);
}
);
width = 682;
},
{
layerId = "2777C4B8-28CF-4E18-816B-E5A8A64F0BAA";
name = Bold;
width = 600;
}
);
unicode = 0021;
},
{
glyphname = quotedbl;
lastChange = "2014-05-31 17:36:30 -0600";
layers = (
{
layerId = "9038F23B-D43E-461B-9F57-51F4A7075990";
name = Regular;
paths = (
{
closed = 1;
nodes = (
"502 1462 LINE",
"719 1462 LINE",
"657 981 LINE",
"563 981 LINE"
);
},
{
closed = 1;
nodes = (
"117 1462 LINE",
"334 1462 LINE",
"272 981 LINE",
"178 981 LINE"
);
}
);
width = 836;
},
{
layerId = "2777C4B8-28CF-4E18-816B-E5A8A64F0BAA";
name = Bold;
width = 600;
}
);
unicode = 0022;
},
{
glyphname = numbersign;
lastChange = "2014-05-31 17:36:30 -0600";
layers = (
{
layerId = "9038F23B-D43E-461B-9F57-51F4A7075990";
name = Regular;
paths = (
{
closed = 1;
nodes = (
"397 537 LINE",
"682 537 LINE",
"758 938 LINE",
"473 938 LINE"
);
},
{
closed = 1;
nodes = (
"1038 537 LINE",
"1038 416 LINE",
"780 416 LINE",
"702 0 LINE",
"580 0 LINE",
"657 416 LINE",
"373 416 LINE",
"295 0 LINE",
"172 0 LINE",
"250 416 LINE",
"82 416 LINE",
"82 537 LINE",
"272 537 LINE",
"350 938 LINE",
"106 938 LINE",
"106 1059 LINE",
"373 1059 LINE",
"446 1462 LINE",
"571 1462 LINE",
"496 1059 LINE",
"780 1059 LINE",
"856 1462 LINE",
"979 1462 LINE",
"903 1059 LINE",
"1063 1059 LINE",
"1063 938 LINE",
"881 938 LINE",
"805 537 LINE"
);
}
);
width = 1145;
},
{
layerId = "2777C4B8-28CF-4E18-816B-E5A8A64F0BAA";
name = Bold;
width = 600;
}
);
unicode = 0023;
},
{
glyphname = dollar;
lastChange = "2014-05-31 17:36:30 -0600";
layers = (
{
layerId = "9038F23B-D43E-461B-9F57-51F4A7075990";
name = Regular;
paths = (
{
closed = 1;
nodes = (
"621 1401 LINE",
"744 1398 OFFCURVE",
"828 1372 OFFCURVE",
"883 1332 CURVE SMOOTH",
"938 1291 OFFCURVE",
"961 1235 OFFCURVE",
"961 1171 CURVE SMOOTH",
"961 1083 OFFCURVE",
"898 1038 OFFCURVE",
"799 1038 CURVE",
"799 1098 OFFCURVE",
"791 1162 OFFCURVE",
"765 1212 CURVE SMOOTH",
"739 1262 OFFCURVE",
"693 1299 OFFCURVE",
"621 1307 CURVE",
"621 829 LINE",
"744 776 OFFCURVE",
"839 725 OFFCURVE",
"903 663 CURVE SMOOTH",
"967 601 OFFCURVE",
"1001 527 OFFCURVE",
"1001 430 CURVE SMOOTH",
"1001 225 OFFCURVE",
"864 111 OFFCURVE",
"621 86 CURVE",
"621 -162 LINE",
"518 -162 LINE",
"518 82 LINE",
"450 82 OFFCURVE",
"380 88 OFFCURVE",
"314 102 CURVE SMOOTH",
"248 116 OFFCURVE",
"186 137 OFFCURVE",
"135 166 CURVE",
"135 481 LINE",
"221 481 LINE",
"221 405 OFFCURVE",
"251 331 OFFCURVE",
"304 275 CURVE SMOOTH",
"356 218 OFFCURVE",
"430 179 OFFCURVE",
"518 172 CURVE",
"518 678 LINE",
"390 735 OFFCURVE",
"303 790 OFFCURVE",
"248 852 CURVE SMOOTH",
"193 914 OFFCURVE",
"170 984 OFFCURVE",
"170 1073 CURVE SMOOTH",
"170 1165 OFFCURVE",
"204 1240 OFFCURVE",
"264 1296 CURVE SMOOTH",
"324 1351 OFFCURVE",
"411 1385 OFFCURVE",
"518 1397 CURVE",
"518 1556 LINE",
"621 1556 LINE"
);
},
{
closed = 1;
nodes = (
"813 454 OFFCURVE",
"801 496 OFFCURVE",
"770 533 CURVE SMOOTH",
"739 570 OFFCURVE",
"692 601 OFFCURVE",
"621 633 CURVE",
"621 178 LINE",
"744 199 OFFCURVE",
"813 282 OFFCURVE",
"813 399 CURVE SMOOTH"
);
},
{
closed = 1;
nodes = (
"354 1033 OFFCURVE",
"368 990 OFFCURVE",
"396 957 CURVE SMOOTH",
"424 924 OFFCURVE",
"465 898 OFFCURVE",
"518 874 CURVE",
"518 1303 LINE",
"465 1291 OFFCURVE",
"423 1264 OFFCURVE",
"396 1228 CURVE SMOOTH",
"368 1191 OFFCURVE",
"354 1143 OFFCURVE",
"354 1090 CURVE SMOOTH"
);
}
);
width = 1145;
},
{
layerId = "2777C4B8-28CF-4E18-816B-E5A8A64F0BAA";
name = Bold;
width = 600;
}
);
unicode = 0024;
},
{
glyphname = percent;
lastChange = "2014-05-31 17:36:30 -0600";
layers = (
{
layerId = "9038F23B-D43E-461B-9F57-51F4A7075990";
name = Regular;
paths = (
{
closed = 1;
nodes = (
"764 893 OFFCURVE",
"736 779 OFFCURVE",
"680 699 CURVE SMOOTH",
"624 619 OFFCURVE",
"540 573 OFFCURVE",
"428 573 CURVE SMOOTH",
"311 573 OFFCURVE",
"227 619 OFFCURVE",
"172 699 CURVE SMOOTH",
"117 779 OFFCURVE",
"92 893 OFFCURVE",
"92 1030 CURVE SMOOTH",
"92 1167 OFFCURVE",
"117 1280 OFFCURVE",
"172 1360 CURVE SMOOTH",
"227 1439 OFFCURVE",
"311 1483 OFFCURVE",
"430 1483 CURVE SMOOTH",
"542 1483 OFFCURVE",
"625 1439 OFFCURVE",
"681 1360 CURVE SMOOTH",
"736 1280 OFFCURVE",
"764 1167 OFFCURVE",
"764 1030 CURVE SMOOTH"
);
},
{
closed = 1;
nodes = (
"276 913 OFFCURVE",
"286 819 OFFCURVE",
"310 755 CURVE SMOOTH",
"334 691 OFFCURVE",
"372 657 OFFCURVE",
"428 657 CURVE SMOOTH",
"484 657 OFFCURVE",
"522 691 OFFCURVE",
"546 755 CURVE SMOOTH",
"569 819 OFFCURVE",
"578 913 OFFCURVE",
"578 1030 CURVE SMOOTH",
"578 1146 OFFCURVE",
"569 1237 OFFCURVE",
"546 1301 CURVE SMOOTH",
"522 1364 OFFCURVE",
"486 1397 OFFCURVE",
"430 1397 CURVE SMOOTH",
"374 1397 OFFCURVE",
"335 1364 OFFCURVE",
"311 1301 CURVE SMOOTH",
"286 1237 OFFCURVE",
"276 1146 OFFCURVE",
"276 1030 CURVE SMOOTH"
);
},
{
closed = 1;
nodes = (
"1743 299 OFFCURVE",
"1715 185 OFFCURVE",
"1659 105 CURVE SMOOTH",
"1603 25 OFFCURVE",
"1519 -20 OFFCURVE",
"1407 -20 CURVE SMOOTH",
"1290 -20 OFFCURVE",
"1205 25 OFFCURVE",
"1151 105 CURVE SMOOTH",
"1097 185 OFFCURVE",
"1071 299 OFFCURVE",
"1071 436 CURVE SMOOTH",
"1071 573 OFFCURVE",
"1096 686 OFFCURVE",
"1151 766 CURVE SMOOTH",
"1206 845 OFFCURVE",
"1290 889 OFFCURVE",
"1409 889 CURVE SMOOTH",
"1521 889 OFFCURVE",
"1604 845 OFFCURVE",
"1660 766 CURVE SMOOTH",
"1715 686 OFFCURVE",
"1743 573 OFFCURVE",
"1743 436 CURVE SMOOTH"
);
},
{
closed = 1;
nodes = (
"1255 319 OFFCURVE",
"1265 225 OFFCURVE",
"1289 161 CURVE SMOOTH",
"1313 97 OFFCURVE",
"1351 63 OFFCURVE",
"1407 63 CURVE SMOOTH",
"1463 63 OFFCURVE",
"1501 97 OFFCURVE",
"1524 161 CURVE SMOOTH",
"1547 225 OFFCURVE",
"1556 319 OFFCURVE",
"1556 436 CURVE SMOOTH",
"1556 552 OFFCURVE",
"1547 643 OFFCURVE",
"1524 707 CURVE SMOOTH",
"1501 770 OFFCURVE",
"1465 803 OFFCURVE",
"1409 803 CURVE SMOOTH",
"1353 803 OFFCURVE",
"1314 770 OFFCURVE",
"1290 707 CURVE SMOOTH",
"1265 643 OFFCURVE",
"1255 552 OFFCURVE",
"1255 436 CURVE SMOOTH"
);
},
{
closed = 1;
nodes = (
"616 0 LINE",
"481 0 LINE",
"1212 1462 LINE",
"1346 1462 LINE"
);
}
);
width = 1835;
},
{
layerId = "2777C4B8-28CF-4E18-816B-E5A8A64F0BAA";
name = Bold;
width = 600;
}
);
unicode = 0025;
},
{
glyphname = ampersand;
lastChange = "2014-05-31 17:36:30 -0600";
layers = (
{
layerId = "9038F23B-D43E-461B-9F57-51F4A7075990";
name = Regular;
paths = (
{
closed = 1;
nodes = (
"1174 0 LINE",
"1004 180 LINE",
"955 124 OFFCURVE",
"896 74 OFFCURVE",
"824 38 CURVE SMOOTH",
"752 2 OFFCURVE",
"665 -20 OFFCURVE",
"561 -20 CURVE SMOOTH",
"397 -20 OFFCURVE",
"275 23 OFFCURVE",
"195 99 CURVE SMOOTH",
"114 174 OFFCURVE",
"74 281 OFFCURVE",
"74 410 CURVE SMOOTH",
"74 526 OFFCURVE",
"107 610 OFFCURVE",
"164 675 CURVE SMOOTH",
"220 740 OFFCURVE",
"302 788 OFFCURVE",
"401 829 CURVE",
"349 890 OFFCURVE",
"310 946 OFFCURVE",
"284 1002 CURVE SMOOTH",
"258 1058 OFFCURVE",
"244 1115 OFFCURVE",
"244 1182 CURVE SMOOTH",
"244 1273 OFFCURVE",
"272 1347 OFFCURVE",
"335 1400 CURVE SMOOTH",
"398 1453 OFFCURVE",
"495 1483 OFFCURVE",
"631 1483 CURVE SMOOTH",
"762 1483 OFFCURVE",
"853 1450 OFFCURVE",
"911 1397 CURVE SMOOTH",
"969 1344 OFFCURVE",
"993 1271 OFFCURVE",
"993 1192 CURVE SMOOTH",
"993 1104 OFFCURVE",
"969 1038 OFFCURVE",
"914 981 CURVE SMOOTH",
"858 924 OFFCURVE",
"772 874 OFFCURVE",
"647 821 CURVE",
"1020 426 LINE",
"1039 487 OFFCURVE",
"1050 552 OFFCURVE",
"1058 613 CURVE SMOOTH",
"1065 673 OFFCURVE",
"1067 733 OFFCURVE",
"1067 782 CURVE SMOOTH",
"1067 862 LINE",
"1436 862 LINE",
"1436 776 LINE",
"1417 776 LINE SMOOTH",
"1372 776 OFFCURVE",
"1327 773 OFFCURVE",
"1289 754 CURVE SMOOTH",
"1251 734 OFFCURVE",
"1219 700 OFFCURVE",
"1202 637 CURVE SMOOTH",
"1178 549 OFFCURVE",
"1149 443 OFFCURVE",
"1102 340 CURVE",
"1292 137 LINE SMOOTH",
"1312 117 OFFCURVE",
"1332 104 OFFCURVE",
"1361 96 CURVE SMOOTH",
"1389 88 OFFCURVE",
"1427 86 OFFCURVE",
"1483 86 CURVE SMOOTH",
"1501 86 LINE",
"1501 0 LINE"
);
},
{
closed = 1;
nodes = (
"660 94 OFFCURVE",
"729 112 OFFCURVE",
"786 141 CURVE SMOOTH",
"843 170 OFFCURVE",
"891 212 OFFCURVE",
"930 260 CURVE",
"477 745 LINE",
"414 710 OFFCURVE",
"364 670 OFFCURVE",
"329 615 CURVE SMOOTH",
"293 559 OFFCURVE",
"274 491 OFFCURVE",
"274 403 CURVE SMOOTH",
"274 303 OFFCURVE",
"305 226 OFFCURVE",
"359 174 CURVE SMOOTH",
"413 121 OFFCURVE",
"488 94 OFFCURVE",
"580 94 CURVE SMOOTH"
);
},
{
closed = 1;
nodes = (
"813 1245 OFFCURVE",
"801 1293 OFFCURVE",
"771 1327 CURVE SMOOTH",
"741 1361 OFFCURVE",
"692 1382 OFFCURVE",
"623 1382 CURVE SMOOTH",
"502 1382 OFFCURVE",
"434 1305 OFFCURVE",
"434 1188 CURVE SMOOTH",
"434 1136 OFFCURVE",
"444 1092 OFFCURVE",
"468 1048 CURVE SMOOTH",
"491 1003 OFFCURVE",
"526 956 OFFCURVE",
"578 899 CURVE",
"658 934 OFFCURVE",
"717 972 OFFCURVE",
"756 1018 CURVE SMOOTH",
"795 1064 OFFCURVE",
"813 1118 OFFCURVE",
"813 1190 CURVE SMOOTH"
);
}
);
width = 1520;
},
{
layerId = "2777C4B8-28CF-4E18-816B-E5A8A64F0BAA";
name = Bold;
width = 600;
}
);
unicode = 0026;
},
{
glyphname = quotesingle;
lastChange = "2014-05-31 17:36:30 -0600";
layers = (
{
layerId = "9038F23B-D43E-461B-9F57-51F4A7075990";
name = Regular;
paths = (
{
closed = 1;
nodes = (
"117 1462 LINE",
"334 1462 LINE",
"272 981 LINE",
"178 981 LINE"
);
}
);
width = 451;
},
{
layerId = "2777C4B8-28CF-4E18-816B-E5A8A64F0BAA";
name = Bold;
width = 600;
}
);
unicode = 0027;
},
{
glyphname = parenleft;
lastChange = "2014-05-31 17:36:30 -0600";
layers = (
{
layerId = "9038F23B-D43E-461B-9F57-51F4A7075990";
name = Regular;
paths = (
{
closed = 1;
nodes = (
"330 486 OFFCURVE",
"338 325 OFFCURVE",
"381 183 CURVE SMOOTH",
"424 41 OFFCURVE",
"503 -83 OFFCURVE",
"643 -168 CURVE",
"643 -262 LINE",
"455 -187 OFFCURVE",
"323 -83 OFFCURVE",
"239 65 CURVE SMOOTH",
"154 212 OFFCURVE",
"117 402 OFFCURVE",
"117 649 CURVE SMOOTH",
"117 896 OFFCURVE",
"154 1084 OFFCURVE",
"239 1231 CURVE SMOOTH",
"323 1378 OFFCURVE",
"455 1481 OFFCURVE",
"643 1556 CURVE",
"643 1464 LINE",
"503 1379 OFFCURVE",
"424 1256 OFFCURVE",
"381 1115 CURVE SMOOTH",
"338 974 OFFCURVE",
"330 812 OFFCURVE",
"330 649 CURVE SMOOTH"
);
}
);
width = 709;
},
{
layerId = "2777C4B8-28CF-4E18-816B-E5A8A64F0BAA";
name = Bold;
width = 600;
}
);
unicode = 0028;
},
{
glyphname = parenright;
lastChange = "2014-05-31 17:36:30 -0600";
layers = (
{
layerId = "9038F23B-D43E-461B-9F57-51F4A7075990";
name = Regular;
paths = (
{
closed = 1;
nodes = (
"379 812 OFFCURVE",
"371 974 OFFCURVE",
"328 1115 CURVE SMOOTH",
"284 1256 OFFCURVE",
"206 1379 OFFCURVE",
"66 1464 CURVE",
"66 1556 LINE",
"254 1481 OFFCURVE",
"386 1378 OFFCURVE",
"470 1231 CURVE SMOOTH",
"554 1084 OFFCURVE",
"592 896 OFFCURVE",
"592 649 CURVE SMOOTH",
"592 402 OFFCURVE",
"554 212 OFFCURVE",
"470 65 CURVE SMOOTH",
"386 -83 OFFCURVE",
"254 -187 OFFCURVE",
"66 -262 CURVE",
"66 -168 LINE",
"206 -83 OFFCURVE",
"284 41 OFFCURVE",
"328 183 CURVE SMOOTH",
"371 325 OFFCURVE",
"379 486 OFFCURVE",
"379 649 CURVE SMOOTH"
);
}
);
width = 709;
},
{
layerId = "2777C4B8-28CF-4E18-816B-E5A8A64F0BAA";
name = Bold;
width = 600;
}
);
unicode = 0029;
},
{
glyphname = asterisk;
lastChange = "2014-05-31 17:36:30 -0600";
layers = (
{
layerId = "9038F23B-D43E-461B-9F57-51F4A7075990";
name = Regular;
paths = (
{
closed = 1;
nodes = (
"84 1268 LINE",
"156 1430 LINE",
"471 1231 LINE",
"418 1556 LINE",
"596 1556 LINE",
"539 1233 LINE",
"856 1425 LINE",
"928 1266 LINE",
"582 1165 LINE",
"928 1065 LINE",
"856 907 LINE",
"539 1098 LINE",
"596 774 LINE",
"418 774 LINE",
"469 1098 LINE",
"156 903 LINE",
"84 1063 LINE",
"428 1165 LINE"
);
}
);
width = 1024;
},
{
layerId = "2777C4B8-28CF-4E18-816B-E5A8A64F0BAA";
name = Bold;
width = 600;
}
);
unicode = 002A;
},
{
glyphname = plus;
lastChange = "2014-05-31 17:36:30 -0600";
layers = (
{
layerId = "9038F23B-D43E-461B-9F57-51F4A7075990";
name = Regular;
paths = (
{
closed = 1;
nodes = (
"633 672 LINE",
"633 293 LINE",
"510 293 LINE",
"510 672 LINE",
"133 672 LINE",
"133 793 LINE",
"510 793 LINE",
"510 1171 LINE",
"633 1171 LINE",
"633 793 LINE",
"1012 793 LINE",
"1012 672 LINE"
);
}
);
width = 1145;
},
{
layerId = "2777C4B8-28CF-4E18-816B-E5A8A64F0BAA";
name = Bold;
width = 600;
}
);
unicode = 002B;
},
{
glyphname = comma;
lastChange = "2014-05-31 17:36:30 -0600";
layers = (
{
layerId = "9038F23B-D43E-461B-9F57-51F4A7075990";
name = Regular;
paths = (
{
closed = 1;
nodes = (
"397 -1 OFFCURVE",
"375 -84 OFFCURVE",
"321 -153 CURVE SMOOTH",
"267 -222 OFFCURVE",
"184 -279 OFFCURVE",
"61 -315 CURVE",
"61 -229 LINE",
"196 -186 OFFCURVE",
"256 -125 OFFCURVE",
"256 -45 CURVE SMOOTH",
"256 -18 OFFCURVE",
"240 -1 OFFCURVE",
"217 13 CURVE SMOOTH",
"206 20 OFFCURVE",
"194 26 OFFCURVE",
"181 33 CURVE SMOOTH",
"156 46 OFFCURVE",
"132 64 OFFCURVE",
"117 92 CURVE SMOOTH",
"110 105 OFFCURVE",
"106 122 OFFCURVE",
"106 143 CURVE SMOOTH",
"106 222 OFFCURVE",
"164 264 OFFCURVE",
"240 264 CURVE SMOOTH",
"283 264 OFFCURVE",
"321 249 OFFCURVE",
"350 219 CURVE SMOOTH",
"379 189 OFFCURVE",
"397 143 OFFCURVE",
"397 86 CURVE SMOOTH"
);
}
);
width = 512;
},
{
layerId = "2777C4B8-28CF-4E18-816B-E5A8A64F0BAA";
name = Bold;
width = 600;
}
);
unicode = 002C;
},
{
glyphname = hyphen;
lastChange = "2014-05-31 17:36:30 -0600";
layers = (
{
layerId = "9038F23B-D43E-461B-9F57-51F4A7075990";
name = Regular;
paths = (
{
closed = 1;
nodes = (
"51 481 LINE",
"51 635 LINE",
"584 635 LINE",
"584 481 LINE"
);
}
);
width = 635;
},
{
layerId = "2777C4B8-28CF-4E18-816B-E5A8A64F0BAA";
name = Bold;
width = 600;
}
);
unicode = 002D;
},
{
glyphname = period;
lastChange = "2014-05-31 17:36:30 -0600";
layers = (
{
layerId = "9038F23B-D43E-461B-9F57-51F4A7075990";
name = Regular;
paths = (
{
closed = 1;
nodes = (
"164 178 OFFCURVE",
"178 213 OFFCURVE",
"202 234 CURVE SMOOTH",
"225 255 OFFCURVE",
"257 264 OFFCURVE",
"293 264 CURVE SMOOTH",
"328 264 OFFCURVE",
"360 255 OFFCURVE",
"384 234 CURVE SMOOTH",
"407 213 OFFCURVE",
"422 178 OFFCURVE",
"422 125 CURVE SMOOTH",
"422 73 OFFCURVE",
"407 37 OFFCURVE",
"384 16 CURVE SMOOTH",
"360 -5 OFFCURVE",
"328 -14 OFFCURVE",
"293 -14 CURVE SMOOTH",
"257 -14 OFFCURVE",
"225 -5 OFFCURVE",
"202 16 CURVE SMOOTH",
"178 37 OFFCURVE",
"164 73 OFFCURVE",
"164 125 CURVE SMOOTH"
);
}
);
width = 586;
},
{
layerId = "2777C4B8-28CF-4E18-816B-E5A8A64F0BAA";
name = Bold;
width = 600;
}
);
unicode = 002E;
},
{
glyphname = slash;
lastChange = "2014-05-31 17:36:30 -0600";
layers = (
{
layerId = "9038F23B-D43E-461B-9F57-51F4A7075990";
name = Regular;
paths = (
{
closed = 1;
nodes = (
"121 -248 LINE",
"0 -248 LINE",
"471 1556 LINE",
"590 1556 LINE"
);
}
);
width = 590;
},
{
layerId = "2777C4B8-28CF-4E18-816B-E5A8A64F0BAA";
name = Bold;
width = 600;
}
);
unicode = 002F;
},
{
glyphname = zero;
lastChange = "2014-05-31 17:36:30 -0600";
layers = (
{
layerId = "9038F23B-D43E-461B-9F57-51F4A7075990";
name = Regular;
paths = (
{
closed = 1;
nodes = (
"1053 508 OFFCURVE",
"1014 319 OFFCURVE",
"934 187 CURVE SMOOTH",
"854 55 OFFCURVE",
"734 -20 OFFCURVE",
"573 -20 CURVE SMOOTH",
"405 -20 OFFCURVE",
"285 55 OFFCURVE",
"207 187 CURVE SMOOTH",
"129 319 OFFCURVE",
"92 508 OFFCURVE",
"92 735 CURVE SMOOTH",
"92 962 OFFCURVE",
"129 1148 OFFCURVE",
"207 1279 CURVE SMOOTH",
"285 1410 OFFCURVE",
"406 1483 OFFCURVE",
"575 1483 CURVE SMOOTH",
"735 1483 OFFCURVE",
"854 1410 OFFCURVE",
"934 1279 CURVE SMOOTH",
"1014 1148 OFFCURVE",
"1053 961 OFFCURVE",
"1053 733 CURVE SMOOTH"
);
},
{
closed = 1;
nodes = (
"305 530 OFFCURVE",
"323 370 OFFCURVE",
"365 260 CURVE SMOOTH",
"407 150 OFFCURVE",
"474 90 OFFCURVE",
"573 90 CURVE SMOOTH",
"673 90 OFFCURVE",
"740 150 OFFCURVE",
"782 260 CURVE SMOOTH",
"824 370 OFFCURVE",
"840 530 OFFCURVE",
"840 733 CURVE SMOOTH",
"840 936 OFFCURVE",
"824 1096 OFFCURVE",
"782 1205 CURVE SMOOTH",
"740 1314 OFFCURVE",
"674 1372 OFFCURVE",
"575 1372 CURVE SMOOTH",
"475 1372 OFFCURVE",
"408 1314 OFFCURVE",
"365 1205 CURVE SMOOTH",
"322 1096 OFFCURVE",
"305 936 OFFCURVE",
"305 733 CURVE SMOOTH"
);
}
);
width = 1145;
},
{
layerId = "2777C4B8-28CF-4E18-816B-E5A8A64F0BAA";
name = Bold;
width = 600;
}
);
unicode = 0030;
},
{
glyphname = one;
lastChange = "2014-05-31 17:36:30 -0600";
layers = (
{
layerId = "9038F23B-D43E-461B-9F57-51F4A7075990";
name = Regular;
paths = (
{
closed = 1;
nodes = (
"197 0 LINE",
"197 86 LINE",
"334 86 LINE SMOOTH",
"381 86 OFFCURVE",
"423 91 OFFCURVE",
"453 112 CURVE SMOOTH",
"483 132 OFFCURVE",
"502 169 OFFCURVE",
"502 233 CURVE SMOOTH",
"502 1309 LINE",
"450 1245 OFFCURVE",
"404 1192 OFFCURVE",
"361 1155 CURVE SMOOTH",
"318 1118 OFFCURVE",
"278 1096 OFFCURVE",
"238 1096 CURVE SMOOTH",
"178 1096 OFFCURVE",
"135 1141 OFFCURVE",
"135 1206 CURVE",
"176 1217 OFFCURVE",
"217 1231 OFFCURVE",
"265 1256 CURVE SMOOTH",
"312 1280 OFFCURVE",
"366 1315 OFFCURVE",
"434 1364 CURVE SMOOTH",
"578 1470 LINE",
"709 1470 LINE",
"709 233 LINE SMOOTH",
"709 169 OFFCURVE",
"727 132 OFFCURVE",
"758 112 CURVE SMOOTH",
"789 91 OFFCURVE",
"830 86 OFFCURVE",
"877 86 CURVE SMOOTH",
"977 86 LINE",
"977 0 LINE"
);
}
);
width = 1145;
},
{
layerId = "2777C4B8-28CF-4E18-816B-E5A8A64F0BAA";
name = Bold;
width = 600;
}
);
unicode = 0031;
},
{
glyphname = two;
lastChange = "2014-05-31 17:36:30 -0600";
layers = (
{
layerId = "9038F23B-D43E-461B-9F57-51F4A7075990";
name = Regular;
paths = (
{
closed = 1;
nodes = (
"944 1045 OFFCURVE",
"913 957 OFFCURVE",
"854 862 CURVE SMOOTH",
"795 766 OFFCURVE",
"710 666 OFFCURVE",
"602 547 CURVE SMOOTH",
"256 164 LINE",
"729 164 LINE SMOOTH",
"790 164 OFFCURVE",
"829 183 OFFCURVE",
"854 211 CURVE SMOOTH",
"879 239 OFFCURVE",
"892 277 OFFCURVE",
"901 317 CURVE SMOOTH",
"909 354 LINE",
"995 354 LINE",
"985 0 LINE",
"104 0 LINE",
"104 150 LINE",
"446 545 LINE SMOOTH",
"555 672 OFFCURVE",
"628 768 OFFCURVE",
"673 857 CURVE SMOOTH",
"718 945 OFFCURVE",
"737 1027 OFFCURVE",
"737 1120 CURVE SMOOTH",
"737 1199 OFFCURVE",
"721 1263 OFFCURVE",
"687 1309 CURVE SMOOTH",
"653 1355 OFFCURVE",
"600 1380 OFFCURVE",
"528 1380 CURVE SMOOTH",
"435 1380 OFFCURVE",
"379 1344 OFFCURVE",
"346 1288 CURVE SMOOTH",
"313 1232 OFFCURVE",
"303 1156 OFFCURVE",
"303 1075 CURVE",
"254 1075 OFFCURVE",
"210 1082 OFFCURVE",
"178 1103 CURVE SMOOTH",
"146 1123 OFFCURVE",
"127 1156 OFFCURVE",
"127 1208 CURVE SMOOTH",
"127 1287 OFFCURVE",
"161 1356 OFFCURVE",
"229 1405 CURVE SMOOTH",
"296 1454 OFFCURVE",
"396 1483 OFFCURVE",
"528 1483 CURVE SMOOTH",
"657 1483 OFFCURVE",
"761 1449 OFFCURVE",
"833 1390 CURVE SMOOTH",
"905 1330 OFFCURVE",
"944 1245 OFFCURVE",
"944 1141 CURVE SMOOTH"
);
}
);
width = 1145;
},
{
layerId = "2777C4B8-28CF-4E18-816B-E5A8A64F0BAA";
name = Bold;
width = 600;
}
);
unicode = 0032;
},
{
glyphname = three;
lastChange = "2014-05-31 17:36:30 -0600";
layers = (
{
layerId = "9038F23B-D43E-461B-9F57-51F4A7075990";
name = Regular;
paths = (
{
closed = 1;
nodes = (
"589 90 OFFCURVE",
"665 111 OFFCURVE",
"721 163 CURVE SMOOTH",
"777 215 OFFCURVE",
"813 297 OFFCURVE",
"813 420 CURVE SMOOTH",
"813 507 OFFCURVE",
"778 578 OFFCURVE",
"714 627 CURVE SMOOTH",
"650 676 OFFCURVE",
"557 705 OFFCURVE",
"442 705 CURVE SMOOTH",
"377 705 LINE",
"377 809 LINE",
"442 809 LINE SMOOTH",
"533 809 OFFCURVE",
"613 840 OFFCURVE",
"671 895 CURVE SMOOTH",
"729 950 OFFCURVE",
"764 1029 OFFCURVE",
"764 1126 CURVE SMOOTH",
"764 1206 OFFCURVE",
"749 1269 OFFCURVE",
"714 1313 CURVE SMOOTH",
"678 1357 OFFCURVE",
"624 1380 OFFCURVE",
"545 1380 CURVE SMOOTH",
"452 1380 OFFCURVE",
"395 1344 OFFCURVE",
"362 1288 CURVE SMOOTH",
"329 1232 OFFCURVE",
"319 1156 OFFCURVE",
"319 1075 CURVE",
"270 1075 OFFCURVE",
"226 1082 OFFCURVE",
"194 1103 CURVE SMOOTH",
"162 1123 OFFCURVE",
"143 1156 OFFCURVE",
"143 1208 CURVE SMOOTH",
"143 1287 OFFCURVE",
"177 1356 OFFCURVE",
"245 1405 CURVE SMOOTH",
"313 1454 OFFCURVE",
"413 1483 OFFCURVE",
"545 1483 CURVE SMOOTH",
"674 1483 OFFCURVE",
"781 1453 OFFCURVE",
"857 1398 CURVE SMOOTH",
"932 1342 OFFCURVE",
"975 1261 OFFCURVE",
"975 1157 CURVE SMOOTH",
"975 1065 OFFCURVE",
"941 983 OFFCURVE",
"882 917 CURVE SMOOTH",
"823 851 OFFCURVE",
"742 803 OFFCURVE",
"647 780 CURVE",
"698 775 OFFCURVE",
"757 763 OFFCURVE",
"813 739 CURVE SMOOTH",
"869 715 OFFCURVE",
"922 680 OFFCURVE",
"962 628 CURVE SMOOTH",
"1001 576 OFFCURVE",
"1026 509 OFFCURVE",
"1026 418 CURVE SMOOTH",
"1026 309 OFFCURVE",
"995 222 OFFCURVE",
"944 158 CURVE SMOOTH",
"892 93 OFFCURVE",
"822 48 OFFCURVE",
"745 20 CURVE SMOOTH",
"668 -8 OFFCURVE",
"585 -20 OFFCURVE",
"506 -20 CURVE SMOOTH",
"371 -20 OFFCURVE",
"275 7 OFFCURVE",
"212 48 CURVE SMOOTH",
"148 89 OFFCURVE",
"119 147 OFFCURVE",
"119 207 CURVE SMOOTH",
"119 290 OFFCURVE",
"169 338 OFFCURVE",
"248 338 CURVE",
"248 266 OFFCURVE",
"272 204 OFFCURVE",
"316 160 CURVE SMOOTH",
"360 116 OFFCURVE",
"425 90 OFFCURVE",
"508 90 CURVE SMOOTH"
);
}
);
width = 1145;
},
{
layerId = "2777C4B8-28CF-4E18-816B-E5A8A64F0BAA";
name = Bold;
width = 600;
}
);
unicode = 0033;
},
{
glyphname = four;
lastChange = "2014-05-31 17:36:30 -0600";
layers = (
{
layerId = "9038F23B-D43E-461B-9F57-51F4A7075990";
name = Regular;
paths = (
{
closed = 1;
nodes = (
"862 401 LINE",
"862 233 LINE SMOOTH",
"862 169 OFFCURVE",
"882 132 OFFCURVE",
"912 112 CURVE SMOOTH",
"942 91 OFFCURVE",
"985 86 OFFCURVE",
"1030 86 CURVE SMOOTH",
"1057 86 LINE",
"1057 0 LINE",
"440 0 LINE",
"440 86 LINE",
"498 86 LINE SMOOTH",
"545 86 OFFCURVE",
"587 91 OFFCURVE",
"617 112 CURVE SMOOTH",
"647 132 OFFCURVE",
"666 169 OFFCURVE",
"666 233 CURVE SMOOTH",
"666 401 LINE",
"35 401 LINE",
"35 485 LINE",
"668 1462 LINE",
"862 1462 LINE",
"862 516 LINE",
"1116 516 LINE",
"1116 401 LINE"
);
},
{
closed = 1;
nodes = (
"666 895 LINE SMOOTH",
"666 955 OFFCURVE",
"668 1029 OFFCURVE",
"670 1104 CURVE SMOOTH",
"672 1179 OFFCURVE",
"675 1255 OFFCURVE",
"680 1319 CURVE",
"671 1300 OFFCURVE",
"653 1268 OFFCURVE",
"631 1229 CURVE SMOOTH",
"609 1190 OFFCURVE",
"583 1146 OFFCURVE",
"559 1106 CURVE SMOOTH",
"546 1085 OFFCURVE",
"535 1066 OFFCURVE",
"524 1049 CURVE SMOOTH",
"513 1031 OFFCURVE",
"504 1016 OFFCURVE",
"496 1004 CURVE SMOOTH",
"182 516 LINE",
"666 516 LINE"
);
}
);
width = 1145;
},
{
layerId = "2777C4B8-28CF-4E18-816B-E5A8A64F0BAA";
name = Bold;
width = 600;
}
);
unicode = 0034;
},
{
glyphname = five;
lastChange = "2014-05-31 17:36:30 -0600";
layers = (
{
layerId = "9038F23B-D43E-461B-9F57-51F4A7075990";
name = Regular;
paths = (
{
closed = 1;
nodes = (
"573 100 OFFCURVE",
"646 122 OFFCURVE",
"699 176 CURVE SMOOTH",
"751 230 OFFCURVE",
"782 317 OFFCURVE",
"782 446 CURVE SMOOTH",
"782 554 OFFCURVE",
"752 634 OFFCURVE",
"697 687 CURVE SMOOTH",
"642 740 OFFCURVE",
"566 766 OFFCURVE",
"471 766 CURVE SMOOTH",
"400 766 OFFCURVE",
"351 760 OFFCURVE",
"312 752 CURVE SMOOTH",
"272 743 OFFCURVE",
"244 732 OFFCURVE",
"219 721 CURVE",
"170 735 LINE",
"236 1460 LINE",
"920 1460 LINE",
"930 1151 LINE",
"844 1151 LINE",
"836 1212 LINE SMOOTH",
"832 1241 OFFCURVE",
"826 1262 OFFCURVE",
"810 1276 CURVE SMOOTH",
"794 1290 OFFCURVE",
"768 1296 OFFCURVE",
"725 1296 CURVE SMOOTH",
"328 1296 LINE",
"289 846 LINE",
"330 861 OFFCURVE",
"407 879 OFFCURVE",
"528 879 CURVE SMOOTH",
"660 879 OFFCURVE",
"777 843 OFFCURVE",
"861 771 CURVE SMOOTH",
"945 699 OFFCURVE",
"995 590 OFFCURVE",
"995 446 CURVE SMOOTH",
"995 307 OFFCURVE",
"949 191 OFFCURVE",
"865 109 CURVE SMOOTH",
"780 27 OFFCURVE",
"656 -20 OFFCURVE",
"500 -20 CURVE SMOOTH",
"348 -20 OFFCURVE",
"252 9 OFFCURVE",
"193 49 CURVE SMOOTH",
"134 89 OFFCURVE",
"113 141 OFFCURVE",
"113 186 CURVE SMOOTH",
"113 262 OFFCURVE",
"154 307 OFFCURVE",
"242 307 CURVE",
"242 248 OFFCURVE",
"263 196 OFFCURVE",
"304 160 CURVE SMOOTH",
"344 123 OFFCURVE",
"406 100 OFFCURVE",
"489 100 CURVE SMOOTH"
);
}
);
width = 1145;
},
{
layerId = "2777C4B8-28CF-4E18-816B-E5A8A64F0BAA";
name = Bold;
width = 600;
}
);
unicode = 0035;
},
{
glyphname = six;
lastChange = "2014-05-31 17:36:30 -0600";
layers = (
{
layerId = "9038F23B-D43E-461B-9F57-51F4A7075990";
name = Regular;
paths = (
{
closed = 1;
nodes = (
"454 1384 OFFCURVE",
"351 1181 OFFCURVE",
"336 782 CURVE",
"369 810 OFFCURVE",
"410 837 OFFCURVE",
"458 857 CURVE SMOOTH",
"506 876 OFFCURVE",
"562 889 OFFCURVE",
"629 889 CURVE SMOOTH",
"754 889 OFFCURVE",
"857 849 OFFCURVE",
"929 777 CURVE SMOOTH",
"1000 705 OFFCURVE",
"1040 600 OFFCURVE",
"1040 469 CURVE SMOOTH",
"1040 325 OFFCURVE",
"1000 203 OFFCURVE",
"925 117 CURVE SMOOTH",
"849 31 OFFCURVE",
"740 -20 OFFCURVE",
"600 -20 CURVE SMOOTH",
"464 -20 OFFCURVE",
"345 35 OFFCURVE",
"261 157 CURVE SMOOTH",
"176 279 OFFCURVE",
"125 468 OFFCURVE",
"125 737 CURVE SMOOTH",
"125 866 OFFCURVE",
"144 992 OFFCURVE",
"183 1103 CURVE SMOOTH",
"222 1214 OFFCURVE",
"280 1309 OFFCURVE",
"360 1377 CURVE SMOOTH",
"439 1444 OFFCURVE",
"539 1483 OFFCURVE",
"659 1483 CURVE SMOOTH",
"774 1483 OFFCURVE",
"858 1457 OFFCURVE",
"914 1417 CURVE SMOOTH",
"970 1377 OFFCURVE",
"997 1323 OFFCURVE",
"997 1268 CURVE SMOOTH",
"997 1189 OFFCURVE",
"943 1145 OFFCURVE",
"840 1145 CURVE",
"840 1212 OFFCURVE",
"828 1271 OFFCURVE",
"799 1315 CURVE SMOOTH",
"770 1358 OFFCURVE",
"726 1384 OFFCURVE",
"659 1384 CURVE SMOOTH"
);
},
{
closed = 1;
nodes = (
"535 784 OFFCURVE",
"485 769 OFFCURVE",
"442 747 CURVE SMOOTH",
"398 725 OFFCURVE",
"362 694 OFFCURVE",
"334 666 CURVE",
"337 461 OFFCURVE",
"363 317 OFFCURVE",
"410 225 CURVE SMOOTH",
"457 133 OFFCURVE",
"525 92 OFFCURVE",
"606 92 CURVE SMOOTH",
"753 92 OFFCURVE",
"831 201 OFFCURVE",
"831 449 CURVE SMOOTH",
"831 682 OFFCURVE",
"745 784 OFFCURVE",
"588 784 CURVE SMOOTH"
);
}
);
width = 1145;
},
{
layerId = "2777C4B8-28CF-4E18-816B-E5A8A64F0BAA";
name = Bold;
width = 600;
}
);
unicode = 0036;
},
{
glyphname = seven;
lastChange = "2014-05-31 17:36:30 -0600";
layers = (
{
layerId = "9038F23B-D43E-461B-9F57-51F4A7075990";
name = Regular;
paths = (
{
closed = 1;
nodes = (
"389 0 LINE",
"872 1296 LINE",
"334 1296 LINE SMOOTH",
"261 1296 OFFCURVE",
"221 1261 OFFCURVE",
"215 1192 CURVE SMOOTH",
"207 1090 LINE",
"121 1090 LINE",
"131 1460 LINE",
"1047 1460 LINE",
"1047 1401 LINE",
"543 0 LINE"
);
}
);
width = 1145;
},
{
layerId = "2777C4B8-28CF-4E18-816B-E5A8A64F0BAA";
name = Bold;
width = 600;
}
);
unicode = 0037;
},
{
glyphname = eight;
lastChange = "2014-05-31 17:36:30 -0600";
layers = (
{
layerId = "9038F23B-D43E-461B-9F57-51F4A7075990";
name = Regular;
paths = (
{
closed = 1;
nodes = (
"94 466 OFFCURVE",
"127 538 OFFCURVE",
"183 596 CURVE SMOOTH",
"239 654 OFFCURVE",
"317 698 OFFCURVE",
"406 741 CURVE",
"329 785 OFFCURVE",
"262 836 OFFCURVE",
"215 897 CURVE SMOOTH",
"168 958 OFFCURVE",
"141 1031 OFFCURVE",
"141 1116 CURVE SMOOTH",
"141 1211 OFFCURVE",
"173 1302 OFFCURVE",
"244 1370 CURVE SMOOTH",
"315 1438 OFFCURVE",
"427 1483 OFFCURVE",
"584 1483 CURVE SMOOTH",
"712 1483 OFFCURVE",
"813 1446 OFFCURVE",
"882 1383 CURVE SMOOTH",
"950 1320 OFFCURVE",
"987 1233 OFFCURVE",
"987 1130 CURVE SMOOTH",
"987 1041 OFFCURVE",
"959 975 OFFCURVE",
"911 921 CURVE SMOOTH",
"863 867 OFFCURVE",
"794 825 OFFCURVE",
"711 784 CURVE",
"812 736 OFFCURVE",
"897 682 OFFCURVE",
"957 618 CURVE SMOOTH",
"1017 554 OFFCURVE",
"1051 480 OFFCURVE",
"1051 391 CURVE SMOOTH",
"1051 262 OFFCURVE",
"1002 159 OFFCURVE",
"917 88 CURVE SMOOTH",
"832 17 OFFCURVE",
"708 -20 OFFCURVE",
"559 -20 CURVE SMOOTH",
"406 -20 OFFCURVE",
"290 23 OFFCURVE",
"212 93 CURVE SMOOTH",
"134 163 OFFCURVE",
"94 259 OFFCURVE",
"94 367 CURVE SMOOTH"
);
},
{
closed = 1;
nodes = (
"658 74 OFFCURVE",
"732 103 OFFCURVE",
"784 151 CURVE SMOOTH",
"835 199 OFFCURVE",
"864 267 OFFCURVE",
"864 346 CURVE SMOOTH",
"864 415 OFFCURVE",
"840 473 OFFCURVE",
"783 529 CURVE SMOOTH",
"726 584 OFFCURVE",
"636 635 OFFCURVE",
"504 692 CURVE",
"375 623 OFFCURVE",
"293 513 OFFCURVE",
"293 358 CURVE SMOOTH",
"293 273 OFFCURVE",
"317 203 OFFCURVE",
"363 153 CURVE SMOOTH",
"409 103 OFFCURVE",
"478 74 OFFCURVE",
"569 74 CURVE SMOOTH"
);
},
{
closed = 1;
nodes = (
"805 1198 OFFCURVE",
"789 1260 OFFCURVE",
"753 1308 CURVE SMOOTH",
"716 1355 OFFCURVE",
"658 1386 OFFCURVE",
"571 1386 CURVE SMOOTH",
"495 1386 OFFCURVE",
"435 1360 OFFCURVE",
"395 1317 CURVE SMOOTH",
"355 1273 OFFCURVE",
"334 1212 OFFCURVE",
"334 1141 CURVE SMOOTH",
"334 1068 OFFCURVE",
"358 1010 OFFCURVE",
"404 962 CURVE SMOOTH",
"450 914 OFFCURVE",
"519 874 OFFCURVE",
"610 831 CURVE",
"687 870 OFFCURVE",
"736 909 OFFCURVE",
"765 958 CURVE SMOOTH",
"794 1006 OFFCURVE",
"805 1063 OFFCURVE",
"805 1135 CURVE SMOOTH"
);
}
);
width = 1145;
},
{
layerId = "2777C4B8-28CF-4E18-816B-E5A8A64F0BAA";
name = Bold;
width = 600;
}
);
unicode = 0038;
},
{
glyphname = nine;
lastChange = "2014-05-31 17:36:30 -0600";
layers = (
{
layerId = "9038F23B-D43E-461B-9F57-51F4A7075990";
name = Regular;
paths = (
{
closed = 1;
nodes = (
"694 90 OFFCURVE",
"796 291 OFFCURVE",
"809 702 CURVE",
"780 666 OFFCURVE",
"741 632 OFFCURVE",
"691 606 CURVE SMOOTH",
"641 580 OFFCURVE",
"580 563 OFFCURVE",
"508 563 CURVE SMOOTH",
"389 563 OFFCURVE",
"288 598 OFFCURVE",
"217 667 CURVE SMOOTH",
"145 736 OFFCURVE",
"104 840 OFFCURVE",
"104 979 CURVE SMOOTH",
"104 1127 OFFCURVE",
"145 1253 OFFCURVE",
"221 1342 CURVE SMOOTH",
"296 1430 OFFCURVE",
"406 1483 OFFCURVE",
"543 1483 CURVE SMOOTH",
"682 1483 OFFCURVE",
"800 1431 OFFCURVE",
"885 1319 CURVE SMOOTH",
"970 1207 OFFCURVE",
"1020 1035 OFFCURVE",
"1020 795 CURVE SMOOTH",
"1020 652 OFFCURVE",
"1003 513 OFFCURVE",
"965 392 CURVE SMOOTH",
"927 271 OFFCURVE",
"868 168 OFFCURVE",
"786 94 CURVE SMOOTH",
"704 20 OFFCURVE",
"597 -23 OFFCURVE",
"465 -23 CURVE SMOOTH",
"349 -23 OFFCURVE",
"274 0 OFFCURVE",
"230 33 CURVE SMOOTH",
"185 66 OFFCURVE",
"168 111 OFFCURVE",
"168 154 CURVE SMOOTH",
"168 205 OFFCURVE",
"198 241 OFFCURVE",
"229 252 CURVE",
"248 209 OFFCURVE",
"274 169 OFFCURVE",
"314 139 CURVE SMOOTH",
"353 109 OFFCURVE",
"403 90 OFFCURVE",
"467 90 CURVE SMOOTH"
);
},
{
closed = 1;
nodes = (
"620 685 OFFCURVE",
"675 705 OFFCURVE",
"718 735 CURVE SMOOTH",
"761 765 OFFCURVE",
"792 806 OFFCURVE",
"811 850 CURVE",
"811 854 LINE",
"808 1034 OFFCURVE",
"781 1163 OFFCURVE",
"734 1247 CURVE SMOOTH",
"687 1331 OFFCURVE",
"622 1370 OFFCURVE",
"543 1370 CURVE SMOOTH",
"398 1370 OFFCURVE",
"315 1240 OFFCURVE",
"315 999 CURVE SMOOTH",
"315 887 OFFCURVE",
"335 808 OFFCURVE",
"375 757 CURVE SMOOTH",
"415 706 OFFCURVE",
"474 684 OFFCURVE",
"553 684 CURVE SMOOTH"
);
}
);
width = 1145;
},
{
layerId = "2777C4B8-28CF-4E18-816B-E5A8A64F0BAA";
name = Bold;
width = 600;
}
);
unicode = 0039;
},
{
glyphname = colon;
lastChange = "2014-05-31 17:36:30 -0600";
layers = (
{
layerId = "9038F23B-D43E-461B-9F57-51F4A7075990";
name = Regular;
paths = (
{
closed = 1;
nodes = (
"166 178 OFFCURVE",
"180 213 OFFCURVE",
"204 234 CURVE SMOOTH",
"227 255 OFFCURVE",
"259 264 OFFCURVE",
"295 264 CURVE SMOOTH",
"330 264 OFFCURVE",
"362 255 OFFCURVE",
"386 234 CURVE SMOOTH",
"409 213 OFFCURVE",
"424 178 OFFCURVE",
"424 125 CURVE SMOOTH",
"424 73 OFFCURVE",
"409 37 OFFCURVE",
"386 16 CURVE SMOOTH",
"362 -5 OFFCURVE",
"330 -14 OFFCURVE",
"295 -14 CURVE SMOOTH",
"259 -14 OFFCURVE",
"227 -5 OFFCURVE",
"204 16 CURVE SMOOTH",
"180 37 OFFCURVE",
"166 73 OFFCURVE",
"166 125 CURVE SMOOTH"
);
},
{
closed = 1;
nodes = (
"166 1022 OFFCURVE",
"180 1057 OFFCURVE",
"204 1078 CURVE SMOOTH",
"227 1099 OFFCURVE",
"259 1108 OFFCURVE",
"295 1108 CURVE SMOOTH",
"330 1108 OFFCURVE",
"362 1099 OFFCURVE",
"386 1078 CURVE SMOOTH",
"409 1057 OFFCURVE",
"424 1022 OFFCURVE",
"424 969 CURVE SMOOTH",
"424 917 OFFCURVE",
"409 882 OFFCURVE",
"386 860 CURVE SMOOTH",
"362 838 OFFCURVE",
"330 829 OFFCURVE",
"295 829 CURVE SMOOTH",
"259 829 OFFCURVE",
"227 838 OFFCURVE",
"204 860 CURVE SMOOTH",
"180 882 OFFCURVE",
"166 917 OFFCURVE",
"166 969 CURVE SMOOTH"
);
}
);
width = 588;
},
{
layerId = "2777C4B8-28CF-4E18-816B-E5A8A64F0BAA";
name = Bold;
width = 600;
}
);
unicode = 003A;
},
{
glyphname = semicolon;
lastChange = "2014-05-31 17:36:30 -0600";
layers = (
{
layerId = "9038F23B-D43E-461B-9F57-51F4A7075990";
name = Regular;
paths = (
{
closed = 1;
nodes = (
"397 -1 OFFCURVE",
"375 -84 OFFCURVE",
"321 -153 CURVE SMOOTH",
"267 -222 OFFCURVE",
"184 -279 OFFCURVE",
"61 -315 CURVE",
"61 -229 LINE",
"196 -186 OFFCURVE",
"256 -125 OFFCURVE",
"256 -45 CURVE SMOOTH",
"256 -18 OFFCURVE",
"240 -1 OFFCURVE",
"217 13 CURVE SMOOTH",
"206 20 OFFCURVE",
"194 26 OFFCURVE",
"181 33 CURVE SMOOTH",
"156 46 OFFCURVE",
"132 64 OFFCURVE",
"117 92 CURVE SMOOTH",
"110 105 OFFCURVE",
"106 122 OFFCURVE",
"106 143 CURVE SMOOTH",
"106 222 OFFCURVE",
"164 264 OFFCURVE",
"240 264 CURVE SMOOTH",
"283 264 OFFCURVE",
"321 249 OFFCURVE",
"350 219 CURVE SMOOTH",
"379 189 OFFCURVE",
"397 143 OFFCURVE",
"397 86 CURVE SMOOTH"
);
},
{
closed = 1;
nodes = (
"129 1022 OFFCURVE",
"143 1057 OFFCURVE",
"167 1078 CURVE SMOOTH",
"190 1099 OFFCURVE",
"222 1108 OFFCURVE",
"258 1108 CURVE SMOOTH",
"293 1108 OFFCURVE",
"325 1099 OFFCURVE",
"349 1078 CURVE SMOOTH",
"372 1057 OFFCURVE",
"387 1022 OFFCURVE",
"387 969 CURVE SMOOTH",
"387 917 OFFCURVE",
"372 882 OFFCURVE",
"349 860 CURVE SMOOTH",
"325 838 OFFCURVE",
"293 829 OFFCURVE",
"258 829 CURVE SMOOTH",
"222 829 OFFCURVE",
"190 838 OFFCURVE",
"167 860 CURVE SMOOTH",
"143 882 OFFCURVE",
"129 917 OFFCURVE",
"129 969 CURVE SMOOTH"
);
}
);
width = 512;
},
{
layerId = "2777C4B8-28CF-4E18-816B-E5A8A64F0BAA";
name = Bold;
width = 600;
}
);
unicode = 003B;
},
{
glyphname = less;
lastChange = "2014-05-31 17:36:30 -0600";
layers = (
{
layerId = "9038F23B-D43E-461B-9F57-51F4A7075990";
name = Regular;
paths = (
{
closed = 1;
nodes = (
"133 696 LINE",
"133 768 LINE",
"1012 1241 LINE",
"1012 1104 LINE",
"324 731 LINE",
"1012 362 LINE",
"1012 225 LINE"
);
}
);
width = 1145;
},
{
layerId = "2777C4B8-28CF-4E18-816B-E5A8A64F0BAA";
name = Bold;
width = 600;
}
);
unicode = 003C;
},
{
glyphname = equal;
lastChange = "2014-05-31 17:36:30 -0600";
layers = (
{
layerId = "9038F23B-D43E-461B-9F57-51F4A7075990";
name = Regular;
paths = (
{
closed = 1;
nodes = (
"1012 590 LINE",
"1012 469 LINE",
"133 469 LINE",
"133 590 LINE"
);
},
{
closed = 1;
nodes = (
"1012 993 LINE",
"1012 872 LINE",
"133 872 LINE",
"133 993 LINE"
);
}
);
width = 1145;
},
{
layerId = "2777C4B8-28CF-4E18-816B-E5A8A64F0BAA";
name = Bold;
width = 600;
}
);
unicode = 003D;
},
{
glyphname = greater;
lastChange = "2014-05-31 17:36:30 -0600";
layers = (
{
layerId = "9038F23B-D43E-461B-9F57-51F4A7075990";
name = Regular;
paths = (
{
closed = 1;
nodes = (
"133 225 LINE",
"133 362 LINE",
"821 731 LINE",
"133 1104 LINE",
"133 1241 LINE",
"1012 768 LINE",
"1012 696 LINE"
);
}
);
width = 1145;
},
{
layerId = "2777C4B8-28CF-4E18-816B-E5A8A64F0BAA";
name = Bold;
width = 600;
}
);
unicode = 003E;
},
{
glyphname = question;
lastChange = "2014-05-31 17:36:30 -0600";
layers = (
{
layerId = "9038F23B-D43E-461B-9F57-51F4A7075990";
name = Regular;
paths = (
{
closed = 1;
nodes = (
"522 412 LINE",
"397 412 LINE",
"397 723 LINE",
"516 771 OFFCURVE",
"595 836 OFFCURVE",
"644 910 CURVE SMOOTH",
"692 984 OFFCURVE",
"711 1066 OFFCURVE",
"711 1147 CURVE SMOOTH",
"711 1218 OFFCURVE",
"694 1277 OFFCURVE",
"658 1318 CURVE SMOOTH",
"622 1358 OFFCURVE",
"566 1382 OFFCURVE",
"487 1382 CURVE SMOOTH",
"402 1382 OFFCURVE",
"345 1352 OFFCURVE",
"309 1304 CURVE SMOOTH",
"273 1256 OFFCURVE",
"258 1191 OFFCURVE",
"258 1120 CURVE",
"209 1120 OFFCURVE",
"167 1132 OFFCURVE",
"137 1154 CURVE SMOOTH",
"107 1176 OFFCURVE",
"88 1209 OFFCURVE",
"88 1253 CURVE SMOOTH",
"88 1318 OFFCURVE",
"117 1376 OFFCURVE",
"181 1417 CURVE SMOOTH",
"244 1458 OFFCURVE",
"339 1483 OFFCURVE",
"471 1483 CURVE SMOOTH",
"600 1483 OFFCURVE",
"712 1449 OFFCURVE",
"792 1386 CURVE SMOOTH",
"872 1322 OFFCURVE",
"920 1229 OFFCURVE",
"920 1112 CURVE SMOOTH",
"920 1000 OFFCURVE",
"884 909 OFFCURVE",
"816 833 CURVE SMOOTH",
"748 757 OFFCURVE",
"649 695 OFFCURVE",
"522 643 CURVE"
);
},
{
closed = 1;
nodes = (
"328 178 OFFCURVE",
"342 213 OFFCURVE",
"366 234 CURVE SMOOTH",
"389 255 OFFCURVE",
"421 264 OFFCURVE",
"457 264 CURVE SMOOTH",
"492 264 OFFCURVE",
"524 255 OFFCURVE",
"548 234 CURVE SMOOTH",
"571 213 OFFCURVE",
"586 178 OFFCURVE",
"586 125 CURVE SMOOTH",
"586 73 OFFCURVE",
"571 37 OFFCURVE",
"548 16 CURVE SMOOTH",
"524 -5 OFFCURVE",
"492 -14 OFFCURVE",
"457 -14 CURVE SMOOTH",
"421 -14 OFFCURVE",
"389 -5 OFFCURVE",
"366 16 CURVE SMOOTH",
"342 37 OFFCURVE",
"328 73 OFFCURVE",
"328 125 CURVE SMOOTH"
);
}
);
width = 1024;
},
{
layerId = "2777C4B8-28CF-4E18-816B-E5A8A64F0BAA";
name = Bold;
width = 600;
}
);
unicode = 003F;
},
{
glyphname = at;
lastChange = "2014-05-31 17:36:30 -0600";
layers = (
{
layerId = "9038F23B-D43E-461B-9F57-51F4A7075990";
name = Regular;
paths = (
{
closed = 1;
nodes = (
"1778 606 OFFCURVE",
"1725 444 OFFCURVE",
"1648 332 CURVE SMOOTH",
"1571 220 OFFCURVE",
"1471 158 OFFCURVE",
"1376 158 CURVE SMOOTH",
"1255 158 OFFCURVE",
"1174 227 OFFCURVE",
"1135 344 CURVE",
"1124 344 LINE",
"1096 291 OFFCURVE",
"1061 244 OFFCURVE",
"1017 211 CURVE SMOOTH",
"972 178 OFFCURVE",
"917 158 OFFCURVE",
"848 158 CURVE SMOOTH",
"765 158 OFFCURVE",
"687 186 OFFCURVE",
"631 243 CURVE SMOOTH",
"574 300 OFFCURVE",
"537 388 OFFCURVE",
"537 508 CURVE SMOOTH",
"537 581 OFFCURVE",
"553 670 OFFCURVE",
"589 755 CURVE SMOOTH",
"624 839 OFFCURVE",
"679 922 OFFCURVE",
"756 983 CURVE SMOOTH",
"833 1043 OFFCURVE",
"934 1083 OFFCURVE",
"1059 1083 CURVE SMOOTH",
"1147 1083 OFFCURVE",
"1210 1055 OFFCURVE",
"1251 1022 CURVE",
"1333 1065 LINE",
"1382 1065 LINE",
"1278 543 LINE",
"1276 527 OFFCURVE",
"1274 511 OFFCURVE",
"1271 495 CURVE",
"1267 468 OFFCURVE",
"1264 434 OFFCURVE",
"1264 406 CURVE SMOOTH",
"1264 358 OFFCURVE",
"1279 323 OFFCURVE",
"1302 300 CURVE SMOOTH",
"1325 276 OFFCURVE",
"1356 266 OFFCURVE",
"1389 266 CURVE SMOOTH",
"1449 266 OFFCURVE",
"1515 315 OFFCURVE",
"1566 408 CURVE SMOOTH",
"1617 500 OFFCURVE",
"1653 636 OFFCURVE",
"1653 809 CURVE SMOOTH",
"1653 988 OFFCURVE",
"1593 1125 OFFCURVE",
"1491 1218 CURVE SMOOTH",
"1389 1310 OFFCURVE",
"1244 1358 OFFCURVE",
"1073 1358 CURVE SMOOTH",
"940 1358 OFFCURVE",
"809 1320 OFFCURVE",
"694 1248 CURVE SMOOTH",
"579 1175 OFFCURVE",
"479 1070 OFFCURVE",
"408 936 CURVE SMOOTH",
"337 802 OFFCURVE",
"295 638 OFFCURVE",
"295 451 CURVE SMOOTH",
"295 223 OFFCURVE",
"365 65 OFFCURVE",
"477 -37 CURVE SMOOTH",
"588 -139 OFFCURVE",
"740 -184 OFFCURVE",
"905 -184 CURVE SMOOTH",
"1017 -184 OFFCURVE",
"1117 -163 OFFCURVE",
"1205 -131 CURVE SMOOTH",
"1292 -99 OFFCURVE",
"1366 -57 OFFCURVE",
"1425 -14 CURVE",
"1473 -88 LINE",
"1405 -139 OFFCURVE",
"1321 -189 OFFCURVE",
"1223 -227 CURVE SMOOTH",
"1125 -265 OFFCURVE",
"1012 -291 OFFCURVE",
"885 -291 CURVE SMOOTH",
"665 -291 OFFCURVE",
"477 -231 OFFCURVE",
"345 -108 CURVE SMOOTH",
"212 15 OFFCURVE",
"133 198 OFFCURVE",
"133 446 CURVE SMOOTH",
"133 639 OFFCURVE",
"176 816 OFFCURVE",
"256 967 CURVE SMOOTH",
"335 1118 OFFCURVE",
"449 1242 OFFCURVE",
"590 1328 CURVE SMOOTH",
"731 1414 OFFCURVE",
"898 1462 OFFCURVE",
"1085 1462 CURVE SMOOTH",
"1314 1462 OFFCURVE",
"1488 1390 OFFCURVE",
"1604 1272 CURVE SMOOTH",
"1720 1154 OFFCURVE",
"1778 988 OFFCURVE",
"1778 803 CURVE SMOOTH"
);
},
{
closed = 1;
nodes = (
"727 335 OFFCURVE",
"791 266 OFFCURVE",
"883 266 CURVE SMOOTH",
"952 266 OFFCURVE",
"1002 299 OFFCURVE",
"1037 347 CURVE SMOOTH",
"1072 395 OFFCURVE",
"1092 459 OFFCURVE",
"1104 522 CURVE SMOOTH",
"1182 938 LINE",
"1165 977 OFFCURVE",
"1116 999 OFFCURVE",
"1067 999 CURVE SMOOTH",
"986 999 OFFCURVE",
"920 960 OFFCURVE",
"870 903 CURVE SMOOTH",
"820 846 OFFCURVE",
"784 768 OFFCURVE",
"761 691 CURVE SMOOTH",
"737 614 OFFCURVE",
"727 538 OFFCURVE",
"727 479 CURVE SMOOTH"
);
}
);
width = 1886;
},
{
layerId = "2777C4B8-28CF-4E18-816B-E5A8A64F0BAA";
name = Bold;
width = 600;
}
);
unicode = 0040;
},
{
glyphname = A;
lastChange = "2014-05-31 17:36:30 -0600";
layers = (
{
layerId = "9038F23B-D43E-461B-9F57-51F4A7075990";
name = Regular;
paths = (
{
closed = 1;
nodes = (
"414 489 LINE",
"336 274 LINE SMOOTH",
"324 242 OFFCURVE",
"317 209 OFFCURVE",
"317 186 CURVE SMOOTH",
"317 117 OFFCURVE",
"361 86 OFFCURVE",
"453 86 CURVE SMOOTH",
"500 86 LINE",
"500 0 LINE",
"0 0 LINE",
"0 86 LINE",
"39 86 LINE SMOOTH",
"79 86 OFFCURVE",
"105 93 OFFCURVE",
"128 117 CURVE SMOOTH",
"151 141 OFFCURVE",
"170 181 OFFCURVE",
"195 246 CURVE SMOOTH",
"649 1462 LINE",
"809 1462 LINE",
"1272 195 LINE SMOOTH",
"1288 152 OFFCURVE",
"1303 125 OFFCURVE",
"1326 109 CURVE SMOOTH",
"1349 92 OFFCURVE",
"1377 86 OFFCURVE",
"1417 86 CURVE SMOOTH",
"1444 86 LINE",
"1444 0 LINE",
"881 0 LINE",
"881 86 LINE",
"928 86 LINE SMOOTH",
"1010 86 OFFCURVE",
"1051 119 OFFCURVE",
"1051 184 CURVE SMOOTH",
"1051 207 OFFCURVE",
"1045 229 OFFCURVE",
"1034 260 CURVE SMOOTH",
"952 489 LINE"
);
},
{
closed = 1;
nodes = (
"788 950 LINE SMOOTH",
"745 1071 OFFCURVE",
"709 1175 OFFCURVE",
"686 1274 CURVE",
"677 1225 OFFCURVE",
"664 1180 OFFCURVE",
"649 1132 CURVE SMOOTH",
"634 1084 OFFCURVE",
"616 1033 OFFCURVE",
"592 969 CURVE SMOOTH",
"453 592 LINE",
"915 592 LINE"
);
}
);
width = 1444;
},
{
layerId = "2777C4B8-28CF-4E18-816B-E5A8A64F0BAA";
name = Bold;
width = 600;
}
);
unicode = 0041;
},
{
glyphname = B;
lastChange = "2014-05-31 17:36:30 -0600";
layers = (
{
layerId = "9038F23B-D43E-461B-9F57-51F4A7075990";
name = Regular;
paths = (
{
closed = 1;
nodes = (
"1153 1004 OFFCURVE",
"1125 936 OFFCURVE",
"1080 884 CURVE SMOOTH",
"1035 832 OFFCURVE",
"971 798 OFFCURVE",
"899 774 CURVE",
"899 766 LINE",
"992 750 OFFCURVE",
"1071 712 OFFCURVE",
"1127 650 CURVE SMOOTH",
"1182 588 OFFCURVE",
"1214 503 OFFCURVE",
"1214 395 CURVE SMOOTH",
"1214 131 OFFCURVE",
"1043 0 OFFCURVE",
"688 0 CURVE SMOOTH",
"78 0 LINE",
"78 86 LINE",
"104 86 LINE SMOOTH",
"151 86 OFFCURVE",
"192 91 OFFCURVE",
"223 112 CURVE SMOOTH",
"254 132 OFFCURVE",
"272 169 OFFCURVE",
"272 233 CURVE SMOOTH",
"272 1237 LINE SMOOTH",
"272 1297 OFFCURVE",
"253 1332 OFFCURVE",
"222 1352 CURVE SMOOTH",
"191 1372 OFFCURVE",
"149 1376 OFFCURVE",
"104 1376 CURVE SMOOTH",
"78 1376 LINE",
"78 1462 LINE",
"627 1462 LINE SMOOTH",
"982 1462 OFFCURVE",
"1153 1348 OFFCURVE",
"1153 1096 CURVE SMOOTH"
);
},
{
closed = 1;
nodes = (
"479 102 LINE",
"678 102 LINE SMOOTH",
"794 102 OFFCURVE",
"872 122 OFFCURVE",
"923 170 CURVE SMOOTH",
"974 217 OFFCURVE",
"995 292 OFFCURVE",
"995 401 CURVE SMOOTH",
"995 508 OFFCURVE",
"977 586 OFFCURVE",
"929 638 CURVE SMOOTH",
"880 690 OFFCURVE",
"802 715 OFFCURVE",
"682 715 CURVE SMOOTH",
"479 715 LINE"
);
},
{
closed = 1;
nodes = (
"479 817 LINE",
"621 817 LINE SMOOTH",
"741 817 OFFCURVE",
"819 838 OFFCURVE",
"867 883 CURVE SMOOTH",
"915 927 OFFCURVE",
"934 997 OFFCURVE",
"934 1096 CURVE SMOOTH",
"934 1196 OFFCURVE",
"913 1262 OFFCURVE",
"862 1303 CURVE SMOOTH",
"811 1344 OFFCURVE",
"732 1360 OFFCURVE",
"616 1360 CURVE SMOOTH",
"479 1360 LINE"
);
}
);
width = 1339;
},
{
layerId = "2777C4B8-28CF-4E18-816B-E5A8A64F0BAA";
name = Bold;
width = 600;
}
);
unicode = 0042;
},
{
glyphname = C;
lastChange = "2014-05-31 17:36:30 -0600";
layers = (
{
layerId = "9038F23B-D43E-461B-9F57-51F4A7075990";
name = Regular;
paths = (
{
closed = 1;
nodes = (
"914 1483 OFFCURVE",
"1017 1458 OFFCURVE",
"1086 1417 CURVE SMOOTH",
"1154 1376 OFFCURVE",
"1188 1318 OFFCURVE",
"1188 1253 CURVE SMOOTH",
"1188 1209 OFFCURVE",
"1169 1173 OFFCURVE",
"1137 1149 CURVE SMOOTH",
"1105 1124 OFFCURVE",
"1061 1110 OFFCURVE",
"1010 1110 CURVE",
"1010 1174 OFFCURVE",
"995 1240 OFFCURVE",
"957 1290 CURVE SMOOTH",
"919 1340 OFFCURVE",
"859 1374 OFFCURVE",
"770 1374 CURVE SMOOTH",
"615 1374 OFFCURVE",
"509 1316 OFFCURVE",
"441 1208 CURVE SMOOTH",
"373 1099 OFFCURVE",
"344 938 OFFCURVE",
"344 733 CURVE SMOOTH",
"344 550 OFFCURVE",
"375 395 OFFCURVE",
"444 287 CURVE SMOOTH",
"513 178 OFFCURVE",
"619 115 OFFCURVE",
"770 115 CURVE SMOOTH",
"870 115 OFFCURVE",
"945 136 OFFCURVE",
"1004 168 CURVE SMOOTH",
"1063 200 OFFCURVE",
"1106 244 OFFCURVE",
"1141 289 CURVE",
"1164 274 OFFCURVE",
"1180 250 OFFCURVE",
"1180 209 CURVE SMOOTH",
"1180 157 OFFCURVE",
"1145 100 OFFCURVE",
"1073 56 CURVE SMOOTH",
"1001 12 OFFCURVE",
"891 -20 OFFCURVE",
"739 -20 CURVE SMOOTH",
"535 -20 OFFCURVE",
"380 55 OFFCURVE",
"276 187 CURVE SMOOTH",
"171 319 OFFCURVE",
"117 508 OFFCURVE",
"117 733 CURVE SMOOTH",
"117 954 OFFCURVE",
"174 1142 OFFCURVE",
"284 1274 CURVE SMOOTH",
"394 1406 OFFCURVE",
"558 1483 OFFCURVE",
"774 1483 CURVE SMOOTH"
);
}
);
width = 1257;
},
{
layerId = "2777C4B8-28CF-4E18-816B-E5A8A64F0BAA";
name = Bold;
width = 600;
}
);
unicode = 0043;
},
{
glyphname = D;
lastChange = "2014-05-31 17:36:30 -0600";
layers = (
{
layerId = "9038F23B-D43E-461B-9F57-51F4A7075990";
name = Regular;
paths = (
{
closed = 1;
nodes = (
"1372 509 OFFCURVE",
"1316 326 OFFCURVE",
"1205 199 CURVE SMOOTH",
"1094 71 OFFCURVE",
"928 0 OFFCURVE",
"705 0 CURVE SMOOTH",
"78 0 LINE",
"78 86 LINE",
"104 86 LINE SMOOTH",
"151 86 OFFCURVE",
"192 91 OFFCURVE",
"223 112 CURVE SMOOTH",
"254 132 OFFCURVE",
"272 169 OFFCURVE",
"272 233 CURVE SMOOTH",
"272 1237 LINE SMOOTH",
"272 1297 OFFCURVE",
"253 1332 OFFCURVE",
"222 1352 CURVE SMOOTH",
"191 1372 OFFCURVE",
"149 1376 OFFCURVE",
"104 1376 CURVE SMOOTH",
"78 1376 LINE",
"78 1462 LINE",
"705 1462 LINE SMOOTH",
"916 1462 OFFCURVE",
"1083 1396 OFFCURVE",
"1197 1272 CURVE SMOOTH",
"1311 1148 OFFCURVE",
"1372 965 OFFCURVE",
"1372 733 CURVE SMOOTH"
);
},
{
closed = 1;
nodes = (
"657 104 LINE SMOOTH",
"820 104 OFFCURVE",
"942 160 OFFCURVE",
"1023 267 CURVE SMOOTH",
"1104 374 OFFCURVE",
"1145 530 OFFCURVE",
"1145 733 CURVE SMOOTH",
"1145 1140 OFFCURVE",
"983 1360 OFFCURVE",
"659 1360 CURVE SMOOTH",
"479 1360 LINE",
"479 104 LINE"
);
}
);
width = 1489;
},
{
layerId = "2777C4B8-28CF-4E18-816B-E5A8A64F0BAA";
name = Bold;
width = 600;
}
);
unicode = 0044;
},
{
glyphname = E;
lastChange = "2014-05-31 17:36:30 -0600";
layers = (
{
layerId = "9038F23B-D43E-461B-9F57-51F4A7075990";
name = Regular;
paths = (
{
closed = 1;
nodes = (
"479 102 LINE",
"874 102 LINE SMOOTH",
"939 102 OFFCURVE",
"984 121 OFFCURVE",
"1015 152 CURVE SMOOTH",
"1046 183 OFFCURVE",
"1062 225 OFFCURVE",
"1069 270 CURVE SMOOTH",
"1083 358 LINE",
"1190 358 LINE",
"1176 0 LINE",
"78 0 LINE",
"78 86 LINE",
"104 86 LINE SMOOTH",
"149 86 OFFCURVE",
"191 90 OFFCURVE",
"222 109 CURVE SMOOTH",
"253 128 OFFCURVE",
"272 163 OFFCURVE",
"272 223 CURVE SMOOTH",
"272 1229 LINE SMOOTH",
"272 1293 OFFCURVE",
"254 1330 OFFCURVE",
"223 1351 CURVE SMOOTH",
"192 1371 OFFCURVE",
"151 1376 OFFCURVE",
"104 1376 CURVE SMOOTH",
"78 1376 LINE",
"78 1462 LINE",
"1110 1462 LINE",
"1120 1104 LINE",
"1014 1104 LINE",
"1004 1192 LINE SMOOTH",
"999 1237 OFFCURVE",
"984 1279 OFFCURVE",
"956 1310 CURVE SMOOTH",
"927 1341 OFFCURVE",
"884 1360 OFFCURVE",
"823 1360 CURVE SMOOTH",
"479 1360 LINE",
"479 815 LINE",
"973 815 LINE",
"973 715 LINE",
"479 715 LINE"
);
}
);
width = 1276;
},
{
layerId = "2777C4B8-28CF-4E18-816B-E5A8A64F0BAA";
name = Bold;
width = 600;
}
);
unicode = 0045;
},
{
glyphname = F;
lastChange = "2014-05-31 17:36:30 -0600";
layers = (
{
layerId = "9038F23B-D43E-461B-9F57-51F4A7075990";
name = Regular;
paths = (
{
closed = 1;
nodes = (
"479 1360 LINE",
"479 768 LINE",
"973 768 LINE",
"973 668 LINE",
"479 668 LINE",
"479 233 LINE SMOOTH",
"479 169 OFFCURVE",
"499 132 OFFCURVE",
"529 112 CURVE SMOOTH",
"559 91 OFFCURVE",
"602 86 OFFCURVE",
"647 86 CURVE SMOOTH",
"715 86 LINE",
"715 0 LINE",
"78 0 LINE",
"78 86 LINE",
"104 86 LINE SMOOTH",
"149 86 OFFCURVE",
"191 90 OFFCURVE",
"222 109 CURVE SMOOTH",
"253 128 OFFCURVE",
"272 163 OFFCURVE",
"272 223 CURVE SMOOTH",
"272 1237 LINE SMOOTH",
"272 1297 OFFCURVE",
"253 1332 OFFCURVE",
"222 1352 CURVE SMOOTH",
"191 1372 OFFCURVE",
"149 1376 OFFCURVE",
"104 1376 CURVE SMOOTH",
"78 1376 LINE",
"78 1462 LINE",
"1110 1462 LINE",
"1120 1104 LINE",
"1014 1104 LINE",
"1004 1192 LINE SMOOTH",
"999 1239 OFFCURVE",
"984 1281 OFFCURVE",
"954 1311 CURVE SMOOTH",
"924 1341 OFFCURVE",
"879 1360 OFFCURVE",
"815 1360 CURVE SMOOTH"
);
}
);
width = 1208;
},
{
layerId = "2777C4B8-28CF-4E18-816B-E5A8A64F0BAA";
name = Bold;
width = 600;
}
);
unicode = 0046;
},
{
glyphname = G;
lastChange = "2014-05-31 17:36:30 -0600";
layers = (
{
layerId = "9038F23B-D43E-461B-9F57-51F4A7075990";
name = Regular;
paths = (
{
closed = 1;
nodes = (
"584 -20 OFFCURVE",
"407 55 OFFCURVE",
"291 187 CURVE SMOOTH",
"174 319 OFFCURVE",
"117 508 OFFCURVE",
"117 733 CURVE SMOOTH",
"117 954 OFFCURVE",
"178 1142 OFFCURVE",
"299 1274 CURVE SMOOTH",
"419 1406 OFFCURVE",
"598 1483 OFFCURVE",
"834 1483 CURVE SMOOTH",
"986 1483 OFFCURVE",
"1098 1458 OFFCURVE",
"1174 1417 CURVE SMOOTH",
"1249 1376 OFFCURVE",
"1286 1318 OFFCURVE",
"1286 1253 CURVE SMOOTH",
"1286 1209 OFFCURVE",
"1265 1173 OFFCURVE",
"1231 1149 CURVE SMOOTH",
"1197 1124 OFFCURVE",
"1149 1110 OFFCURVE",
"1096 1110 CURVE",
"1096 1174 OFFCURVE",
"1079 1240 OFFCURVE",
"1036 1290 CURVE SMOOTH",
"993 1340 OFFCURVE",
"925 1374 OFFCURVE",
"825 1374 CURVE SMOOTH",
"652 1374 OFFCURVE",
"531 1316 OFFCURVE",
"454 1208 CURVE SMOOTH",
"377 1099 OFFCURVE",
"344 938 OFFCURVE",
"344 733 CURVE SMOOTH",
"344 529 OFFCURVE",
"378 369 OFFCURVE",
"459 261 CURVE SMOOTH",
"540 153 OFFCURVE",
"667 96 OFFCURVE",
"854 96 CURVE SMOOTH",
"933 96 OFFCURVE",
"1010 104 OFFCURVE",
"1067 121 CURVE",
"1067 451 LINE SMOOTH",
"1067 511 OFFCURVE",
"1048 546 OFFCURVE",
"1017 566 CURVE SMOOTH",
"986 585 OFFCURVE",
"944 590 OFFCURVE",
"899 590 CURVE SMOOTH",
"891 590 LINE",
"891 676 LINE",
"1423 676 LINE",
"1423 590 LINE",
"1415 590 LINE SMOOTH",
"1376 590 OFFCURVE",
"1340 585 OFFCURVE",
"1315 565 CURVE SMOOTH",
"1290 544 OFFCURVE",
"1274 506 OFFCURVE",
"1274 442 CURVE SMOOTH",
"1274 74 LINE",
"1137 10 OFFCURVE",
"997 -20 OFFCURVE",
"821 -20 CURVE SMOOTH"
);
}
);
width = 1462;
},
{
layerId = "2777C4B8-28CF-4E18-816B-E5A8A64F0BAA";
name = Bold;
width = 600;
}
);
unicode = 0047;
},
{
glyphname = H;
lastChange = "2014-05-31 17:36:30 -0600";
layers = (
{
layerId = "9038F23B-D43E-461B-9F57-51F4A7075990";
name = Regular;
paths = (
{
closed = 1;
nodes = (
"950 0 LINE",
"950 86 LINE",
"977 86 LINE SMOOTH",
"1024 86 OFFCURVE",
"1066 91 OFFCURVE",
"1096 112 CURVE SMOOTH",
"1126 132 OFFCURVE",
"1145 169 OFFCURVE",
"1145 233 CURVE SMOOTH",
"1145 713 LINE",
"479 713 LINE",
"479 233 LINE SMOOTH",
"479 169 OFFCURVE",
"499 132 OFFCURVE",
"529 112 CURVE SMOOTH",
"559 91 OFFCURVE",
"602 86 OFFCURVE",
"647 86 CURVE SMOOTH",
"674 86 LINE",
"674 0 LINE",
"78 0 LINE",
"78 86 LINE",
"104 86 LINE SMOOTH",
"151 86 OFFCURVE",
"192 91 OFFCURVE",
"223 112 CURVE SMOOTH",
"254 132 OFFCURVE",
"272 169 OFFCURVE",
"272 233 CURVE SMOOTH",
"272 1237 LINE SMOOTH",
"272 1297 OFFCURVE",
"253 1332 OFFCURVE",
"222 1352 CURVE SMOOTH",
"191 1372 OFFCURVE",
"149 1376 OFFCURVE",
"104 1376 CURVE SMOOTH",
"78 1376 LINE",
"78 1462 LINE",
"674 1462 LINE",
"674 1376 LINE",
"647 1376 LINE SMOOTH",
"602 1376 OFFCURVE",
"559 1371 OFFCURVE",
"529 1351 CURVE SMOOTH",
"499 1330 OFFCURVE",
"479 1293 OFFCURVE",
"479 1229 CURVE SMOOTH",
"479 815 LINE",
"1145 815 LINE",
"1145 1229 LINE SMOOTH",
"1145 1293 OFFCURVE",
"1126 1330 OFFCURVE",
"1096 1351 CURVE SMOOTH",
"1066 1371 OFFCURVE",
"1024 1376 OFFCURVE",
"977 1376 CURVE SMOOTH",
"950 1376 LINE",
"950 1462 LINE",
"1546 1462 LINE",
"1546 1376 LINE",
"1520 1376 LINE SMOOTH",
"1473 1376 OFFCURVE",
"1432 1371 OFFCURVE",
"1401 1351 CURVE SMOOTH",
"1370 1330 OFFCURVE",
"1352 1293 OFFCURVE",
"1352 1229 CURVE SMOOTH",
"1352 223 LINE SMOOTH",
"1352 163 OFFCURVE",
"1371 128 OFFCURVE",
"1402 109 CURVE SMOOTH",
"1433 90 OFFCURVE",
"1475 86 OFFCURVE",
"1520 86 CURVE SMOOTH",
"1546 86 LINE",
"1546 0 LINE"
);
}
);
width = 1624;
},
{
layerId = "2777C4B8-28CF-4E18-816B-E5A8A64F0BAA";
name = Bold;
width = 600;
}
);
unicode = 0048;
},
{
glyphname = I;
lastChange = "2014-05-31 17:36:30 -0600";
layers = (
{
layerId = "9038F23B-D43E-461B-9F57-51F4A7075990";
name = Regular;
paths = (
{
closed = 1;
nodes = (
"78 0 LINE",
"78 86 LINE",
"104 86 LINE SMOOTH",
"151 86 OFFCURVE",
"192 91 OFFCURVE",
"223 112 CURVE SMOOTH",
"254 132 OFFCURVE",
"272 169 OFFCURVE",
"272 233 CURVE SMOOTH",
"272 1229 LINE SMOOTH",
"272 1293 OFFCURVE",
"254 1330 OFFCURVE",
"223 1351 CURVE SMOOTH",
"192 1371 OFFCURVE",
"151 1376 OFFCURVE",
"104 1376 CURVE SMOOTH",
"78 1376 LINE",
"78 1462 LINE",
"674 1462 LINE",
"674 1376 LINE",
"647 1376 LINE SMOOTH",
"602 1376 OFFCURVE",
"559 1371 OFFCURVE",
"529 1351 CURVE SMOOTH",
"499 1330 OFFCURVE",
"479 1293 OFFCURVE",
"479 1229 CURVE SMOOTH",
"479 233 LINE SMOOTH",
"479 169 OFFCURVE",
"499 132 OFFCURVE",
"529 112 CURVE SMOOTH",
"559 91 OFFCURVE",
"602 86 OFFCURVE",
"647 86 CURVE SMOOTH",
"674 86 LINE",
"674 0 LINE"
);
}
);
width = 752;
},
{
layerId = "2777C4B8-28CF-4E18-816B-E5A8A64F0BAA";
name = Bold;
width = 600;
}
);
unicode = 0049;
},
{
glyphname = J;
lastChange = "2014-05-31 17:36:30 -0600";
layers = (
{
layerId = "9038F23B-D43E-461B-9F57-51F4A7075990";
name = Regular;
paths = (
{
closed = 1;
nodes = (
"-23 -395 LINE",
"-4 -395 LINE SMOOTH",
"84 -395 OFFCURVE",
"153 -372 OFFCURVE",
"200 -314 CURVE SMOOTH",
"247 -256 OFFCURVE",
"272 -162 OFFCURVE",
"272 -18 CURVE SMOOTH",
"272 1237 LINE SMOOTH",
"272 1297 OFFCURVE",
"253 1332 OFFCURVE",
"222 1352 CURVE SMOOTH",
"191 1372 OFFCURVE",
"149 1376 OFFCURVE",
"104 1376 CURVE SMOOTH",
"78 1376 LINE",
"78 1462 LINE",
"674 1462 LINE",
"674 1376 LINE",
"647 1376 LINE SMOOTH",
"602 1376 OFFCURVE",
"559 1371 OFFCURVE",
"529 1351 CURVE SMOOTH",
"499 1330 OFFCURVE",
"479 1293 OFFCURVE",
"479 1229 CURVE SMOOTH",
"479 -16 LINE SMOOTH",
"479 -200 OFFCURVE",
"428 -319 OFFCURVE",
"344 -391 CURVE SMOOTH",
"260 -464 OFFCURVE",
"143 -492 OFFCURVE",
"12 -492 CURVE SMOOTH",
"-23 -492 LINE"
);
}
);
width = 731;
},
{
layerId = "2777C4B8-28CF-4E18-816B-E5A8A64F0BAA";
name = Bold;
width = 600;
}
);
unicode = 004A;
},
{
glyphname = K;
lastChange = "2014-05-31 17:36:30 -0600";
layers = (
{
layerId = "9038F23B-D43E-461B-9F57-51F4A7075990";
name = Regular;
paths = (
{
closed = 1;
nodes = (
"903 1137 LINE SMOOTH",
"947 1188 OFFCURVE",
"976 1226 OFFCURVE",
"993 1258 CURVE SMOOTH",
"1009 1290 OFFCURVE",
"1016 1313 OFFCURVE",
"1016 1333 CURVE SMOOTH",
"1016 1350 OFFCURVE",
"1008 1362 OFFCURVE",
"991 1369 CURVE",
"974 1375 OFFCURVE",
"949 1378 OFFCURVE",
"915 1378 CURVE",
"915 1462 LINE",
"1368 1462 LINE",
"1368 1378 LINE",
"1321 1378 OFFCURVE",
"1279 1359 OFFCURVE",
"1236 1327 CURVE SMOOTH",
"1192 1294 OFFCURVE",
"1147 1246 OFFCURVE",
"1094 1186 CURVE SMOOTH",
"797 852 LINE",
"1229 250 LINE SMOOTH",
"1308 142 OFFCURVE",
"1378 86 OFFCURVE",
"1454 86 CURVE SMOOTH",
"1458 86 LINE",
"1458 0 LINE",
"1436 0 LINE SMOOTH",
"1299 0 OFFCURVE",
"1216 9 OFFCURVE",
"1156 37 CURVE SMOOTH",
"1096 65 OFFCURVE",
"1057 111 OFFCURVE",
"1006 184 CURVE SMOOTH",
"653 690 LINE",
"479 549 LINE",
"479 233 LINE SMOOTH",
"479 169 OFFCURVE",
"499 132 OFFCURVE",
"529 112 CURVE SMOOTH",
"559 91 OFFCURVE",
"602 86 OFFCURVE",
"647 86 CURVE SMOOTH",
"674 86 LINE",
"674 0 LINE",
"78 0 LINE",
"78 86 LINE",
"104 86 LINE SMOOTH",
"149 86 OFFCURVE",
"191 90 OFFCURVE",
"222 109 CURVE SMOOTH",
"253 128 OFFCURVE",
"272 163 OFFCURVE",
"272 223 CURVE SMOOTH",
"272 1237 LINE SMOOTH",
"272 1297 OFFCURVE",
"253 1332 OFFCURVE",
"222 1352 CURVE SMOOTH",
"191 1372 OFFCURVE",
"149 1376 OFFCURVE",
"104 1376 CURVE SMOOTH",
"78 1376 LINE",
"78 1462 LINE",
"674 1462 LINE",
"674 1376 LINE",
"647 1376 LINE SMOOTH",
"602 1376 OFFCURVE",
"559 1371 OFFCURVE",
"529 1351 CURVE SMOOTH",
"499 1330 OFFCURVE",
"479 1293 OFFCURVE",
"479 1229 CURVE SMOOTH",
"479 651 LINE"
);
}
);
width = 1434;
},
{
layerId = "2777C4B8-28CF-4E18-816B-E5A8A64F0BAA";
name = Bold;
width = 600;
}
);
unicode = 004B;
},
{
glyphname = L;
lastChange = "2014-05-31 17:36:30 -0600";
layers = (
{
layerId = "9038F23B-D43E-461B-9F57-51F4A7075990";
name = Regular;
paths = (
{
closed = 1;
nodes = (
"78 0 LINE",
"78 86 LINE",
"104 86 LINE SMOOTH",
"151 86 OFFCURVE",
"192 91 OFFCURVE",
"223 112 CURVE SMOOTH",
"254 132 OFFCURVE",
"272 169 OFFCURVE",
"272 233 CURVE SMOOTH",
"272 1229 LINE SMOOTH",
"272 1293 OFFCURVE",
"254 1330 OFFCURVE",
"223 1351 CURVE SMOOTH",
"192 1371 OFFCURVE",
"151 1376 OFFCURVE",
"104 1376 CURVE SMOOTH",
"78 1376 LINE",
"78 1462 LINE",
"674 1462 LINE",
"674 1376 LINE",
"647 1376 LINE SMOOTH",
"602 1376 OFFCURVE",
"560 1372 OFFCURVE",
"529 1352 CURVE SMOOTH",
"498 1332 OFFCURVE",
"479 1297 OFFCURVE",
"479 1237 CURVE SMOOTH",
"479 102 LINE",
"883 102 LINE SMOOTH",
"944 102 OFFCURVE",
"987 126 OFFCURVE",
"1015 162 CURVE SMOOTH",
"1043 197 OFFCURVE",
"1058 243 OFFCURVE",
"1063 287 CURVE SMOOTH",
"1083 440 LINE",
"1190 440 LINE",
"1176 0 LINE"
);
}
);
width = 1276;
},
{
layerId = "2777C4B8-28CF-4E18-816B-E5A8A64F0BAA";
name = Bold;
width = 600;
}
);
unicode = 004C;
},
{
glyphname = M;
lastChange = "2014-05-31 17:36:30 -0600";
layers = (
{
layerId = "9038F23B-D43E-461B-9F57-51F4A7075990";
name = Regular;
paths = (
{
closed = 1;
nodes = (
"1298 0 LINE",
"1298 86 LINE",
"1305 86 LINE SMOOTH",
"1349 86 OFFCURVE",
"1385 91 OFFCURVE",
"1410 109 CURVE SMOOTH",
"1434 127 OFFCURVE",
"1449 159 OFFCURVE",
"1452 215 CURVE",
"1452 1309 LINE",
"983 0 LINE",
"872 0 LINE",
"397 1305 LINE",
"397 233 LINE SMOOTH",
"397 169 OFFCURVE",
"411 132 OFFCURVE",
"437 112 CURVE SMOOTH",
"463 91 OFFCURVE",
"500 86 OFFCURVE",
"545 86 CURVE SMOOTH",
"551 86 LINE",
"551 0 LINE",
"78 0 LINE",
"78 86 LINE",
"104 86 LINE SMOOTH",
"149 86 OFFCURVE",
"191 90 OFFCURVE",
"222 109 CURVE SMOOTH",
"253 128 OFFCURVE",
"272 163 OFFCURVE",
"272 223 CURVE SMOOTH",
"272 1237 LINE SMOOTH",
"272 1297 OFFCURVE",
"253 1332 OFFCURVE",
"222 1352 CURVE SMOOTH",
"191 1372 OFFCURVE",
"149 1376 OFFCURVE",
"104 1376 CURVE SMOOTH",
"78 1376 LINE",
"78 1462 LINE",
"545 1462 LINE",
"969 291 LINE",
"1389 1462 LINE",
"1843 1462 LINE",
"1843 1376 LINE",
"1817 1376 LINE SMOOTH",
"1770 1376 OFFCURVE",
"1729 1371 OFFCURVE",
"1698 1351 CURVE SMOOTH",
"1667 1330 OFFCURVE",
"1649 1293 OFFCURVE",
"1649 1229 CURVE SMOOTH",
"1649 233 LINE SMOOTH",
"1649 169 OFFCURVE",
"1667 132 OFFCURVE",
"1698 112 CURVE SMOOTH",
"1729 91 OFFCURVE",
"1770 86 OFFCURVE",
"1817 86 CURVE SMOOTH",
"1843 86 LINE",
"1843 0 LINE"
);
}
);
width = 1921;
},
{
layerId = "2777C4B8-28CF-4E18-816B-E5A8A64F0BAA";
name = Bold;
width = 600;
}
);
unicode = 004D;
},
{
glyphname = N;
lastChange = "2014-05-31 17:36:30 -0600";
layers = (
{
layerId = "9038F23B-D43E-461B-9F57-51F4A7075990";
name = Regular;
paths = (
{
closed = 1;
nodes = (
"1165 0 LINE",
"397 1180 LINE",
"397 233 LINE SMOOTH",
"397 169 OFFCURVE",
"417 132 OFFCURVE",
"447 112 CURVE SMOOTH",
"477 91 OFFCURVE",
"520 86 OFFCURVE",
"565 86 CURVE SMOOTH",
"592 86 LINE",
"592 0 LINE",
"78 0 LINE",
"78 86 LINE",
"104 86 LINE SMOOTH",
"151 86 OFFCURVE",
"192 91 OFFCURVE",
"223 112 CURVE SMOOTH",
"254 132 OFFCURVE",
"272 169 OFFCURVE",
"272 233 CURVE SMOOTH",
"272 1237 LINE SMOOTH",
"272 1297 OFFCURVE",
"253 1332 OFFCURVE",
"222 1352 CURVE SMOOTH",
"191 1372 OFFCURVE",
"149 1376 OFFCURVE",
"104 1376 CURVE SMOOTH",
"78 1376 LINE",
"78 1462 LINE",
"453 1462 LINE",
"1186 330 LINE",
"1186 1237 LINE SMOOTH",
"1186 1297 OFFCURVE",
"1167 1332 OFFCURVE",
"1136 1352 CURVE SMOOTH",
"1105 1372 OFFCURVE",
"1063 1376 OFFCURVE",
"1018 1376 CURVE SMOOTH",
"991 1376 LINE",
"991 1462 LINE",
"1505 1462 LINE",
"1505 1376 LINE",
"1479 1376 LINE SMOOTH",
"1432 1376 OFFCURVE",
"1391 1371 OFFCURVE",
"1360 1351 CURVE SMOOTH",
"1329 1330 OFFCURVE",
"1311 1293 OFFCURVE",
"1311 1229 CURVE SMOOTH",
"1311 0 LINE"
);
}
);
width = 1563;
},
{
layerId = "2777C4B8-28CF-4E18-816B-E5A8A64F0BAA";
name = Bold;
width = 600;
}
);
unicode = 004E;
},
{
glyphname = O;
lastChange = "2014-05-31 17:36:30 -0600";
layers = (
{
layerId = "9038F23B-D43E-461B-9F57-51F4A7075990";
name = Regular;
paths = (
{
closed = 1;
nodes = (
"1403 508 OFFCURVE",
"1346 319 OFFCURVE",
"1237 187 CURVE SMOOTH",
"1128 55 OFFCURVE",
"967 -20 OFFCURVE",
"760 -20 CURVE SMOOTH",
"543 -20 OFFCURVE",
"382 55 OFFCURVE",
"275 187 CURVE SMOOTH",
"168 319 OFFCURVE",
"115 508 OFFCURVE",
"115 735 CURVE SMOOTH",
"115 962 OFFCURVE",
"168 1149 OFFCURVE",
"275 1280 CURVE SMOOTH",
"382 1411 OFFCURVE",
"545 1485 OFFCURVE",
"762 1485 CURVE SMOOTH",
"969 1485 OFFCURVE",
"1128 1411 OFFCURVE",
"1237 1280 CURVE SMOOTH",
"1346 1148 OFFCURVE",
"1403 961 OFFCURVE",
"1403 733 CURVE SMOOTH"
);
},
{
closed = 1;
nodes = (
"342 530 OFFCURVE",
"370 370 OFFCURVE",
"437 260 CURVE SMOOTH",
"504 150 OFFCURVE",
"608 90 OFFCURVE",
"760 90 CURVE SMOOTH",
"912 90 OFFCURVE",
"1017 150 OFFCURVE",
"1083 260 CURVE SMOOTH",
"1149 370 OFFCURVE",
"1176 530 OFFCURVE",
"1176 733 CURVE SMOOTH",
"1176 936 OFFCURVE",
"1149 1097 OFFCURVE",
"1083 1206 CURVE SMOOTH",
"1017 1315 OFFCURVE",
"914 1374 OFFCURVE",
"762 1374 CURVE SMOOTH",
"610 1374 OFFCURVE",
"505 1315 OFFCURVE",
"438 1206 CURVE SMOOTH",
"370 1097 OFFCURVE",
"342 936 OFFCURVE",
"342 733 CURVE SMOOTH"
);
}
);
width = 1520;
},
{
layerId = "2777C4B8-28CF-4E18-816B-E5A8A64F0BAA";
name = Bold;
width = 600;
}
);
unicode = 004F;
},
{
glyphname = P;
lastChange = "2014-05-31 17:36:30 -0600";
layers = (
{
layerId = "9038F23B-D43E-461B-9F57-51F4A7075990";
name = Regular;
paths = (
{
closed = 1;
nodes = (
"78 0 LINE",
"78 86 LINE",
"104 86 LINE SMOOTH",
"151 86 OFFCURVE",
"192 91 OFFCURVE",
"223 112 CURVE SMOOTH",
"254 132 OFFCURVE",
"272 169 OFFCURVE",
"272 233 CURVE SMOOTH",
"272 1237 LINE SMOOTH",
"272 1297 OFFCURVE",
"253 1332 OFFCURVE",
"222 1352 CURVE SMOOTH",
"191 1372 OFFCURVE",
"149 1376 OFFCURVE",
"104 1376 CURVE SMOOTH",
"78 1376 LINE",
"78 1462 LINE",
"653 1462 LINE SMOOTH",
"825 1462 OFFCURVE",
"951 1422 OFFCURVE",
"1034 1348 CURVE SMOOTH",
"1117 1274 OFFCURVE",
"1157 1167 OFFCURVE",
"1157 1034 CURVE SMOOTH",
"1157 913 OFFCURVE",
"1122 797 OFFCURVE",
"1035 711 CURVE SMOOTH",
"948 625 OFFCURVE",
"811 569 OFFCURVE",
"608 569 CURVE SMOOTH",
"479 569 LINE",
"479 223 LINE SMOOTH",
"479 163 OFFCURVE",
"498 128 OFFCURVE",
"529 109 CURVE SMOOTH",
"560 90 OFFCURVE",
"602 86 OFFCURVE",
"647 86 CURVE SMOOTH",
"715 86 LINE",
"715 0 LINE"
);
},
{
closed = 1;
nodes = (
"479 666 LINE",
"588 666 LINE SMOOTH",
"712 666 OFFCURVE",
"799 691 OFFCURVE",
"855 749 CURVE SMOOTH",
"911 807 OFFCURVE",
"936 897 OFFCURVE",
"936 1026 CURVE SMOOTH",
"936 1141 OFFCURVE",
"915 1225 OFFCURVE",
"864 1281 CURVE SMOOTH",
"813 1337 OFFCURVE",
"734 1364 OFFCURVE",
"618 1364 CURVE SMOOTH",
"479 1364 LINE"
);
}
);
width = 1237;
},
{
layerId = "2777C4B8-28CF-4E18-816B-E5A8A64F0BAA";
name = Bold;
width = 600;
}
);
unicode = 0050;
},
{
glyphname = Q;
lastChange = "2014-05-31 17:36:30 -0600";
layers = (
{
layerId = "9038F23B-D43E-461B-9F57-51F4A7075990";
name = Regular;
paths = (
{
closed = 1;
nodes = (
"1403 533 OFFCURVE",
"1359 363 OFFCURVE",
"1273 235 CURVE SMOOTH",
"1187 107 OFFCURVE",
"1060 21 OFFCURVE",
"897 -8 CURVE",
"909 -148 OFFCURVE",
"943 -240 OFFCURVE",
"995 -296 CURVE SMOOTH",
"1047 -353 OFFCURVE",
"1117 -375 OFFCURVE",
"1200 -375 CURVE SMOOTH",
"1233 -375 LINE",
"1233 -471 LINE",
"1145 -471 LINE SMOOTH",
"1037 -471 OFFCURVE",
"925 -445 OFFCURVE",
"837 -375 CURVE SMOOTH",
"749 -305 OFFCURVE",
"685 -192 OFFCURVE",
"672 -16 CURVE",
"484 4 OFFCURVE",
"345 86 OFFCURVE",
"253 216 CURVE SMOOTH",
"161 346 OFFCURVE",
"115 523 OFFCURVE",
"115 735 CURVE SMOOTH",
"115 962 OFFCURVE",
"168 1149 OFFCURVE",
"275 1280 CURVE SMOOTH",
"382 1411 OFFCURVE",
"545 1485 OFFCURVE",
"762 1485 CURVE SMOOTH",
"969 1485 OFFCURVE",
"1128 1411 OFFCURVE",
"1237 1280 CURVE SMOOTH",
"1346 1148 OFFCURVE",
"1403 961 OFFCURVE",
"1403 733 CURVE SMOOTH"
);
},
{
closed = 1;
nodes = (
"342 530 OFFCURVE",
"370 370 OFFCURVE",
"437 260 CURVE SMOOTH",
"504 150 OFFCURVE",
"608 90 OFFCURVE",
"760 90 CURVE SMOOTH",
"912 90 OFFCURVE",
"1017 150 OFFCURVE",
"1083 260 CURVE SMOOTH",
"1149 370 OFFCURVE",
"1176 530 OFFCURVE",
"1176 733 CURVE SMOOTH",
"1176 936 OFFCURVE",
"1149 1097 OFFCURVE",
"1083 1206 CURVE SMOOTH",
"1017 1315 OFFCURVE",
"914 1374 OFFCURVE",
"762 1374 CURVE SMOOTH",
"610 1374 OFFCURVE",
"505 1315 OFFCURVE",
"438 1206 CURVE SMOOTH",
"370 1097 OFFCURVE",
"342 936 OFFCURVE",
"342 733 CURVE SMOOTH"
);
}
);
width = 1520;
},
{
layerId = "2777C4B8-28CF-4E18-816B-E5A8A64F0BAA";
name = Bold;
width = 600;
}
);
unicode = 0051;
},
{
glyphname = R;
lastChange = "2014-05-31 17:36:30 -0600";
layers = (
{
layerId = "9038F23B-D43E-461B-9F57-51F4A7075990";
name = Regular;
paths = (
{
closed = 1;
nodes = (
"1135 250 LINE SMOOTH",
"1204 141 OFFCURVE",
"1263 86 OFFCURVE",
"1350 86 CURVE SMOOTH",
"1356 86 LINE",
"1356 0 LINE",
"1327 0 LINE SMOOTH",
"1199 0 OFFCURVE",
"1122 7 OFFCURVE",
"1065 34 CURVE SMOOTH",
"1008 61 OFFCURVE",
"973 107 OFFCURVE",
"926 184 CURVE SMOOTH",
"649 645 LINE",
"479 645 LINE",
"479 223 LINE SMOOTH",
"479 163 OFFCURVE",
"498 128 OFFCURVE",
"529 109 CURVE SMOOTH",
"560 90 OFFCURVE",
"602 86 OFFCURVE",
"647 86 CURVE SMOOTH",
"674 86 LINE",
"674 0 LINE",
"78 0 LINE",
"78 86 LINE",
"104 86 LINE SMOOTH",
"149 86 OFFCURVE",
"191 90 OFFCURVE",
"222 109 CURVE SMOOTH",
"253 128 OFFCURVE",
"272 163 OFFCURVE",
"272 223 CURVE SMOOTH",
"272 1237 LINE SMOOTH",
"272 1297 OFFCURVE",
"253 1332 OFFCURVE",
"222 1352 CURVE SMOOTH",
"191 1372 OFFCURVE",
"149 1376 OFFCURVE",
"104 1376 CURVE SMOOTH",
"78 1376 LINE",
"78 1462 LINE",
"629 1462 LINE SMOOTH",
"984 1462 OFFCURVE",
"1155 1331 OFFCURVE",
"1155 1067 CURVE SMOOTH",
"1155 958 OFFCURVE",
"1116 877 OFFCURVE",
"1059 817 CURVE SMOOTH",
"1002 757 OFFCURVE",
"926 718 OFFCURVE",
"854 694 CURVE"
);
},
{
closed = 1;
nodes = (
"479 741 LINE",
"623 741 LINE SMOOTH",
"743 741 OFFCURVE",
"821 768 OFFCURVE",
"869 821 CURVE SMOOTH",
"917 874 OFFCURVE",
"936 954 OFFCURVE",
"936 1061 CURVE SMOOTH",
"936 1170 OFFCURVE",
"915 1246 OFFCURVE",
"864 1295 CURVE SMOOTH",
"813 1343 OFFCURVE",
"734 1364 OFFCURVE",
"618 1364 CURVE SMOOTH",
"479 1364 LINE"
);
}
);
width = 1343;
},
{
layerId = "2777C4B8-28CF-4E18-816B-E5A8A64F0BAA";
name = Bold;
width = 600;
}
);
unicode = 0052;
},
{
glyphname = S;
lastChange = "2014-05-31 17:36:30 -0600";
layers = (
{
layerId = "9038F23B-D43E-461B-9F57-51F4A7075990";
name = Regular;
paths = (
{
closed = 1;
nodes = (
"373 -20 OFFCURVE",
"270 10 OFFCURVE",
"202 60 CURVE SMOOTH",
"133 110 OFFCURVE",
"98 183 OFFCURVE",
"98 268 CURVE SMOOTH",
"98 351 OFFCURVE",
"151 406 OFFCURVE",
"246 406 CURVE",
"250 321 OFFCURVE",
"271 239 OFFCURVE",
"315 179 CURVE SMOOTH",
"359 119 OFFCURVE",
"426 80 OFFCURVE",
"522 80 CURVE SMOOTH",
"706 80 OFFCURVE",
"815 171 OFFCURVE",
"815 338 CURVE SMOOTH",
"815 413 OFFCURVE",
"795 468 OFFCURVE",
"746 517 CURVE SMOOTH",
"697 565 OFFCURVE",
"618 608 OFFCURVE",
"498 657 CURVE SMOOTH",
"371 709 OFFCURVE",
"277 767 OFFCURVE",
"214 840 CURVE SMOOTH",
"151 912 OFFCURVE",
"121 1000 OFFCURVE",
"121 1112 CURVE SMOOTH",
"121 1229 OFFCURVE",
"168 1322 OFFCURVE",
"248 1386 CURVE SMOOTH",
"328 1449 OFFCURVE",
"440 1483 OFFCURVE",
"569 1483 CURVE SMOOTH",
"692 1483 OFFCURVE",
"787 1456 OFFCURVE",
"852 1413 CURVE SMOOTH",
"917 1370 OFFCURVE",
"952 1313 OFFCURVE",
"952 1253 CURVE SMOOTH",
"952 1165 OFFCURVE",
"890 1120 OFFCURVE",
"791 1120 CURVE",
"791 1184 OFFCURVE",
"777 1249 OFFCURVE",
"741 1298 CURVE SMOOTH",
"705 1346 OFFCURVE",
"648 1380 OFFCURVE",
"561 1380 CURVE SMOOTH",
"482 1380 OFFCURVE",
"420 1357 OFFCURVE",
"377 1317 CURVE SMOOTH",
"334 1276 OFFCURVE",
"311 1218 OFFCURVE",
"311 1147 CURVE SMOOTH",
"311 1066 OFFCURVE",
"331 1006 OFFCURVE",
"381 956 CURVE SMOOTH",
"431 906 OFFCURVE",
"510 863 OFFCURVE",
"629 815 CURVE SMOOTH",
"749 766 OFFCURVE",
"844 713 OFFCURVE",
"909 646 CURVE SMOOTH",
"974 578 OFFCURVE",
"1010 496 OFFCURVE",
"1010 391 CURVE SMOOTH",
"1010 262 OFFCURVE",
"961 159 OFFCURVE",
"873 88 CURVE SMOOTH",
"785 17 OFFCURVE",
"659 -20 OFFCURVE",
"506 -20 CURVE SMOOTH"
);
}
);
width = 1114;
},
{
layerId = "2777C4B8-28CF-4E18-816B-E5A8A64F0BAA";
name = Bold;
width = 600;
}
);
unicode = 0053;
},
{
glyphname = T;
lastChange = "2014-05-31 17:36:30 -0600";
layers = (
{
layerId = "9038F23B-D43E-461B-9F57-51F4A7075990";
name = Regular;
paths = (
{
closed = 1;
nodes = (
"729 233 LINE SMOOTH",
"729 169 OFFCURVE",
"749 132 OFFCURVE",
"779 112 CURVE SMOOTH",
"809 91 OFFCURVE",
"852 86 OFFCURVE",
"897 86 CURVE SMOOTH",
"944 86 LINE",
"944 0 LINE",
"307 0 LINE",
"307 86 LINE",
"354 86 LINE SMOOTH",
"399 86 OFFCURVE",
"441 90 OFFCURVE",
"472 109 CURVE SMOOTH",
"503 128 OFFCURVE",
"522 163 OFFCURVE",
"522 223 CURVE SMOOTH",
"522 1360 LINE",
"326 1360 LINE SMOOTH",
"266 1360 OFFCURVE",
"227 1341 OFFCURVE",
"201 1310 CURVE SMOOTH",
"175 1279 OFFCURVE",
"163 1237 OFFCURVE",
"158 1192 CURVE SMOOTH",
"147 1104 LINE",
"41 1104 LINE",
"51 1462 LINE",
"1204 1462 LINE",
"1214 1104 LINE",
"1108 1104 LINE",
"1098 1192 LINE SMOOTH",
"1093 1237 OFFCURVE",
"1080 1279 OFFCURVE",
"1055 1310 CURVE SMOOTH",
"1030 1341 OFFCURVE",
"989 1360 OFFCURVE",
"928 1360 CURVE SMOOTH",
"729 1360 LINE"
);
}
);
width = 1255;
},
{
layerId = "2777C4B8-28CF-4E18-816B-E5A8A64F0BAA";
name = Bold;
width = 600;
}
);
unicode = 0054;
},
{
glyphname = U;
lastChange = "2014-05-31 17:36:30 -0600";
layers = (
{
layerId = "9038F23B-D43E-461B-9F57-51F4A7075990";
name = Regular;
paths = (
{
closed = 1;
nodes = (
"580 -20 OFFCURVE",
"450 13 OFFCURVE",
"362 87 CURVE SMOOTH",
"273 161 OFFCURVE",
"225 275 OFFCURVE",
"225 442 CURVE SMOOTH",
"225 1237 LINE SMOOTH",
"225 1297 OFFCURVE",
"206 1332 OFFCURVE",
"175 1352 CURVE SMOOTH",
"144 1372 OFFCURVE",
"102 1376 OFFCURVE",
"57 1376 CURVE SMOOTH",
"31 1376 LINE",
"31 1462 LINE",
"627 1462 LINE",
"627 1376 LINE",
"600 1376 LINE SMOOTH",
"555 1376 OFFCURVE",
"512 1371 OFFCURVE",
"482 1351 CURVE SMOOTH",
"452 1330 OFFCURVE",
"432 1293 OFFCURVE",
"432 1229 CURVE SMOOTH",
"432 430 LINE SMOOTH",
"432 311 OFFCURVE",
"468 229 OFFCURVE",
"529 177 CURVE SMOOTH",
"589 125 OFFCURVE",
"674 102 OFFCURVE",
"774 102 CURVE SMOOTH",
"893 102 OFFCURVE",
"978 136 OFFCURVE",
"1035 193 CURVE SMOOTH",
"1091 249 OFFCURVE",
"1118 329 OFFCURVE",
"1118 422 CURVE SMOOTH",
"1118 1237 LINE SMOOTH",
"1118 1297 OFFCURVE",
"1099 1332 OFFCURVE",
"1068 1352 CURVE SMOOTH",
"1037 1372 OFFCURVE",
"995 1376 OFFCURVE",
"950 1376 CURVE SMOOTH",
"924 1376 LINE",
"924 1462 LINE",
"1438 1462 LINE",
"1438 1376 LINE",
"1411 1376 LINE SMOOTH",
"1366 1376 OFFCURVE",
"1323 1371 OFFCURVE",
"1293 1351 CURVE SMOOTH",
"1263 1330 OFFCURVE",
"1243 1293 OFFCURVE",
"1243 1229 CURVE SMOOTH",
"1243 418 LINE SMOOTH",
"1243 282 OFFCURVE",
"1199 172 OFFCURVE",
"1115 97 CURVE SMOOTH",
"1030 21 OFFCURVE",
"904 -20 OFFCURVE",
"741 -20 CURVE SMOOTH"
);
}
);
width = 1468;
},
{
layerId = "2777C4B8-28CF-4E18-816B-E5A8A64F0BAA";
name = Bold;
width = 600;
}
);
unicode = 0055;
},
{
glyphname = V;
lastChange = "2014-05-31 17:36:30 -0600";
layers = (
{
layerId = "9038F23B-D43E-461B-9F57-51F4A7075990";
name = Regular;
paths = (
{
closed = 1;
nodes = (
"614 0 LINE",
"172 1268 LINE SMOOTH",
"157 1311 OFFCURVE",
"141 1338 OFFCURVE",
"118 1354 CURVE SMOOTH",
"95 1370 OFFCURVE",
"67 1376 OFFCURVE",
"27 1376 CURVE SMOOTH",
"0 1376 LINE",
"0 1462 LINE",
"563 1462 LINE",
"563 1376 LINE",
"516 1376 LINE SMOOTH",
"433 1376 OFFCURVE",
"393 1346 OFFCURVE",
"393 1278 CURVE SMOOTH",
"393 1255 OFFCURVE",
"399 1233 OFFCURVE",
"410 1202 CURVE SMOOTH",
"635 537 LINE SMOOTH",
"676 416 OFFCURVE",
"704 300 OFFCURVE",
"727 201 CURVE",
"748 300 OFFCURVE",
"776 409 OFFCURVE",
"821 537 CURVE SMOOTH",
"1047 1188 LINE SMOOTH",
"1058 1221 OFFCURVE",
"1065 1253 OFFCURVE",
"1065 1276 CURVE SMOOTH",
"1065 1347 OFFCURVE",
"1021 1376 OFFCURVE",
"930 1376 CURVE SMOOTH",
"883 1376 LINE",
"883 1462 LINE",
"1382 1462 LINE",
"1382 1376 LINE",
"1343 1376 LINE SMOOTH",
"1303 1376 OFFCURVE",
"1276 1370 OFFCURVE",
"1253 1347 CURVE SMOOTH",
"1229 1323 OFFCURVE",
"1211 1284 OFFCURVE",
"1188 1217 CURVE SMOOTH",
"764 0 LINE"
);
}
);
width = 1382;
},
{
layerId = "2777C4B8-28CF-4E18-816B-E5A8A64F0BAA";
name = Bold;
width = 600;
}
);
unicode = 0056;
},
{
glyphname = W;
lastChange = "2014-05-31 17:36:30 -0600";
layers = (
{
layerId = "9038F23B-D43E-461B-9F57-51F4A7075990";
name = Regular;
paths = (
{
closed = 1;
nodes = (
"1180 1448 LINE",
"1436 561 LINE SMOOTH",
"1475 425 OFFCURVE",
"1505 296 OFFCURVE",
"1524 201 CURVE",
"1544 300 OFFCURVE",
"1569 405 OFFCURVE",
"1606 537 CURVE SMOOTH",
"1786 1169 LINE SMOOTH",
"1788 1177 OFFCURVE",
"1790 1186 OFFCURVE",
"1793 1196 CURVE",
"1798 1216 OFFCURVE",
"1802 1237 OFFCURVE",
"1806 1254 CURVE",
"1807 1263 OFFCURVE",
"1808 1270 OFFCURVE",
"1808 1276 CURVE SMOOTH",
"1808 1347 OFFCURVE",
"1764 1376 OFFCURVE",
"1673 1376 CURVE SMOOTH",
"1626 1376 LINE",
"1626 1462 LINE",
"2126 1462 LINE",
"2126 1376 LINE",
"2087 1376 LINE SMOOTH",
"2047 1376 OFFCURVE",
"2018 1370 OFFCURVE",
"1994 1347 CURVE SMOOTH",
"1970 1324 OFFCURVE",
"1951 1285 OFFCURVE",
"1931 1217 CURVE SMOOTH",
"1585 0 LINE",
"1401 0 LINE",
"1067 1147 LINE",
"754 0 LINE",
"565 0 LINE",
"190 1268 LINE SMOOTH",
"177 1311 OFFCURVE",
"161 1338 OFFCURVE",
"138 1354 CURVE SMOOTH",
"115 1370 OFFCURVE",
"85 1376 OFFCURVE",
"45 1376 CURVE SMOOTH",
"18 1376 LINE",
"18 1462 LINE",
"582 1462 LINE",
"582 1376 LINE",
"535 1376 LINE SMOOTH",
"452 1376 OFFCURVE",
"412 1346 OFFCURVE",
"412 1278 CURVE SMOOTH",
"412 1267 OFFCURVE",
"414 1255 OFFCURVE",
"417 1243 CURVE SMOOTH",
"420 1231 OFFCURVE",
"424 1217 OFFCURVE",
"428 1202 CURVE SMOOTH",
"616 547 LINE SMOOTH",
"651 423 OFFCURVE",
"682 300 OFFCURVE",
"705 201 CURVE",
"725 308 OFFCURVE",
"752 437 OFFCURVE",
"788 569 CURVE SMOOTH",
"1032 1448 LINE"
);
}
);
width = 2144;
},
{
layerId = "2777C4B8-28CF-4E18-816B-E5A8A64F0BAA";
name = Bold;
width = 600;
}
);
unicode = 0057;
},
{
glyphname = X;
lastChange = "2014-05-31 17:36:30 -0600";
layers = (
{
layerId = "9038F23B-D43E-461B-9F57-51F4A7075990";
name = Regular;
paths = (
{
closed = 1;
nodes = (
"954 1341 OFFCURVE",
"942 1356 OFFCURVE",
"923 1365 CURVE",
"903 1373 OFFCURVE",
"876 1376 OFFCURVE",
"844 1376 CURVE SMOOTH",
"838 1376 LINE",
"838 1462 LINE",
"1286 1462 LINE",
"1286 1376 LINE",
"1268 1376 LINE SMOOTH",
"1228 1376 OFFCURVE",
"1197 1368 OFFCURVE",
"1166 1345 CURVE SMOOTH",
"1135 1321 OFFCURVE",
"1104 1285 OFFCURVE",
"1065 1229 CURVE SMOOTH",
"768 801 LINE",
"1145 195 LINE",
"1205 115 OFFCURVE",
"1257 86 OFFCURVE",
"1309 86 CURVE SMOOTH",
"1335 86 LINE",
"1335 0 LINE",
"782 0 LINE",
"782 86 LINE",
"793 86 LINE SMOOTH",
"874 86 OFFCURVE",
"915 109 OFFCURVE",
"915 154 CURVE SMOOTH",
"915 169 OFFCURVE",
"912 182 OFFCURVE",
"903 202 CURVE SMOOTH",
"894 222 OFFCURVE",
"876 250 OFFCURVE",
"848 295 CURVE SMOOTH",
"645 621 LINE",
"418 285 LINE SMOOTH",
"406 268 OFFCURVE",
"394 245 OFFCURVE",
"383 221 CURVE SMOOTH",
"372 197 OFFCURVE",
"365 171 OFFCURVE",
"365 150 CURVE SMOOTH",
"365 103 OFFCURVE",
"407 86 OFFCURVE",
"498 86 CURVE SMOOTH",
"504 86 LINE",
"504 0 LINE",
"16 0 LINE",
"16 86 LINE",
"29 86 LINE SMOOTH",
"78 86 OFFCURVE",
"113 95 OFFCURVE",
"145 118 CURVE SMOOTH",
"176 141 OFFCURVE",
"205 176 OFFCURVE",
"242 229 CURVE SMOOTH",
"584 719 LINE",
"246 1268 LINE SMOOTH",
"197 1347 OFFCURVE",
"131 1376 OFFCURVE",
"70 1376 CURVE SMOOTH",
"43 1376 LINE",
"43 1462 LINE",
"598 1462 LINE",
"598 1376 LINE",
"592 1376 LINE SMOOTH",
"545 1376 OFFCURVE",
"515 1370 OFFCURVE",
"498 1359 CURVE SMOOTH",
"481 1348 OFFCURVE",
"475 1333 OFFCURVE",
"475 1317 CURVE SMOOTH",
"475 1302 OFFCURVE",
"476 1291 OFFCURVE",
"483 1273 CURVE SMOOTH",
"490 1255 OFFCURVE",
"501 1232 OFFCURVE",
"524 1196 CURVE SMOOTH",
"709 897 LINE",
"903 1192 LINE SMOOTH",
"934 1239 OFFCURVE",
"954 1280 OFFCURVE",
"954 1317 CURVE SMOOTH"
);
}
);
width = 1352;
},
{
layerId = "2777C4B8-28CF-4E18-816B-E5A8A64F0BAA";
name = Bold;
width = 600;
}
);
unicode = 0058;
},
{
glyphname = Y;
lastChange = "2014-05-31 17:36:30 -0600";
layers = (
{
layerId = "9038F23B-D43E-461B-9F57-51F4A7075990";
name = Regular;
paths = (
{
closed = 1;
nodes = (
"326 0 LINE",
"326 86 LINE",
"373 86 LINE SMOOTH",
"418 86 OFFCURVE",
"460 90 OFFCURVE",
"491 109 CURVE SMOOTH",
"522 128 OFFCURVE",
"541 163 OFFCURVE",
"541 223 CURVE SMOOTH",
"541 610 LINE",
"162 1268 LINE SMOOTH",
"139 1307 OFFCURVE",
"121 1334 OFFCURVE",
"99 1351 CURVE SMOOTH",
"77 1368 OFFCURVE",
"51 1376 OFFCURVE",
"16 1376 CURVE SMOOTH",
"-10 1376 LINE",
"-10 1462 LINE",
"553 1462 LINE",
"553 1376 LINE",
"477 1376 LINE SMOOTH",
"440 1376 OFFCURVE",
"417 1369 OFFCURVE",
"404 1357 CURVE SMOOTH",
"391 1345 OFFCURVE",
"387 1328 OFFCURVE",
"387 1311 CURVE SMOOTH",
"387 1272 OFFCURVE",
"408 1231 OFFCURVE",
"424 1202 CURVE SMOOTH",
"575 928 LINE SMOOTH",
"623 844 OFFCURVE",
"655 758 OFFCURVE",
"678 694 CURVE",
"690 723 OFFCURVE",
"709 760 OFFCURVE",
"731 801 CURVE SMOOTH",
"753 841 OFFCURVE",
"777 885 OFFCURVE",
"801 928 CURVE SMOOTH",
"932 1163 LINE SMOOTH",
"959 1210 OFFCURVE",
"969 1253 OFFCURVE",
"969 1286 CURVE SMOOTH",
"969 1346 OFFCURVE",
"925 1376 OFFCURVE",
"846 1376 CURVE SMOOTH",
"786 1376 LINE",
"786 1462 LINE",
"1286 1462 LINE",
"1286 1376 LINE",
"1262 1376 LINE SMOOTH",
"1233 1376 OFFCURVE",
"1208 1367 OFFCURVE",
"1181 1343 CURVE SMOOTH",
"1154 1318 OFFCURVE",
"1127 1278 OFFCURVE",
"1092 1217 CURVE SMOOTH",
"748 610 LINE",
"748 233 LINE SMOOTH",
"748 169 OFFCURVE",
"766 132 OFFCURVE",
"797 112 CURVE SMOOTH",
"828 91 OFFCURVE",
"870 86 OFFCURVE",
"915 86 CURVE SMOOTH",
"963 86 LINE",
"963 0 LINE"
);
}
);
width = 1280;
},
{
layerId = "2777C4B8-28CF-4E18-816B-E5A8A64F0BAA";
name = Bold;
width = 600;
}
);
unicode = 0059;
},
{
glyphname = Z;
lastChange = "2014-05-31 17:36:30 -0600";
layers = (
{
layerId = "9038F23B-D43E-461B-9F57-51F4A7075990";
name = Regular;
paths = (
{
closed = 1;
nodes = (
"1094 1378 LINE",
"324 102 LINE",
"840 102 LINE SMOOTH",
"901 102 OFFCURVE",
"942 121 OFFCURVE",
"967 152 CURVE SMOOTH",
"992 183 OFFCURVE",
"1005 225 OFFCURVE",
"1010 270 CURVE SMOOTH",
"1020 358 LINE",
"1126 358 LINE",
"1116 0 LINE",
"74 0 LINE",
"74 82 LINE",
"842 1360 LINE",
"397 1360 LINE SMOOTH",
"337 1360 OFFCURVE",
"297 1341 OFFCURVE",
"272 1310 CURVE SMOOTH",
"247 1279 OFFCURVE",
"234 1237 OFFCURVE",
"229 1192 CURVE SMOOTH",
"219 1104 LINE",
"113 1104 LINE",
"123 1462 LINE",
"1094 1462 LINE"
);
}
);
width = 1212;
},
{
layerId = "2777C4B8-28CF-4E18-816B-E5A8A64F0BAA";
name = Bold;
width = 600;
}
);
unicode = 005A;
},
{
glyphname = bracketleft;
lastChange = "2014-05-31 17:36:30 -0600";
layers = (
{
layerId = "9038F23B-D43E-461B-9F57-51F4A7075990";
name = Regular;
paths = (
{
closed = 1;
nodes = (
"205 -262 LINE",
"205 1556 LINE",
"662 1556 LINE",
"662 1470 LINE",
"573 1470 LINE SMOOTH",
"528 1470 OFFCURVE",
"486 1465 OFFCURVE",
"455 1445 CURVE SMOOTH",
"424 1424 OFFCURVE",
"406 1387 OFFCURVE",
"406 1323 CURVE SMOOTH",
"406 -29 LINE SMOOTH",
"406 -93 OFFCURVE",
"424 -130 OFFCURVE",
"455 -150 CURVE SMOOTH",
"486 -171 OFFCURVE",
"528 -176 OFFCURVE",
"573 -176 CURVE SMOOTH",
"662 -176 LINE",
"662 -262 LINE"
);
}
);
width = 735;
},
{
layerId = "2777C4B8-28CF-4E18-816B-E5A8A64F0BAA";
name = Bold;
width = 600;
}
);
unicode = 005B;
},
{
glyphname = backslash;
lastChange = "2014-05-31 17:36:30 -0600";
layers = (
{
layerId = "9038F23B-D43E-461B-9F57-51F4A7075990";
name = Regular;
paths = (
{
closed = 1;
nodes = (
"0 1556 LINE",
"119 1556 LINE",
"590 -248 LINE",
"469 -248 LINE"
);
}
);
width = 590;
},
{
layerId = "2777C4B8-28CF-4E18-816B-E5A8A64F0BAA";
name = Bold;
width = 600;
}
);
unicode = 005C;
},
{
glyphname = bracketright;
lastChange = "2014-05-31 17:36:30 -0600";
layers = (
{
layerId = "9038F23B-D43E-461B-9F57-51F4A7075990";
name = Regular;
paths = (
{
closed = 1;
nodes = (
"76 -262 LINE",
"76 -176 LINE",
"164 -176 LINE SMOOTH",
"211 -176 OFFCURVE",
"253 -171 OFFCURVE",
"283 -150 CURVE SMOOTH",
"313 -130 OFFCURVE",
"332 -93 OFFCURVE",
"332 -29 CURVE SMOOTH",
"332 1323 LINE SMOOTH",
"332 1387 OFFCURVE",
"313 1424 OFFCURVE",
"283 1445 CURVE SMOOTH",
"253 1465 OFFCURVE",
"211 1470 OFFCURVE",
"164 1470 CURVE SMOOTH",
"76 1470 LINE",
"76 1556 LINE",
"532 1556 LINE",
"532 -262 LINE"
);
}
);
width = 737;
},
{
layerId = "2777C4B8-28CF-4E18-816B-E5A8A64F0BAA";
name = Bold;
width = 600;
}
);
unicode = 005D;
},
{
glyphname = asciicircum;
lastChange = "2014-05-31 17:36:30 -0600";
layers = (
{
layerId = "9038F23B-D43E-461B-9F57-51F4A7075990";
name = Regular;
paths = (
{
closed = 1;
nodes = (
"535 1462 LINE",
"606 1462 LINE",
"1038 545 LINE",
"901 545 LINE",
"569 1274 LINE",
"242 545 LINE",
"104 545 LINE"
);
}
);
width = 1145;
},
{
layerId = "2777C4B8-28CF-4E18-816B-E5A8A64F0BAA";
name = Bold;
width = 600;
}
);
unicode = 005E;
},
{
glyphname = underscore;
lastChange = "2014-05-31 17:36:30 -0600";
layers = (
{
layerId = "9038F23B-D43E-461B-9F57-51F4A7075990";
name = Regular;
paths = (
{
closed = 1;
nodes = (
"950 -291 LINE",
"-10 -291 LINE",
"-10 -170 LINE",
"950 -170 LINE"
);
}
);
width = 940;
},
{
layerId = "2777C4B8-28CF-4E18-816B-E5A8A64F0BAA";
name = Bold;
width = 600;
}
);
unicode = 005F;
},
{
glyphname = grave;
lastChange = "2014-05-31 17:36:30 -0600";
layers = (
{
layerId = "9038F23B-D43E-461B-9F57-51F4A7075990";
name = Regular;
paths = (
{
closed = 1;
nodes = (
"791 1241 LINE",
"713 1241 LINE",
"658 1278 OFFCURVE",
"591 1337 OFFCURVE",
"531 1396 CURVE SMOOTH",
"471 1455 OFFCURVE",
"418 1512 OFFCURVE",
"393 1548 CURVE",
"393 1569 LINE",
"612 1569 LINE",
"633 1524 OFFCURVE",
"663 1468 OFFCURVE",
"695 1414 CURVE SMOOTH",
"727 1360 OFFCURVE",
"762 1307 OFFCURVE",
"791 1268 CURVE"
);
}
);
width = 1182;
},
{
layerId = "2777C4B8-28CF-4E18-816B-E5A8A64F0BAA";
name = Bold;
width = 600;
}
);
unicode = 0060;
},
{
glyphname = a;
lastChange = "2014-05-31 17:34:58 -0600";
layers = (
{
layerId = "9038F23B-D43E-461B-9F57-51F4A7075990";
name = Regular;
paths = (
{
closed = 1;
nodes = (
"301 169 OFFCURVE",
"354 106 OFFCURVE",
"467 106 CURVE SMOOTH",
"550 106 OFFCURVE",
"618 134 OFFCURVE",
"666 183 CURVE SMOOTH",
"713 232 OFFCURVE",
"739 304 OFFCURVE",
"739 391 CURVE SMOOTH",
"739 557 LINE",
"608 551 LINE SMOOTH",
"492 546 OFFCURVE",
"416 523 OFFCURVE",
"368 481 CURVE SMOOTH",
"320 439 OFFCURVE",
"301 377 OFFCURVE",
"301 297 CURVE SMOOTH"
);
},
{
closed = 1;
nodes = (
"470 1016 OFFCURVE",
"424 993 OFFCURVE",
"397 953 CURVE SMOOTH",
"369 913 OFFCURVE",
"362 857 OFFCURVE",
"362 793 CURVE",
"249 793 OFFCURVE",
"188 827 OFFCURVE",
"188 922 CURVE SMOOTH",
"188 993 OFFCURVE",
"229 1041 OFFCURVE",
"297 1073 CURVE SMOOTH",
"364 1104 OFFCURVE",
"456 1118 OFFCURVE",
"557 1118 CURVE SMOOTH",
"682 1118 OFFCURVE",
"775 1095 OFFCURVE",
"838 1039 CURVE SMOOTH",
"901 983 OFFCURVE",
"932 895 OFFCURVE",
"932 764 CURVE SMOOTH",
"932 233 LINE SMOOTH",
"932 176 OFFCURVE",
"941 140 OFFCURVE",
"961 117 CURVE SMOOTH",
"981 94 OFFCURVE",
"1014 86 OFFCURVE",
"1059 86 CURVE SMOOTH",
"1065 86 LINE",
"1065 0 LINE",
"788 0 LINE",
"756 176 LINE",
"739 176 LINE",
"696 119 OFFCURVE",
"659 70 OFFCURVE",
"611 35 CURVE SMOOTH",
"563 0 OFFCURVE",
"505 -20 OFFCURVE",
"420 -20 CURVE SMOOTH",
"329 -20 OFFCURVE",
"249 6 OFFCURVE",
"193 60 CURVE SMOOTH",
"136 114 OFFCURVE",
"102 195 OFFCURVE",
"102 307 CURVE SMOOTH",
"102 524 OFFCURVE",
"256 626 OFFCURVE",
"569 635 CURVE SMOOTH",
"739 641 LINE",
"739 764 LINE SMOOTH",
"739 837 OFFCURVE",
"734 901 OFFCURVE",
"707 946 CURVE SMOOTH",
"680 990 OFFCURVE",
"633 1016 OFFCURVE",
"549 1016 CURVE SMOOTH"
);
}
);
width = 1153;
},
{
layerId = "2777C4B8-28CF-4E18-816B-E5A8A64F0BAA";
name = Bold;
width = 600;
}
);
unicode = 0061;
},
{
glyphname = b;
lastChange = "2014-05-31 17:36:30 -0600";
layers = (
{
layerId = "9038F23B-D43E-461B-9F57-51F4A7075990";
name = Regular;
paths = (
{
closed = 1;
nodes = (
"1145 354 OFFCURVE",
"1108 210 OFFCURVE",
"1037 117 CURVE SMOOTH",
"966 24 OFFCURVE",
"862 -20 OFFCURVE",
"727 -20 CURVE SMOOTH",
"648 -20 OFFCURVE",
"585 -2 OFFCURVE",
"534 30 CURVE SMOOTH",
"482 62 OFFCURVE",
"443 107 OFFCURVE",
"414 160 CURVE",
"401 160 LINE",
"365 0 LINE",
"37 0 LINE",
"37 86 LINE",
"53 86 LINE SMOOTH",
"100 86 OFFCURVE",
"142 91 OFFCURVE",
"172 112 CURVE SMOOTH",
"202 132 OFFCURVE",
"221 169 OFFCURVE",
"221 233 CURVE SMOOTH",
"221 1331 LINE SMOOTH",
"221 1391 OFFCURVE",
"202 1426 OFFCURVE",
"171 1446 CURVE SMOOTH",
"140 1466 OFFCURVE",
"98 1470 OFFCURVE",
"53 1470 CURVE SMOOTH",
"37 1470 LINE",
"37 1556 LINE",
"414 1556 LINE",
"414 1180 LINE SMOOTH",
"414 1133 OFFCURVE",
"413 1068 OFFCURVE",
"410 1012 CURVE SMOOTH",
"409 980 OFFCURVE",
"407 947 OFFCURVE",
"406 913 CURVE",
"414 913 LINE",
"445 976 OFFCURVE",
"482 1027 OFFCURVE",
"533 1063 CURVE SMOOTH",
"584 1098 OFFCURVE",
"647 1118 OFFCURVE",
"727 1118 CURVE SMOOTH",
"862 1118 OFFCURVE",
"966 1074 OFFCURVE",
"1037 982 CURVE SMOOTH",
"1108 889 OFFCURVE",
"1145 747 OFFCURVE",
"1145 551 CURVE SMOOTH"
);
},
{
closed = 1;
nodes = (
"585 987 OFFCURVE",
"516 952 OFFCURVE",
"473 880 CURVE SMOOTH",
"430 808 OFFCURVE",
"414 699 OFFCURVE",
"414 551 CURVE SMOOTH",
"414 408 OFFCURVE",
"430 299 OFFCURVE",
"474 224 CURVE SMOOTH",
"517 149 OFFCURVE",
"586 111 OFFCURVE",
"694 111 CURVE SMOOTH",
"785 111 OFFCURVE",
"847 149 OFFCURVE",
"888 224 CURVE SMOOTH",
"928 299 OFFCURVE",
"946 409 OFFCURVE",
"946 553 CURVE SMOOTH",
"946 698 OFFCURVE",
"928 807 OFFCURVE",
"888 879 CURVE SMOOTH",
"847 951 OFFCURVE",
"783 987 OFFCURVE",
"692 987 CURVE SMOOTH"
);
}
);
width = 1257;
},
{
layerId = "2777C4B8-28CF-4E18-816B-E5A8A64F0BAA";
name = Bold;
width = 600;
}
);
unicode = 0062;
},
{
glyphname = c;
lastChange = "2014-05-31 17:36:30 -0600";
layers = (
{
layerId = "9038F23B-D43E-461B-9F57-51F4A7075990";
name = Regular;
paths = (
{
closed = 1;
nodes = (
"444 -20 OFFCURVE",
"327 20 OFFCURVE",
"244 111 CURVE SMOOTH",
"161 202 OFFCURVE",
"113 342 OFFCURVE",
"113 543 CURVE SMOOTH",
"113 762 OFFCURVE",
"162 906 OFFCURVE",
"244 995 CURVE SMOOTH",
"326 1084 OFFCURVE",
"440 1118 OFFCURVE",
"569 1118 CURVE SMOOTH",
"654 1118 OFFCURVE",
"743 1102 OFFCURVE",
"811 1067 CURVE SMOOTH",
"879 1032 OFFCURVE",
"926 980 OFFCURVE",
"926 909 CURVE SMOOTH",
"926 814 OFFCURVE",
"864 780 OFFCURVE",
"743 780 CURVE",
"743 844 OFFCURVE",
"734 903 OFFCURVE",
"708 947 CURVE SMOOTH",
"682 990 OFFCURVE",
"638 1016 OFFCURVE",
"569 1016 CURVE SMOOTH",
"490 1016 OFFCURVE",
"426 990 OFFCURVE",
"381 918 CURVE SMOOTH",
"336 846 OFFCURVE",
"311 728 OFFCURVE",
"311 545 CURVE SMOOTH",
"311 254 OFFCURVE",
"401 113 OFFCURVE",
"621 113 CURVE SMOOTH",
"748 113 OFFCURVE",
"846 172 OFFCURVE",
"893 256 CURVE",
"913 240 OFFCURVE",
"928 213 OFFCURVE",
"928 176 CURVE SMOOTH",
"928 129 OFFCURVE",
"899 80 OFFCURVE",
"841 43 CURVE SMOOTH",
"783 6 OFFCURVE",
"696 -20 OFFCURVE",
"580 -20 CURVE SMOOTH"
);
}
);
width = 1008;
},
{
layerId = "2777C4B8-28CF-4E18-816B-E5A8A64F0BAA";
name = Bold;
width = 600;
}
);
unicode = 0063;
},
{
glyphname = d;
lastChange = "2014-05-31 17:36:30 -0600";
layers = (
{
layerId = "9038F23B-D43E-461B-9F57-51F4A7075990";
name = Regular;
paths = (
{
closed = 1;
nodes = (
"1036 225 LINE SMOOTH",
"1036 165 OFFCURVE",
"1055 130 OFFCURVE",
"1086 110 CURVE SMOOTH",
"1117 90 OFFCURVE",
"1159 86 OFFCURVE",
"1204 86 CURVE SMOOTH",
"1221 86 LINE",
"1221 0 LINE",
"874 0 LINE",
"852 184 LINE",
"844 184 LINE",
"813 121 OFFCURVE",
"775 71 OFFCURVE",
"724 36 CURVE SMOOTH",
"673 0 OFFCURVE",
"610 -20 OFFCURVE",
"530 -20 CURVE SMOOTH",
"395 -20 OFFCURVE",
"291 24 OFFCURVE",
"220 117 CURVE SMOOTH",
"149 209 OFFCURVE",
"113 351 OFFCURVE",
"113 547 CURVE SMOOTH",
"113 744 OFFCURVE",
"149 888 OFFCURVE",
"220 981 CURVE SMOOTH",
"291 1074 OFFCURVE",
"395 1118 OFFCURVE",
"530 1118 CURVE SMOOTH",
"609 1118 OFFCURVE",
"672 1100 OFFCURVE",
"724 1068 CURVE SMOOTH",
"775 1036 OFFCURVE",
"815 991 OFFCURVE",
"844 938 CURVE",
"856 938 LINE",
"854 971 OFFCURVE",
"852 1003 OFFCURVE",
"850 1032 CURVE SMOOTH",
"849 1057 OFFCURVE",
"847 1083 OFFCURVE",
"846 1108 CURVE SMOOTH",
"845 1133 OFFCURVE",
"844 1151 OFFCURVE",
"844 1163 CURVE SMOOTH",
"844 1331 LINE SMOOTH",
"844 1391 OFFCURVE",
"825 1426 OFFCURVE",
"794 1446 CURVE SMOOTH",
"763 1466 OFFCURVE",
"721 1470 OFFCURVE",
"676 1470 CURVE SMOOTH",
"659 1470 LINE",
"659 1556 LINE",
"1036 1556 LINE"
);
},
{
closed = 1;
nodes = (
"672 111 OFFCURVE",
"741 146 OFFCURVE",
"785 218 CURVE SMOOTH",
"828 290 OFFCURVE",
"844 399 OFFCURVE",
"844 547 CURVE SMOOTH",
"844 690 OFFCURVE",
"828 800 OFFCURVE",
"785 874 CURVE SMOOTH",
"741 948 OFFCURVE",
"671 987 OFFCURVE",
"563 987 CURVE SMOOTH",
"474 987 OFFCURVE",
"410 948 OFFCURVE",
"370 873 CURVE SMOOTH",
"329 798 OFFCURVE",
"311 688 OFFCURVE",
"311 545 CURVE SMOOTH",
"311 254 OFFCURVE",
"384 111 OFFCURVE",
"565 111 CURVE SMOOTH"
);
}
);
width = 1257;
},
{
layerId = "2777C4B8-28CF-4E18-816B-E5A8A64F0BAA";
name = Bold;
width = 600;
}
);
unicode = 0064;
},
{
glyphname = e;
lastChange = "2014-05-31 17:36:30 -0600";
layers = (
{
layerId = "9038F23B-D43E-461B-9F57-51F4A7075990";
name = Regular;
paths = (
{
closed = 1;
nodes = (
"411 1008 OFFCURVE",
"330 882 OFFCURVE",
"315 645 CURVE",
"786 645 LINE",
"786 753 OFFCURVE",
"771 844 OFFCURVE",
"736 908 CURVE SMOOTH",
"701 972 OFFCURVE",
"646 1008 OFFCURVE",
"563 1008 CURVE SMOOTH"
);
},
{
closed = 1;
nodes = (
"440 -20 OFFCURVE",
"320 31 OFFCURVE",
"239 127 CURVE SMOOTH",
"158 223 OFFCURVE",
"113 364 OFFCURVE",
"113 541 CURVE SMOOTH",
"113 924 OFFCURVE",
"276 1118 OFFCURVE",
"567 1118 CURVE SMOOTH",
"699 1118 OFFCURVE",
"806 1077 OFFCURVE",
"879 995 CURVE SMOOTH",
"952 913 OFFCURVE",
"993 790 OFFCURVE",
"993 629 CURVE SMOOTH",
"993 535 LINE",
"311 535 LINE",
"314 386 OFFCURVE",
"341 279 OFFCURVE",
"393 210 CURVE SMOOTH",
"444 141 OFFCURVE",
"519 109 OFFCURVE",
"616 109 CURVE SMOOTH",
"687 109 OFFCURVE",
"748 126 OFFCURVE",
"797 153 CURVE SMOOTH",
"846 180 OFFCURVE",
"885 215 OFFCURVE",
"909 252 CURVE",
"928 244 OFFCURVE",
"948 217 OFFCURVE",
"948 182 CURVE SMOOTH",
"948 141 OFFCURVE",
"919 90 OFFCURVE",
"859 50 CURVE SMOOTH",
"799 10 OFFCURVE",
"709 -20 OFFCURVE",
"588 -20 CURVE SMOOTH"
);
}
);
width = 1096;
},
{
layerId = "2777C4B8-28CF-4E18-816B-E5A8A64F0BAA";
name = Bold;
width = 600;
}
);
unicode = 0065;
},
{
glyphname = f;
lastChange = "2014-05-31 17:36:30 -0600";
layers = (
{
layerId = "9038F23B-D43E-461B-9F57-51F4A7075990";
name = Regular;
paths = (
{
closed = 1;
nodes = (
"688 86 LINE",
"688 0 LINE",
"55 0 LINE",
"55 86 LINE",
"82 86 LINE SMOOTH",
"129 86 OFFCURVE",
"171 91 OFFCURVE",
"201 112 CURVE SMOOTH",
"231 132 OFFCURVE",
"250 169 OFFCURVE",
"250 233 CURVE SMOOTH",
"250 1001 LINE",
"63 1001 LINE",
"63 1098 LINE",
"250 1098 LINE",
"250 1200 LINE SMOOTH",
"250 1323 OFFCURVE",
"284 1416 OFFCURVE",
"347 1480 CURVE SMOOTH",
"410 1544 OFFCURVE",
"500 1577 OFFCURVE",
"612 1577 CURVE SMOOTH",
"719 1577 OFFCURVE",
"791 1562 OFFCURVE",
"836 1537 CURVE SMOOTH",
"880 1512 OFFCURVE",
"899 1477 OFFCURVE",
"899 1434 CURVE SMOOTH",
"899 1397 OFFCURVE",
"882 1368 OFFCURVE",
"852 1349 CURVE SMOOTH",
"822 1329 OFFCURVE",
"780 1319 OFFCURVE",
"731 1319 CURVE",
"731 1360 OFFCURVE",
"723 1401 OFFCURVE",
"703 1432 CURVE SMOOTH",
"682 1463 OFFCURVE",
"648 1483 OFFCURVE",
"596 1483 CURVE SMOOTH",
"537 1483 OFFCURVE",
"499 1460 OFFCURVE",
"475 1416 CURVE SMOOTH",
"451 1371 OFFCURVE",
"442 1306 OFFCURVE",
"442 1219 CURVE SMOOTH",
"442 1098 LINE",
"731 1098 LINE",
"731 1001 LINE",
"442 1001 LINE",
"442 233 LINE SMOOTH",
"442 169 OFFCURVE",
"462 132 OFFCURVE",
"492 112 CURVE SMOOTH",
"522 91 OFFCURVE",
"565 86 OFFCURVE",
"610 86 CURVE SMOOTH"
);
}
);
width = 756;
},
{
layerId = "2777C4B8-28CF-4E18-816B-E5A8A64F0BAA";
name = Bold;
width = 600;
}
);
unicode = 0066;
},
{
glyphname = g;
lastChange = "2014-05-31 17:36:30 -0600";
layers = (
{
layerId = "9038F23B-D43E-461B-9F57-51F4A7075990";
name = Regular;
paths = (
{
closed = 1;
nodes = (
"1077 1026 OFFCURVE",
"1068 999 OFFCURVE",
"1051 980 CURVE SMOOTH",
"1034 960 OFFCURVE",
"1006 948 OFFCURVE",
"969 948 CURVE",
"969 964 OFFCURVE",
"966 981 OFFCURVE",
"956 995 CURVE SMOOTH",
"946 1009 OFFCURVE",
"929 1018 OFFCURVE",
"901 1018 CURVE SMOOTH",
"866 1018 OFFCURVE",
"840 1010 OFFCURVE",
"813 993 CURVE",
"860 936 OFFCURVE",
"893 862 OFFCURVE",
"893 745 CURVE SMOOTH",
"893 644 OFFCURVE",
"862 556 OFFCURVE",
"802 493 CURVE SMOOTH",
"741 430 OFFCURVE",
"648 393 OFFCURVE",
"524 393 CURVE SMOOTH",
"508 393 OFFCURVE",
"487 394 OFFCURVE",
"467 395 CURVE",
"447 395 OFFCURVE",
"429 398 OFFCURVE",
"418 399 CURVE",
"391 386 OFFCURVE",
"367 370 OFFCURVE",
"349 350 CURVE SMOOTH",
"331 330 OFFCURVE",
"319 305 OFFCURVE",
"319 274 CURVE SMOOTH",
"319 241 OFFCURVE",
"332 222 OFFCURVE",
"355 211 CURVE SMOOTH",
"378 199 OFFCURVE",
"410 197 OFFCURVE",
"446 197 CURVE SMOOTH",
"678 197 LINE SMOOTH",
"801 197 OFFCURVE",
"885 165 OFFCURVE",
"939 111 CURVE SMOOTH",
"993 57 OFFCURVE",
"1016 -21 OFFCURVE",
"1016 -109 CURVE SMOOTH",
"1016 -226 OFFCURVE",
"973 -322 OFFCURVE",
"884 -388 CURVE SMOOTH",
"795 -454 OFFCURVE",
"658 -492 OFFCURVE",
"473 -492 CURVE SMOOTH",
"188 -492 OFFCURVE",
"47 -381 OFFCURVE",
"47 -193 CURVE SMOOTH",
"47 -113 OFFCURVE",
"77 -54 OFFCURVE",
"125 -11 CURVE SMOOTH",
"172 32 OFFCURVE",
"235 58 OFFCURVE",
"303 70 CURVE",
"275 82 OFFCURVE",
"247 102 OFFCURVE",
"226 130 CURVE SMOOTH",
"205 158 OFFCURVE",
"190 194 OFFCURVE",
"190 238 CURVE SMOOTH",
"190 319 OFFCURVE",
"231 374 OFFCURVE",
"324 430 CURVE",
"265 454 OFFCURVE",
"219 498 OFFCURVE",
"188 552 CURVE SMOOTH",
"156 606 OFFCURVE",
"139 671 OFFCURVE",
"139 739 CURVE SMOOTH",
"139 858 OFFCURVE",
"171 952 OFFCURVE",
"235 1017 CURVE SMOOTH",
"299 1082 OFFCURVE",
"395 1118 OFFCURVE",
"524 1118 CURVE SMOOTH",
"573 1118 OFFCURVE",
"623 1110 OFFCURVE",
"664 1098 CURVE SMOOTH",
"704 1085 OFFCURVE",
"738 1068 OFFCURVE",
"758 1051 CURVE",
"778 1072 OFFCURVE",
"805 1101 OFFCURVE",
"838 1123 CURVE SMOOTH",
"871 1145 OFFCURVE",
"911 1161 OFFCURVE",
"956 1161 CURVE SMOOTH",
"997 1161 OFFCURVE",
"1027 1149 OFFCURVE",
"1047 1130 CURVE SMOOTH",
"1067 1110 OFFCURVE",
"1077 1083 OFFCURVE",
"1077 1055 CURVE SMOOTH"
);
},
{
closed = 1;
nodes = (
"213 -240 OFFCURVE",
"227 -294 OFFCURVE",
"267 -331 CURVE SMOOTH",
"307 -368 OFFCURVE",
"373 -391 OFFCURVE",
"477 -391 CURVE SMOOTH",
"624 -391 OFFCURVE",
"716 -365 OFFCURVE",
"772 -321 CURVE SMOOTH",
"828 -277 OFFCURVE",
"848 -215 OFFCURVE",
"848 -143 CURVE SMOOTH",
"848 -80 OFFCURVE",
"830 -41 OFFCURVE",
"795 -17 CURVE SMOOTH",
"759 6 OFFCURVE",
"707 14 OFFCURVE",
"639 14 CURVE SMOOTH",
"438 14 LINE SMOOTH",
"381 14 OFFCURVE",
"325 6 OFFCURVE",
"283 -22 CURVE SMOOTH",
"241 -50 OFFCURVE",
"213 -99 OFFCURVE",
"213 -180 CURVE SMOOTH"
);
},
{
closed = 1;
nodes = (
"332 570 OFFCURVE",
"386 492 OFFCURVE",
"518 492 CURVE SMOOTH",
"585 492 OFFCURVE",
"630 512 OFFCURVE",
"659 553 CURVE SMOOTH",
"688 594 OFFCURVE",
"700 659 OFFCURVE",
"700 748 CURVE SMOOTH",
"700 932 OFFCURVE",
"649 1018 OFFCURVE",
"516 1018 CURVE SMOOTH",
"384 1018 OFFCURVE",
"332 929 OFFCURVE",
"332 745 CURVE SMOOTH"
);
}
);
width = 1102;
},
{
layerId = "2777C4B8-28CF-4E18-816B-E5A8A64F0BAA";
name = Bold;
width = 600;
}
);
unicode = 0067;
},
{
glyphname = h;
lastChange = "2014-05-31 17:36:30 -0600";
layers = (
{
layerId = "9038F23B-D43E-461B-9F57-51F4A7075990";
name = Regular;
paths = (
{
closed = 1;
nodes = (
"588 86 LINE",
"588 0 LINE",
"37 0 LINE",
"37 86 LINE",
"53 86 LINE SMOOTH",
"100 86 OFFCURVE",
"142 91 OFFCURVE",
"172 112 CURVE SMOOTH",
"202 132 OFFCURVE",
"221 169 OFFCURVE",
"221 233 CURVE SMOOTH",
"221 1331 LINE SMOOTH",
"221 1391 OFFCURVE",
"202 1426 OFFCURVE",
"171 1446 CURVE SMOOTH",
"140 1466 OFFCURVE",
"98 1470 OFFCURVE",
"53 1470 CURVE SMOOTH",
"37 1470 LINE",
"37 1556 LINE",
"414 1556 LINE",
"414 1106 LINE SMOOTH",
"414 1069 OFFCURVE",
"413 1026 OFFCURVE",
"410 991 CURVE",
"409 971 OFFCURVE",
"407 951 OFFCURVE",
"406 932 CURVE",
"416 932 LINE",
"477 1056 OFFCURVE",
"578 1118 OFFCURVE",
"717 1118 CURVE SMOOTH",
"833 1118 OFFCURVE",
"924 1087 OFFCURVE",
"985 1023 CURVE SMOOTH",
"1046 958 OFFCURVE",
"1079 857 OFFCURVE",
"1079 717 CURVE SMOOTH",
"1079 233 LINE SMOOTH",
"1079 169 OFFCURVE",
"1096 132 OFFCURVE",
"1124 112 CURVE SMOOTH",
"1152 91 OFFCURVE",
"1192 86 OFFCURVE",
"1237 86 CURVE SMOOTH",
"1243 86 LINE",
"1243 0 LINE",
"887 0 LINE",
"887 707 LINE SMOOTH",
"887 796 OFFCURVE",
"872 866 OFFCURVE",
"837 914 CURVE SMOOTH",
"801 962 OFFCURVE",
"745 987 OFFCURVE",
"662 987 CURVE SMOOTH",
"577 987 OFFCURVE",
"515 955 OFFCURVE",
"475 897 CURVE SMOOTH",
"434 839 OFFCURVE",
"414 755 OFFCURVE",
"414 655 CURVE SMOOTH",
"414 223 LINE SMOOTH",
"414 163 OFFCURVE",
"433 128 OFFCURVE",
"464 109 CURVE SMOOTH",
"495 90 OFFCURVE",
"537 86 OFFCURVE",
"582 86 CURVE SMOOTH"
);
}
);
width = 1300;
},
{
layerId = "2777C4B8-28CF-4E18-816B-E5A8A64F0BAA";
name = Bold;
width = 600;
}
);
unicode = 0068;
},
{
glyphname = i;
lastChange = "2014-05-31 17:36:30 -0600";
layers = (
{
layerId = "9038F23B-D43E-461B-9F57-51F4A7075990";
name = Regular;
paths = (
{
closed = 1;
nodes = (
"74 86 LINE SMOOTH",
"119 86 OFFCURVE",
"161 90 OFFCURVE",
"192 109 CURVE SMOOTH",
"223 128 OFFCURVE",
"242 163 OFFCURVE",
"242 223 CURVE SMOOTH",
"242 872 LINE SMOOTH",
"242 932 OFFCURVE",
"223 967 OFFCURVE",
"192 987 CURVE SMOOTH",
"161 1007 OFFCURVE",
"119 1012 OFFCURVE",
"74 1012 CURVE SMOOTH",
"68 1012 LINE",
"68 1098 LINE",
"434 1098 LINE",
"434 233 LINE SMOOTH",
"434 169 OFFCURVE",
"454 132 OFFCURVE",
"484 112 CURVE SMOOTH",
"514 91 OFFCURVE",
"557 86 OFFCURVE",
"602 86 CURVE SMOOTH",
"629 86 LINE",
"629 0 LINE",
"47 0 LINE",
"47 86 LINE"
);
},
{
closed = 1;
nodes = (
"213 1478 OFFCURVE",
"226 1509 OFFCURVE",
"247 1529 CURVE SMOOTH",
"268 1549 OFFCURVE",
"297 1556 OFFCURVE",
"330 1556 CURVE SMOOTH",
"362 1556 OFFCURVE",
"391 1549 OFFCURVE",
"412 1529 CURVE SMOOTH",
"432 1509 OFFCURVE",
"446 1478 OFFCURVE",
"446 1430 CURVE SMOOTH",
"446 1382 OFFCURVE",
"432 1351 OFFCURVE",
"412 1331 CURVE SMOOTH",
"391 1311 OFFCURVE",
"362 1303 OFFCURVE",
"330 1303 CURVE SMOOTH",
"297 1303 OFFCURVE",
"268 1311 OFFCURVE",
"247 1331 CURVE SMOOTH",
"226 1351 OFFCURVE",
"213 1382 OFFCURVE",
"213 1430 CURVE SMOOTH"
);
}
);
width = 655;
},
{
layerId = "2777C4B8-28CF-4E18-816B-E5A8A64F0BAA";
name = Bold;
width = 600;
}
);
unicode = 0069;
},
{
glyphname = j;
lastChange = "2014-05-31 17:36:30 -0600";
layers = (
{
layerId = "9038F23B-D43E-461B-9F57-51F4A7075990";
name = Regular;
paths = (
{
closed = 1;
nodes = (
"414 1098 LINE",
"414 -16 LINE SMOOTH",
"414 -200 OFFCURVE",
"372 -319 OFFCURVE",
"300 -391 CURVE SMOOTH",
"228 -464 OFFCURVE",
"127 -492 OFFCURVE",
"8 -492 CURVE SMOOTH",
"-25 -492 LINE",
"-25 -395 LINE",
"-10 -395 LINE SMOOTH",
"63 -395 OFFCURVE",
"121 -372 OFFCURVE",
"161 -314 CURVE SMOOTH",
"200 -256 OFFCURVE",
"221 -162 OFFCURVE",
"221 -18 CURVE SMOOTH",
"221 872 LINE SMOOTH",
"221 932 OFFCURVE",
"202 967 OFFCURVE",
"171 987 CURVE SMOOTH",
"140 1007 OFFCURVE",
"98 1012 OFFCURVE",
"53 1012 CURVE SMOOTH",
"47 1012 LINE",
"47 1098 LINE"
);
},
{
closed = 1;
nodes = (
"193 1478 OFFCURVE",
"206 1509 OFFCURVE",
"227 1529 CURVE SMOOTH",
"247 1549 OFFCURVE",
"277 1556 OFFCURVE",
"309 1556 CURVE SMOOTH",
"341 1556 OFFCURVE",
"371 1549 OFFCURVE",
"392 1529 CURVE SMOOTH",
"412 1509 OFFCURVE",
"426 1478 OFFCURVE",
"426 1430 CURVE SMOOTH",
"426 1382 OFFCURVE",
"412 1351 OFFCURVE",
"392 1331 CURVE SMOOTH",
"371 1311 OFFCURVE",
"341 1303 OFFCURVE",
"309 1303 CURVE SMOOTH",
"277 1303 OFFCURVE",
"247 1311 OFFCURVE",
"227 1331 CURVE SMOOTH",
"206 1351 OFFCURVE",
"193 1382 OFFCURVE",
"193 1430 CURVE SMOOTH"
);
}
);
width = 614;
},
{
layerId = "2777C4B8-28CF-4E18-816B-E5A8A64F0BAA";
name = Bold;
width = 600;
}
);
unicode = 006A;
},
{
glyphname = k;
lastChange = "2014-05-31 17:36:30 -0600";
layers = (
{
layerId = "9038F23B-D43E-461B-9F57-51F4A7075990";
name = Regular;
paths = (
{
closed = 1;
nodes = (
"694 659 LINE",
"967 254 LINE SMOOTH",
"1038 145 OFFCURVE",
"1102 86 OFFCURVE",
"1194 86 CURVE SMOOTH",
"1200 86 LINE",
"1200 0 LINE",
"1171 0 LINE SMOOTH",
"1052 0 OFFCURVE",
"981 4 OFFCURVE",
"925 32 CURVE SMOOTH",
"869 59 OFFCURVE",
"827 108 OFFCURVE",
"770 199 CURVE SMOOTH",
"565 520 LINE",
"414 408 LINE",
"414 223 LINE SMOOTH",
"414 163 OFFCURVE",
"433 128 OFFCURVE",
"464 109 CURVE SMOOTH",
"495 90 OFFCURVE",
"537 86 OFFCURVE",
"582 86 CURVE SMOOTH",
"588 86 LINE",
"588 0 LINE",
"37 0 LINE",
"37 86 LINE",
"53 86 LINE SMOOTH",
"100 86 OFFCURVE",
"142 91 OFFCURVE",
"172 112 CURVE SMOOTH",
"202 132 OFFCURVE",
"221 169 OFFCURVE",
"221 233 CURVE SMOOTH",
"221 1331 LINE SMOOTH",
"221 1391 OFFCURVE",
"202 1426 OFFCURVE",
"171 1446 CURVE SMOOTH",
"140 1466 OFFCURVE",
"98 1470 OFFCURVE",
"53 1470 CURVE SMOOTH",
"37 1470 LINE",
"37 1556 LINE",
"414 1556 LINE",
"414 766 LINE SMOOTH",
"414 729 OFFCURVE",
"413 665 OFFCURVE",
"410 609 CURVE SMOOTH",
"409 577 OFFCURVE",
"407 543 OFFCURVE",
"406 508 CURVE",
"662 788 LINE SMOOTH",
"706 837 OFFCURVE",
"734 874 OFFCURVE",
"751 902 CURVE SMOOTH",
"768 930 OFFCURVE",
"774 951 OFFCURVE",
"774 971 CURVE SMOOTH",
"774 988 OFFCURVE",
"766 1000 OFFCURVE",
"750 1005 CURVE SMOOTH",
"733 1010 OFFCURVE",
"708 1012 OFFCURVE",
"674 1012 CURVE",
"674 1098 LINE",
"1126 1098 LINE",
"1126 1012 LINE",
"1031 1012 OFFCURVE",
"945 942 OFFCURVE",
"838 821 CURVE SMOOTH"
);
}
);
width = 1198;
},
{
layerId = "2777C4B8-28CF-4E18-816B-E5A8A64F0BAA";
name = Bold;
width = 600;
}
);
unicode = 006B;
},
{
glyphname = l;
lastChange = "2014-05-31 17:36:30 -0600";
layers = (
{
layerId = "9038F23B-D43E-461B-9F57-51F4A7075990";
name = Regular;
paths = (
{
closed = 1;
nodes = (
"53 86 LINE SMOOTH",
"100 86 OFFCURVE",
"142 91 OFFCURVE",
"172 112 CURVE SMOOTH",
"202 132 OFFCURVE",
"221 169 OFFCURVE",
"221 233 CURVE SMOOTH",
"221 1331 LINE SMOOTH",
"221 1391 OFFCURVE",
"202 1426 OFFCURVE",
"171 1446 CURVE SMOOTH",
"140 1466 OFFCURVE",
"98 1470 OFFCURVE",
"53 1470 CURVE SMOOTH",
"27 1470 LINE",
"27 1556 LINE",
"414 1556 LINE",
"414 233 LINE SMOOTH",
"414 169 OFFCURVE",
"432 132 OFFCURVE",
"463 112 CURVE SMOOTH",
"494 91 OFFCURVE",
"535 86 OFFCURVE",
"582 86 CURVE SMOOTH",
"608 86 LINE",
"608 0 LINE",
"27 0 LINE",
"27 86 LINE"
);
}
);
width = 635;
},
{
layerId = "2777C4B8-28CF-4E18-816B-E5A8A64F0BAA";
name = Bold;
width = 600;
}
);
unicode = 006C;
},
{
glyphname = m;
lastChange = "2014-05-31 17:36:30 -0600";
layers = (
{
layerId = "9038F23B-D43E-461B-9F57-51F4A7075990";
name = Regular;
paths = (
{
closed = 1;
nodes = (
"608 86 LINE",
"608 0 LINE",
"57 0 LINE",
"57 86 LINE",
"84 86 LINE SMOOTH",
"131 86 OFFCURVE",
"170 91 OFFCURVE",
"198 112 CURVE SMOOTH",
"226 132 OFFCURVE",
"242 169 OFFCURVE",
"242 233 CURVE SMOOTH",
"242 872 LINE SMOOTH",
"242 932 OFFCURVE",
"225 967 OFFCURVE",
"197 987 CURVE SMOOTH",
"169 1007 OFFCURVE",
"129 1012 OFFCURVE",
"84 1012 CURVE SMOOTH",
"78 1012 LINE",
"78 1098 LINE",
"399 1098 LINE",
"426 932 LINE",
"436 932 LINE",
"477 1008 OFFCURVE",
"522 1055 OFFCURVE",
"574 1083 CURVE SMOOTH",
"625 1110 OFFCURVE",
"681 1118 OFFCURVE",
"745 1118 CURVE SMOOTH",
"812 1118 OFFCURVE",
"872 1105 OFFCURVE",
"924 1076 CURVE SMOOTH",
"975 1047 OFFCURVE",
"1017 1000 OFFCURVE",
"1042 932 CURVE",
"1059 932 LINE",
"1100 1008 OFFCURVE",
"1149 1055 OFFCURVE",
"1203 1083 CURVE SMOOTH",
"1257 1110 OFFCURVE",
"1316 1118 OFFCURVE",
"1380 1118 CURVE SMOOTH",
"1484 1118 OFFCURVE",
"1568 1087 OFFCURVE",
"1625 1023 CURVE SMOOTH",
"1682 958 OFFCURVE",
"1714 857 OFFCURVE",
"1714 717 CURVE SMOOTH",
"1714 233 LINE SMOOTH",
"1714 169 OFFCURVE",
"1731 132 OFFCURVE",
"1759 112 CURVE SMOOTH",
"1787 91 OFFCURVE",
"1827 86 OFFCURVE",
"1872 86 CURVE SMOOTH",
"1878 86 LINE",
"1878 0 LINE",
"1522 0 LINE",
"1522 707 LINE SMOOTH",
"1522 796 OFFCURVE",
"1508 866 OFFCURVE",
"1474 914 CURVE SMOOTH",
"1440 962 OFFCURVE",
"1386 987 OFFCURVE",
"1307 987 CURVE SMOOTH",
"1222 987 OFFCURVE",
"1165 952 OFFCURVE",
"1129 896 CURVE SMOOTH",
"1093 840 OFFCURVE",
"1079 765 OFFCURVE",
"1079 682 CURVE SMOOTH",
"1079 233 LINE SMOOTH",
"1079 169 OFFCURVE",
"1096 132 OFFCURVE",
"1124 112 CURVE SMOOTH",
"1152 91 OFFCURVE",
"1192 86 OFFCURVE",
"1237 86 CURVE SMOOTH",
"1243 86 LINE",
"1243 0 LINE",
"887 0 LINE",
"887 707 LINE SMOOTH",
"887 796 OFFCURVE",
"873 866 OFFCURVE",
"839 914 CURVE SMOOTH",
"805 962 OFFCURVE",
"751 987 OFFCURVE",
"672 987 CURVE SMOOTH",
"583 987 OFFCURVE",
"523 948 OFFCURVE",
"486 887 CURVE SMOOTH",
"449 826 OFFCURVE",
"434 743 OFFCURVE",
"434 655 CURVE SMOOTH",
"434 223 LINE SMOOTH",
"434 163 OFFCURVE",
"453 128 OFFCURVE",
"484 109 CURVE SMOOTH",
"515 90 OFFCURVE",
"557 86 OFFCURVE",
"602 86 CURVE SMOOTH"
);
}
);
width = 1935;
},
{
layerId = "2777C4B8-28CF-4E18-816B-E5A8A64F0BAA";
name = Bold;
width = 600;
}
);
unicode = 006D;
},
{
glyphname = n;
lastChange = "2014-05-31 17:36:30 -0600";
layers = (
{
layerId = "9038F23B-D43E-461B-9F57-51F4A7075990";
name = Regular;
paths = (
{
closed = 1;
nodes = (
"608 86 LINE",
"608 0 LINE",
"57 0 LINE",
"57 86 LINE",
"74 86 LINE SMOOTH",
"121 86 OFFCURVE",
"163 91 OFFCURVE",
"193 112 CURVE SMOOTH",
"223 132 OFFCURVE",
"242 169 OFFCURVE",
"242 233 CURVE SMOOTH",
"242 872 LINE SMOOTH",
"242 932 OFFCURVE",
"223 967 OFFCURVE",
"192 987 CURVE SMOOTH",
"161 1007 OFFCURVE",
"119 1012 OFFCURVE",
"74 1012 CURVE SMOOTH",
"68 1012 LINE",
"68 1098 LINE",
"399 1098 LINE",
"426 932 LINE",
"436 932 LINE",
"479 1008 OFFCURVE",
"526 1055 OFFCURVE",
"579 1083 CURVE SMOOTH",
"631 1110 OFFCURVE",
"691 1118 OFFCURVE",
"756 1118 CURVE SMOOTH",
"864 1118 OFFCURVE",
"949 1087 OFFCURVE",
"1009 1023 CURVE SMOOTH",
"1068 958 OFFCURVE",
"1100 857 OFFCURVE",
"1100 717 CURVE SMOOTH",
"1100 233 LINE SMOOTH",
"1100 169 OFFCURVE",
"1116 132 OFFCURVE",
"1144 112 CURVE SMOOTH",
"1172 91 OFFCURVE",
"1212 86 OFFCURVE",
"1257 86 CURVE SMOOTH",
"1264 86 LINE",
"1264 0 LINE",
"907 0 LINE",
"907 707 LINE SMOOTH",
"907 796 OFFCURVE",
"892 866 OFFCURVE",
"857 914 CURVE SMOOTH",
"821 962 OFFCURVE",
"765 987 OFFCURVE",
"682 987 CURVE SMOOTH",
"589 987 OFFCURVE",
"527 948 OFFCURVE",
"488 887 CURVE SMOOTH",
"449 826 OFFCURVE",
"434 743 OFFCURVE",
"434 655 CURVE SMOOTH",
"434 223 LINE SMOOTH",
"434 163 OFFCURVE",
"453 128 OFFCURVE",
"484 109 CURVE SMOOTH",
"515 90 OFFCURVE",
"557 86 OFFCURVE",
"602 86 CURVE SMOOTH"
);
}
);
width = 1321;
},
{
layerId = "2777C4B8-28CF-4E18-816B-E5A8A64F0BAA";
name = Bold;
width = 600;
}
);
unicode = 006E;
},
{
glyphname = o;
lastChange = "2014-05-31 17:36:30 -0600";
layers = (
{
layerId = "9038F23B-D43E-461B-9F57-51F4A7075990";
name = Regular;
paths = (
{
closed = 1;
nodes = (
"1069 166 OFFCURVE",
"903 -20 OFFCURVE",
"588 -20 CURVE SMOOTH",
"440 -20 OFFCURVE",
"322 26 OFFCURVE",
"240 121 CURVE SMOOTH",
"158 216 OFFCURVE",
"113 359 OFFCURVE",
"113 551 CURVE SMOOTH",
"113 934 OFFCURVE",
"277 1118 OFFCURVE",
"594 1118 CURVE SMOOTH",
"742 1118 OFFCURVE",
"861 1073 OFFCURVE",
"943 979 CURVE SMOOTH",
"1025 885 OFFCURVE",
"1069 743 OFFCURVE",
"1069 551 CURVE SMOOTH"
);
},
{
closed = 1;
nodes = (
"311 399 OFFCURVE",
"330 283 OFFCURVE",
"375 205 CURVE SMOOTH",
"419 127 OFFCURVE",
"489 86 OFFCURVE",
"592 86 CURVE SMOOTH",
"695 86 OFFCURVE",
"764 127 OFFCURVE",
"808 205 CURVE SMOOTH",
"852 283 OFFCURVE",
"870 399 OFFCURVE",
"870 551 CURVE SMOOTH",
"870 703 OFFCURVE",
"851 818 OFFCURVE",
"807 895 CURVE SMOOTH",
"763 971 OFFCURVE",
"693 1010 OFFCURVE",
"590 1010 CURVE SMOOTH",
"487 1010 OFFCURVE",
"418 971 OFFCURVE",
"374 895 CURVE SMOOTH",
"330 818 OFFCURVE",
"311 703 OFFCURVE",
"311 551 CURVE SMOOTH"
);
}
);
width = 1182;
},
{
layerId = "2777C4B8-28CF-4E18-816B-E5A8A64F0BAA";
name = Bold;
width = 600;
}
);
unicode = 006F;
},
{
glyphname = p;
lastChange = "2014-05-31 17:36:30 -0600";
layers = (
{
layerId = "9038F23B-D43E-461B-9F57-51F4A7075990";
name = Regular;
paths = (
{
closed = 1;
nodes = (
"585 987 OFFCURVE",
"516 952 OFFCURVE",
"473 880 CURVE SMOOTH",
"430 808 OFFCURVE",
"414 699 OFFCURVE",
"414 551 CURVE SMOOTH",
"414 408 OFFCURVE",
"430 299 OFFCURVE",
"474 224 CURVE SMOOTH",
"517 149 OFFCURVE",
"586 111 OFFCURVE",
"694 111 CURVE SMOOTH",
"785 111 OFFCURVE",
"847 149 OFFCURVE",
"888 224 CURVE SMOOTH",
"928 299 OFFCURVE",
"946 409 OFFCURVE",
"946 553 CURVE SMOOTH",
"946 698 OFFCURVE",
"928 807 OFFCURVE",
"888 879 CURVE SMOOTH",
"847 951 OFFCURVE",
"783 987 OFFCURVE",
"692 987 CURVE SMOOTH"
);
},
{
closed = 1;
nodes = (
"1145 354 OFFCURVE",
"1108 210 OFFCURVE",
"1037 117 CURVE SMOOTH",
"966 24 OFFCURVE",
"862 -20 OFFCURVE",
"727 -20 CURVE SMOOTH",
"648 -20 OFFCURVE",
"585 -2 OFFCURVE",
"534 30 CURVE SMOOTH",
"482 62 OFFCURVE",
"443 107 OFFCURVE",
"414 160 CURVE",
"406 160 LINE",
"407 125 OFFCURVE",
"409 92 OFFCURVE",
"410 61 CURVE",
"411 48 OFFCURVE",
"411 35 OFFCURVE",
"412 22 CURVE",
"412 -6 OFFCURVE",
"413 -30 OFFCURVE",
"414 -49 CURVE",
"414 -59 OFFCURVE",
"414 -67 OFFCURVE",
"414 -72 CURVE SMOOTH",
"414 -268 LINE SMOOTH",
"414 -328 OFFCURVE",
"433 -363 OFFCURVE",
"464 -382 CURVE SMOOTH",
"495 -402 OFFCURVE",
"537 -406 OFFCURVE",
"582 -406 CURVE SMOOTH",
"588 -406 LINE",
"588 -492 LINE",
"37 -492 LINE",
"37 -406 LINE",
"53 -406 LINE SMOOTH",
"100 -406 OFFCURVE",
"142 -401 OFFCURVE",
"172 -380 CURVE SMOOTH",
"202 -360 OFFCURVE",
"221 -322 OFFCURVE",
"221 -258 CURVE SMOOTH",
"221 872 LINE SMOOTH",
"221 932 OFFCURVE",
"202 967 OFFCURVE",
"171 987 CURVE SMOOTH",
"140 1007 OFFCURVE",
"98 1012 OFFCURVE",
"53 1012 CURVE SMOOTH",
"27 1012 LINE",
"27 1098 LINE",
"385 1098 LINE",
"406 913 LINE",
"414 913 LINE",
"445 976 OFFCURVE",
"482 1027 OFFCURVE",
"533 1063 CURVE SMOOTH",
"584 1098 OFFCURVE",
"647 1118 OFFCURVE",
"727 1118 CURVE SMOOTH",
"862 1118 OFFCURVE",
"966 1074 OFFCURVE",
"1037 982 CURVE SMOOTH",
"1108 889 OFFCURVE",
"1145 747 OFFCURVE",
"1145 551 CURVE SMOOTH"
);
}
);
width = 1257;
},
{
layerId = "2777C4B8-28CF-4E18-816B-E5A8A64F0BAA";
name = Bold;
width = 600;
}
);
unicode = 0070;
},
{
glyphname = q;
lastChange = "2014-05-31 17:36:30 -0600";
layers = (
{
layerId = "9038F23B-D43E-461B-9F57-51F4A7075990";
name = Regular;
paths = (
{
closed = 1;
nodes = (
"1221 -492 LINE",
"608 -492 LINE",
"608 -406 LINE",
"676 -406 LINE SMOOTH",
"723 -406 OFFCURVE",
"765 -401 OFFCURVE",
"795 -380 CURVE SMOOTH",
"825 -360 OFFCURVE",
"844 -322 OFFCURVE",
"844 -258 CURVE SMOOTH",
"844 -82 LINE SMOOTH",
"844 -35 OFFCURVE",
"845 30 OFFCURVE",
"848 86 CURVE SMOOTH",
"849 118 OFFCURVE",
"851 151 OFFCURVE",
"852 184 CURVE",
"844 184 LINE",
"813 121 OFFCURVE",
"775 71 OFFCURVE",
"724 36 CURVE SMOOTH",
"673 0 OFFCURVE",
"610 -20 OFFCURVE",
"530 -20 CURVE SMOOTH",
"395 -20 OFFCURVE",
"291 24 OFFCURVE",
"220 117 CURVE SMOOTH",
"149 209 OFFCURVE",
"113 351 OFFCURVE",
"113 547 CURVE SMOOTH",
"113 744 OFFCURVE",
"149 888 OFFCURVE",
"220 981 CURVE SMOOTH",
"291 1074 OFFCURVE",
"395 1118 OFFCURVE",
"530 1118 CURVE SMOOTH",
"609 1118 OFFCURVE",
"672 1100 OFFCURVE",
"724 1068 CURVE SMOOTH",
"775 1036 OFFCURVE",
"815 991 OFFCURVE",
"844 938 CURVE",
"856 938 LINE",
"893 1098 LINE",
"1221 1098 LINE",
"1221 1012 LINE",
"1204 1012 LINE SMOOTH",
"1159 1012 OFFCURVE",
"1116 1007 OFFCURVE",
"1086 987 CURVE SMOOTH",
"1056 966 OFFCURVE",
"1036 928 OFFCURVE",
"1036 864 CURVE SMOOTH",
"1036 -266 LINE SMOOTH",
"1036 -326 OFFCURVE",
"1055 -361 OFFCURVE",
"1086 -381 CURVE SMOOTH",
"1117 -401 OFFCURVE",
"1159 -406 OFFCURVE",
"1204 -406 CURVE SMOOTH",
"1221 -406 LINE"
);
},
{
closed = 1;
nodes = (
"672 111 OFFCURVE",
"741 146 OFFCURVE",
"785 218 CURVE SMOOTH",
"828 290 OFFCURVE",
"844 399 OFFCURVE",
"844 547 CURVE SMOOTH",
"844 690 OFFCURVE",
"828 800 OFFCURVE",
"785 874 CURVE SMOOTH",
"741 948 OFFCURVE",
"671 987 OFFCURVE",
"563 987 CURVE SMOOTH",
"474 987 OFFCURVE",
"410 948 OFFCURVE",
"370 873 CURVE SMOOTH",
"329 798 OFFCURVE",
"311 688 OFFCURVE",
"311 545 CURVE SMOOTH",
"311 254 OFFCURVE",
"384 111 OFFCURVE",
"565 111 CURVE SMOOTH"
);
}
);
width = 1257;
},
{
layerId = "2777C4B8-28CF-4E18-816B-E5A8A64F0BAA";
name = Bold;
width = 600;
}
);
unicode = 0071;
},
{
glyphname = r;
lastChange = "2014-05-31 17:36:30 -0600";
layers = (
{
layerId = "9038F23B-D43E-461B-9F57-51F4A7075990";
name = Regular;
paths = (
{
closed = 1;
nodes = (
"659 0 LINE",
"68 0 LINE",
"68 86 LINE",
"74 86 LINE SMOOTH",
"121 86 OFFCURVE",
"163 91 OFFCURVE",
"193 112 CURVE SMOOTH",
"223 132 OFFCURVE",
"242 169 OFFCURVE",
"242 233 CURVE SMOOTH",
"242 872 LINE SMOOTH",
"242 932 OFFCURVE",
"223 967 OFFCURVE",
"192 987 CURVE SMOOTH",
"161 1007 OFFCURVE",
"119 1012 OFFCURVE",
"74 1012 CURVE SMOOTH",
"68 1012 LINE",
"68 1098 LINE",
"383 1098 LINE",
"422 895 LINE",
"432 895 LINE",
"459 956 OFFCURVE",
"484 1012 OFFCURVE",
"525 1053 CURVE SMOOTH",
"565 1093 OFFCURVE",
"622 1118 OFFCURVE",
"713 1118 CURVE SMOOTH",
"862 1118 OFFCURVE",
"934 1064 OFFCURVE",
"934 969 CURVE SMOOTH",
"934 926 OFFCURVE",
"921 890 OFFCURVE",
"890 864 CURVE SMOOTH",
"859 838 OFFCURVE",
"812 823 OFFCURVE",
"743 823 CURVE",
"743 936 OFFCURVE",
"715 983 OFFCURVE",
"635 983 CURVE SMOOTH",
"584 983 OFFCURVE",
"545 952 OFFCURVE",
"515 905 CURVE SMOOTH",
"485 857 OFFCURVE",
"464 793 OFFCURVE",
"452 729 CURVE SMOOTH",
"439 664 OFFCURVE",
"434 597 OFFCURVE",
"434 545 CURVE SMOOTH",
"434 223 LINE SMOOTH",
"434 163 OFFCURVE",
"453 128 OFFCURVE",
"484 109 CURVE SMOOTH",
"515 90 OFFCURVE",
"557 86 OFFCURVE",
"602 86 CURVE SMOOTH",
"659 86 LINE"
);
}
);
width = 965;
},
{
layerId = "2777C4B8-28CF-4E18-816B-E5A8A64F0BAA";
name = Bold;
width = 600;
}
);
unicode = 0072;
},
{
glyphname = s;
lastChange = "2014-05-31 17:36:30 -0600";
layers = (
{
layerId = "9038F23B-D43E-461B-9F57-51F4A7075990";
name = Regular;
paths = (
{
closed = 1;
nodes = (
"327 -20 OFFCURVE",
"243 -2 OFFCURVE",
"184 35 CURVE SMOOTH",
"125 71 OFFCURVE",
"92 125 OFFCURVE",
"92 197 CURVE SMOOTH",
"92 252 OFFCURVE",
"113 288 OFFCURVE",
"139 309 CURVE SMOOTH",
"165 330 OFFCURVE",
"197 338 OFFCURVE",
"221 338 CURVE",
"221 266 OFFCURVE",
"234 202 OFFCURVE",
"269 155 CURVE SMOOTH",
"304 107 OFFCURVE",
"359 78 OFFCURVE",
"442 78 CURVE SMOOTH",
"515 78 OFFCURVE",
"572 97 OFFCURVE",
"610 130 CURVE SMOOTH",
"648 162 OFFCURVE",
"668 209 OFFCURVE",
"668 264 CURVE SMOOTH",
"668 315 OFFCURVE",
"655 349 OFFCURVE",
"617 381 CURVE SMOOTH",
"579 413 OFFCURVE",
"515 444 OFFCURVE",
"416 487 CURVE SMOOTH",
"311 534 OFFCURVE",
"233 574 OFFCURVE",
"182 625 CURVE SMOOTH",
"131 676 OFFCURVE",
"106 738 OFFCURVE",
"106 827 CURVE SMOOTH",
"106 920 OFFCURVE",
"144 993 OFFCURVE",
"212 1042 CURVE SMOOTH",
"280 1090 OFFCURVE",
"376 1116 OFFCURVE",
"492 1116 CURVE SMOOTH",
"589 1116 OFFCURVE",
"664 1095 OFFCURVE",
"715 1061 CURVE SMOOTH",
"766 1027 OFFCURVE",
"791 979 OFFCURVE",
"791 928 CURVE SMOOTH",
"791 853 OFFCURVE",
"738 805 OFFCURVE",
"643 805 CURVE",
"643 942 OFFCURVE",
"588 1022 OFFCURVE",
"467 1022 CURVE SMOOTH",
"398 1022 OFFCURVE",
"349 1005 OFFCURVE",
"318 976 CURVE SMOOTH",
"286 947 OFFCURVE",
"272 906 OFFCURVE",
"272 858 CURVE SMOOTH",
"272 806 OFFCURVE",
"290 770 OFFCURVE",
"331 738 CURVE SMOOTH",
"371 706 OFFCURVE",
"435 678 OFFCURVE",
"526 641 CURVE SMOOTH",
"634 596 OFFCURVE",
"711 554 OFFCURVE",
"761 502 CURVE SMOOTH",
"811 450 OFFCURVE",
"834 386 OFFCURVE",
"834 301 CURVE SMOOTH",
"834 194 OFFCURVE",
"794 115 OFFCURVE",
"723 61 CURVE SMOOTH",
"652 7 OFFCURVE",
"551 -20 OFFCURVE",
"430 -20 CURVE SMOOTH"
);
}
);
width = 924;
},
{
layerId = "2777C4B8-28CF-4E18-816B-E5A8A64F0BAA";
name = Bold;
width = 600;
}
);
unicode = 0073;
},
{
glyphname = t;
lastChange = "2014-05-31 17:36:30 -0600";
layers = (
{
layerId = "9038F23B-D43E-461B-9F57-51F4A7075990";
name = Regular;
paths = (
{
closed = 1;
nodes = (
"592 88 OFFCURVE",
"631 94 OFFCURVE",
"674 102 CURVE",
"674 12 LINE",
"657 4 OFFCURVE",
"627 -4 OFFCURVE",
"595 -10 CURVE SMOOTH",
"562 -16 OFFCURVE",
"524 -20 OFFCURVE",
"492 -20 CURVE SMOOTH",
"388 -20 OFFCURVE",
"314 1 OFFCURVE",
"266 50 CURVE SMOOTH",
"218 99 OFFCURVE",
"195 180 OFFCURVE",
"195 297 CURVE SMOOTH",
"195 981 LINE",
"39 981 LINE",
"39 1063 LINE",
"88 1063 OFFCURVE",
"154 1081 OFFCURVE",
"199 1128 CURVE SMOOTH",
"246 1179 OFFCURVE",
"272 1245 OFFCURVE",
"293 1350 CURVE",
"387 1350 LINE",
"387 1098 LINE",
"655 1098 LINE",
"655 981 LINE",
"387 981 LINE",
"387 291 LINE SMOOTH",
"387 151 OFFCURVE",
"448 88 OFFCURVE",
"543 88 CURVE SMOOTH"
);
}
);
width = 721;
},
{
layerId = "2777C4B8-28CF-4E18-816B-E5A8A64F0BAA";
name = Bold;
width = 600;
}
);
unicode = 0074;
},
{
glyphname = u;
lastChange = "2014-05-31 17:36:30 -0600";
layers = (
{
layerId = "9038F23B-D43E-461B-9F57-51F4A7075990";
name = Regular;
paths = (
{
closed = 1;
nodes = (
"1079 223 LINE SMOOTH",
"1079 163 OFFCURVE",
"1098 128 OFFCURVE",
"1129 109 CURVE SMOOTH",
"1160 90 OFFCURVE",
"1202 86 OFFCURVE",
"1247 86 CURVE SMOOTH",
"1253 86 LINE",
"1253 0 LINE",
"928 0 LINE",
"901 166 LINE",
"891 166 LINE",
"850 89 OFFCURVE",
"799 43 OFFCURVE",
"743 16 CURVE SMOOTH",
"687 -12 OFFCURVE",
"626 -20 OFFCURVE",
"559 -20 CURVE SMOOTH",
"451 -20 OFFCURVE",
"366 10 OFFCURVE",
"309 75 CURVE SMOOTH",
"252 140 OFFCURVE",
"221 241 OFFCURVE",
"221 381 CURVE SMOOTH",
"221 872 LINE SMOOTH",
"221 932 OFFCURVE",
"202 967 OFFCURVE",
"171 987 CURVE SMOOTH",
"140 1007 OFFCURVE",
"98 1012 OFFCURVE",
"53 1012 CURVE SMOOTH",
"47 1012 LINE",
"47 1098 LINE",
"414 1098 LINE",
"414 391 LINE SMOOTH",
"414 302 OFFCURVE",
"427 232 OFFCURVE",
"460 184 CURVE SMOOTH",
"492 136 OFFCURVE",
"546 111 OFFCURVE",
"629 111 CURVE SMOOTH",
"720 111 OFFCURVE",
"784 145 OFFCURVE",
"826 203 CURVE SMOOTH",
"868 261 OFFCURVE",
"887 343 OFFCURVE",
"887 442 CURVE SMOOTH",
"887 864 LINE SMOOTH",
"887 928 OFFCURVE",
"868 966 OFFCURVE",
"838 987 CURVE SMOOTH",
"808 1007 OFFCURVE",
"766 1012 OFFCURVE",
"719 1012 CURVE SMOOTH",
"713 1012 LINE",
"713 1098 LINE",
"1079 1098 LINE"
);
}
);
width = 1300;
},
{
layerId = "2777C4B8-28CF-4E18-816B-E5A8A64F0BAA";
name = Bold;
width = 600;
}
);
unicode = 0075;
},
{
glyphname = v;
lastChange = "2014-05-31 17:36:30 -0600";
layers = (
{
layerId = "9038F23B-D43E-461B-9F57-51F4A7075990";
name = Regular;
paths = (
{
closed = 1;
nodes = (
"8 1012 LINE",
"8 1098 LINE",
"520 1098 LINE",
"520 1012 LINE",
"494 1012 LINE SMOOTH",
"411 1012 OFFCURVE",
"371 981 OFFCURVE",
"371 913 CURVE SMOOTH",
"371 890 OFFCURVE",
"376 869 OFFCURVE",
"387 838 CURVE SMOOTH",
"526 451 LINE SMOOTH",
"543 403 OFFCURVE",
"563 342 OFFCURVE",
"580 286 CURVE SMOOTH",
"596 230 OFFCURVE",
"611 178 OFFCURVE",
"616 143 CURVE",
"623 143 LINE",
"630 172 OFFCURVE",
"646 217 OFFCURVE",
"666 269 CURVE SMOOTH",
"675 294 OFFCURVE",
"685 320 OFFCURVE",
"696 347 CURVE SMOOTH",
"706 374 OFFCURVE",
"716 399 OFFCURVE",
"725 424 CURVE SMOOTH",
"872 823 LINE SMOOTH",
"885 856 OFFCURVE",
"891 888 OFFCURVE",
"891 911 CURVE SMOOTH",
"891 982 OFFCURVE",
"847 1012 OFFCURVE",
"756 1012 CURVE SMOOTH",
"741 1012 LINE",
"741 1098 LINE",
"1180 1098 LINE",
"1180 1012 LINE",
"1155 1012 LINE SMOOTH",
"1115 1012 OFFCURVE",
"1089 1005 OFFCURVE",
"1066 981 CURVE SMOOTH",
"1043 957 OFFCURVE",
"1024 917 OFFCURVE",
"999 852 CURVE SMOOTH",
"676 0 LINE",
"489 0 LINE",
"160 903 LINE SMOOTH",
"144 946 OFFCURVE",
"128 973 OFFCURVE",
"105 990 CURVE SMOOTH",
"82 1006 OFFCURVE",
"54 1012 OFFCURVE",
"14 1012 CURVE SMOOTH"
);
}
);
width = 1186;
},
{
layerId = "2777C4B8-28CF-4E18-816B-E5A8A64F0BAA";
name = Bold;
width = 600;
}
);
unicode = 0076;
},
{
glyphname = w;
lastChange = "2014-05-31 17:36:30 -0600";
layers = (
{
layerId = "9038F23B-D43E-461B-9F57-51F4A7075990";
name = Regular;
paths = (
{
closed = 1;
nodes = (
"975 1092 LINE",
"1180 485 LINE SMOOTH",
"1196 436 OFFCURVE",
"1215 377 OFFCURVE",
"1231 322 CURVE SMOOTH",
"1247 266 OFFCURVE",
"1261 215 OFFCURVE",
"1268 180 CURVE",
"1274 180 LINE",
"1286 248 OFFCURVE",
"1313 347 OFFCURVE",
"1354 479 CURVE SMOOTH",
"1456 809 LINE SMOOTH",
"1467 844 OFFCURVE",
"1475 888 OFFCURVE",
"1475 911 CURVE SMOOTH",
"1475 982 OFFCURVE",
"1431 1012 OFFCURVE",
"1339 1012 CURVE SMOOTH",
"1325 1012 LINE",
"1325 1098 LINE",
"1763 1098 LINE",
"1763 1012 LINE",
"1737 1012 LINE SMOOTH",
"1697 1012 OFFCURVE",
"1669 1006 OFFCURVE",
"1646 983 CURVE SMOOTH",
"1622 959 OFFCURVE",
"1603 920 OFFCURVE",
"1583 852 CURVE SMOOTH",
"1319 0 LINE",
"1155 0 LINE",
"911 721 LINE",
"874 856 LINE",
"584 0 LINE",
"422 0 LINE",
"154 903 LINE",
"138 946 OFFCURVE",
"122 973 OFFCURVE",
"99 990 CURVE SMOOTH",
"76 1006 OFFCURVE",
"48 1012 OFFCURVE",
"8 1012 CURVE SMOOTH",
"2 1012 LINE",
"2 1098 LINE",
"508 1098 LINE",
"508 1012 LINE",
"481 1012 LINE SMOOTH",
"400 1012 OFFCURVE",
"358 993 OFFCURVE",
"358 926 CURVE SMOOTH",
"358 903 OFFCURVE",
"367 869 OFFCURVE",
"375 838 CURVE SMOOTH",
"471 494 LINE SMOOTH",
"484 445 OFFCURVE",
"500 384 OFFCURVE",
"513 326 CURVE SMOOTH",
"525 268 OFFCURVE",
"536 215 OFFCURVE",
"543 180 CURVE",
"549 180 LINE",
"556 215 OFFCURVE",
"567 262 OFFCURVE",
"583 315 CURVE SMOOTH",
"598 367 OFFCURVE",
"616 424 OFFCURVE",
"633 473 CURVE SMOOTH",
"846 1092 LINE"
);
}
);
width = 1765;
},
{
layerId = "2777C4B8-28CF-4E18-816B-E5A8A64F0BAA";
name = Bold;
width = 600;
}
);
unicode = 0077;
},
{
glyphname = x;
lastChange = "2014-05-31 17:36:30 -0600";
layers = (
{
layerId = "9038F23B-D43E-461B-9F57-51F4A7075990";
name = Regular;
paths = (
{
closed = 1;
nodes = (
"786 1001 OFFCURVE",
"739 1012 OFFCURVE",
"676 1012 CURVE SMOOTH",
"670 1012 LINE",
"670 1098 LINE",
"1118 1098 LINE",
"1118 1012 LINE",
"1100 1012 LINE SMOOTH",
"1060 1012 OFFCURVE",
"1029 1007 OFFCURVE",
"998 988 CURVE SMOOTH",
"966 969 OFFCURVE",
"934 936 OFFCURVE",
"893 881 CURVE SMOOTH",
"682 600 LINE",
"983 195 LINE SMOOTH",
"1043 115 OFFCURVE",
"1096 86 OFFCURVE",
"1147 86 CURVE SMOOTH",
"1174 86 LINE",
"1174 0 LINE",
"645 0 LINE",
"645 86 LINE",
"655 86 LINE SMOOTH",
"737 86 OFFCURVE",
"778 109 OFFCURVE",
"778 154 CURVE SMOOTH",
"778 169 OFFCURVE",
"775 183 OFFCURVE",
"763 204 CURVE SMOOTH",
"751 224 OFFCURVE",
"732 252 OFFCURVE",
"700 295 CURVE SMOOTH",
"563 479 LINE",
"420 279 LINE SMOOTH",
"408 263 OFFCURVE",
"394 241 OFFCURVE",
"383 218 CURVE SMOOTH",
"372 195 OFFCURVE",
"365 171 OFFCURVE",
"365 150 CURVE SMOOTH",
"365 103 OFFCURVE",
"400 86 OFFCURVE",
"492 86 CURVE SMOOTH",
"498 86 LINE",
"498 0 LINE",
"10 0 LINE",
"10 86 LINE",
"29 86 LINE SMOOTH",
"78 86 OFFCURVE",
"114 93 OFFCURVE",
"147 113 CURVE SMOOTH",
"180 133 OFFCURVE",
"212 166 OFFCURVE",
"252 217 CURVE SMOOTH",
"510 551 LINE",
"252 903 LINE",
"192 974 OFFCURVE",
"137 1012 OFFCURVE",
"76 1012 CURVE SMOOTH",
"49 1012 LINE",
"49 1098 LINE",
"569 1098 LINE",
"569 1012 LINE",
"563 1012 LINE SMOOTH",
"516 1012 OFFCURVE",
"486 1006 OFFCURVE",
"469 995 CURVE",
"452 983 OFFCURVE",
"446 968 OFFCURVE",
"446 952 CURVE SMOOTH",
"446 924 OFFCURVE",
"463 901 OFFCURVE",
"494 858 CURVE SMOOTH",
"629 674 LINE",
"735 827 LINE SMOOTH",
"766 874 OFFCURVE",
"786 915 OFFCURVE",
"786 952 CURVE SMOOTH"
);
}
);
width = 1184;
},
{
layerId = "2777C4B8-28CF-4E18-816B-E5A8A64F0BAA";
name = Bold;
width = 600;
}
);
unicode = 0078;
},
{
glyphname = y;
lastChange = "2014-05-31 17:36:30 -0600";
layers = (
{
layerId = "9038F23B-D43E-461B-9F57-51F4A7075990";
name = Regular;
paths = (
{
closed = 1;
nodes = (
"1157 1098 LINE",
"1157 1012 LINE",
"1151 1012 LINE SMOOTH",
"1111 1012 OFFCURVE",
"1084 1005 OFFCURVE",
"1061 981 CURVE SMOOTH",
"1037 957 OFFCURVE",
"1019 917 OFFCURVE",
"995 852 CURVE SMOOTH",
"684 -8 LINE SMOOTH",
"636 -140 OFFCURVE",
"596 -239 OFFCURVE",
"549 -310 CURVE SMOOTH",
"502 -382 OFFCURVE",
"449 -427 OFFCURVE",
"378 -455 CURVE SMOOTH",
"307 -483 OFFCURVE",
"217 -492 OFFCURVE",
"96 -492 CURVE SMOOTH",
"78 -492 LINE",
"78 -395 LINE",
"217 -395 OFFCURVE",
"314 -351 OFFCURVE",
"387 -279 CURVE SMOOTH",
"459 -207 OFFCURVE",
"506 -107 OFFCURVE",
"539 8 CURVE",
"160 903 LINE SMOOTH",
"141 946 OFFCURVE",
"126 972 OFFCURVE",
"104 989 CURVE SMOOTH",
"82 1006 OFFCURVE",
"54 1012 OFFCURVE",
"14 1012 CURVE SMOOTH",
"8 1012 LINE",
"8 1098 LINE",
"500 1098 LINE",
"500 1012 LINE",
"494 1012 LINE SMOOTH",
"411 1012 OFFCURVE",
"371 981 OFFCURVE",
"371 913 CURVE SMOOTH",
"371 890 OFFCURVE",
"375 869 OFFCURVE",
"387 838 CURVE SMOOTH",
"537 473 LINE SMOOTH",
"556 426 OFFCURVE",
"578 369 OFFCURVE",
"596 315 CURVE SMOOTH",
"614 261 OFFCURVE",
"630 211 OFFCURVE",
"635 176 CURVE",
"641 176 LINE",
"656 236 OFFCURVE",
"682 325 OFFCURVE",
"717 424 CURVE SMOOTH",
"854 823 LINE SMOOTH",
"866 856 OFFCURVE",
"872 888 OFFCURVE",
"872 911 CURVE SMOOTH",
"872 982 OFFCURVE",
"828 1012 OFFCURVE",
"737 1012 CURVE SMOOTH",
"731 1012 LINE",
"731 1098 LINE"
);
}
);
width = 1157;
},
{
layerId = "2777C4B8-28CF-4E18-816B-E5A8A64F0BAA";
name = Bold;
width = 600;
}
);
unicode = 0079;
},
{
glyphname = z;
lastChange = "2014-05-31 17:36:30 -0600";
layers = (
{
layerId = "9038F23B-D43E-461B-9F57-51F4A7075990";
name = Regular;
paths = (
{
closed = 1;
nodes = (
"696 117 LINE SMOOTH",
"744 117 OFFCURVE",
"774 137 OFFCURVE",
"795 168 CURVE SMOOTH",
"815 199 OFFCURVE",
"827 241 OFFCURVE",
"836 285 CURVE SMOOTH",
"846 332 LINE",
"932 332 LINE",
"922 0 LINE",
"86 0 LINE",
"86 82 LINE",
"680 981 LINE",
"360 981 LINE SMOOTH",
"307 981 OFFCURVE",
"274 967 OFFCURVE",
"252 939 CURVE SMOOTH",
"230 911 OFFCURVE",
"218 870 OFFCURVE",
"203 815 CURVE SMOOTH",
"201 807 LINE",
"115 807 LINE",
"135 1098 LINE",
"920 1098 LINE",
"920 1014 LINE",
"324 117 LINE"
);
}
);
width = 1047;
},
{
layerId = "2777C4B8-28CF-4E18-816B-E5A8A64F0BAA";
name = Bold;
width = 600;
}
);
unicode = 007A;
},
{
glyphname = braceleft;
lastChange = "2014-05-31 17:36:30 -0600";
layers = (
{
layerId = "9038F23B-D43E-461B-9F57-51F4A7075990";
name = Regular;
paths = (
{
closed = 1;
nodes = (
"639 -262 LINE SMOOTH",
"543 -262 OFFCURVE",
"468 -233 OFFCURVE",
"419 -182 CURVE SMOOTH",
"370 -131 OFFCURVE",
"344 -58 OFFCURVE",
"344 33 CURVE SMOOTH",
"344 389 LINE SMOOTH",
"344 473 OFFCURVE",
"318 526 OFFCURVE",
"274 559 CURVE SMOOTH",
"230 591 OFFCURVE",
"170 603 OFFCURVE",
"102 606 CURVE",
"102 692 LINE",
"170 695 OFFCURVE",
"230 706 OFFCURVE",
"274 739 CURVE SMOOTH",
"318 771 OFFCURVE",
"344 824 OFFCURVE",
"344 907 CURVE SMOOTH",
"344 1264 LINE SMOOTH",
"344 1451 OFFCURVE",
"444 1556 OFFCURVE",
"639 1556 CURVE SMOOTH",
"774 1556 LINE",
"774 1468 LINE",
"713 1468 LINE SMOOTH",
"592 1468 OFFCURVE",
"545 1396 OFFCURVE",
"545 1253 CURVE SMOOTH",
"545 903 LINE SMOOTH",
"545 770 OFFCURVE",
"470 676 OFFCURVE",
"317 651 CURVE",
"317 649 LINE",
"474 622 OFFCURVE",
"545 531 OFFCURVE",
"545 395 CURVE SMOOTH",
"545 41 LINE SMOOTH",
"545 -99 OFFCURVE",
"592 -174 OFFCURVE",
"713 -174 CURVE SMOOTH",
"774 -174 LINE",
"774 -262 LINE"
);
}
);
width = 877;
},
{
layerId = "2777C4B8-28CF-4E18-816B-E5A8A64F0BAA";
name = Bold;
width = 600;
}
);
unicode = 007B;
},
{
glyphname = bar;
lastChange = "2014-05-31 17:36:30 -0600";
layers = (
{
layerId = "9038F23B-D43E-461B-9F57-51F4A7075990";
name = Regular;
paths = (
{
closed = 1;
nodes = (
"633 -492 LINE",
"510 -492 LINE",
"510 1556 LINE",
"633 1556 LINE"
);
}
);
width = 1145;
},
{
layerId = "2777C4B8-28CF-4E18-816B-E5A8A64F0BAA";
name = Bold;
width = 600;
}
);
unicode = 007C;
},
{
glyphname = braceright;
lastChange = "2014-05-31 17:36:30 -0600";
layers = (
{
layerId = "9038F23B-D43E-461B-9F57-51F4A7075990";
name = Regular;
paths = (
{
closed = 1;
nodes = (
"102 -174 LINE",
"164 -174 LINE SMOOTH",
"285 -174 OFFCURVE",
"332 -99 OFFCURVE",
"332 41 CURVE SMOOTH",
"332 395 LINE SMOOTH",
"332 531 OFFCURVE",
"402 622 OFFCURVE",
"559 649 CURVE",
"559 651 LINE",
"407 676 OFFCURVE",
"332 770 OFFCURVE",
"332 903 CURVE SMOOTH",
"332 1253 LINE SMOOTH",
"332 1396 OFFCURVE",
"285 1468 OFFCURVE",
"164 1468 CURVE SMOOTH",
"102 1468 LINE",
"102 1556 LINE",
"238 1556 LINE SMOOTH",
"431 1556 OFFCURVE",
"532 1451 OFFCURVE",
"532 1264 CURVE SMOOTH",
"532 907 LINE SMOOTH",
"532 824 OFFCURVE",
"559 771 OFFCURVE",
"603 739 CURVE SMOOTH",
"646 706 OFFCURVE",
"706 695 OFFCURVE",
"774 692 CURVE",
"774 606 LINE",
"706 603 OFFCURVE",
"646 591 OFFCURVE",
"603 559 CURVE SMOOTH",
"559 526 OFFCURVE",
"532 473 OFFCURVE",
"532 389 CURVE SMOOTH",
"532 33 LINE SMOOTH",
"532 -58 OFFCURVE",
"506 -131 OFFCURVE",
"457 -182 CURVE SMOOTH",
"408 -233 OFFCURVE",
"334 -262 OFFCURVE",
"238 -262 CURVE SMOOTH",
"102 -262 LINE"
);
}
);
width = 877;
},
{
layerId = "2777C4B8-28CF-4E18-816B-E5A8A64F0BAA";
name = Bold;
width = 600;
}
);
unicode = 007D;
},
{
glyphname = asciitilde;
lastChange = "2014-05-31 17:36:30 -0600";
layers = (
{
layerId = "9038F23B-D43E-461B-9F57-51F4A7075990";
name = Regular;
paths = (
{
closed = 1;
nodes = (
"736 551 OFFCURVE",
"693 570 OFFCURVE",
"651 595 CURVE SMOOTH",
"609 620 OFFCURVE",
"570 652 OFFCURVE",
"539 680 CURVE SMOOTH",
"508 708 OFFCURVE",
"479 735 OFFCURVE",
"451 755 CURVE SMOOTH",
"422 775 OFFCURVE",
"393 788 OFFCURVE",
"362 788 CURVE SMOOTH",
"282 788 OFFCURVE",
"248 712 OFFCURVE",
"233 551 CURVE",
"113 551 LINE",
"121 636 OFFCURVE",
"135 726 OFFCURVE",
"172 794 CURVE SMOOTH",
"209 862 OFFCURVE",
"270 909 OFFCURVE",
"371 909 CURVE SMOOTH",
"416 909 OFFCURVE",
"462 890 OFFCURVE",
"505 863 CURVE SMOOTH",
"548 836 OFFCURVE",
"586 802 OFFCURVE",
"618 774 CURVE SMOOTH",
"647 747 OFFCURVE",
"675 722 OFFCURVE",
"703 703 CURVE SMOOTH",
"730 684 OFFCURVE",
"758 672 OFFCURVE",
"786 672 CURVE SMOOTH",
"862 672 OFFCURVE",
"892 757 OFFCURVE",
"911 909 CURVE",
"1034 909 LINE",
"1025 824 OFFCURVE",
"1009 734 OFFCURVE",
"971 666 CURVE SMOOTH",
"933 598 OFFCURVE",
"873 551 OFFCURVE",
"776 551 CURVE SMOOTH"
);
}
);
width = 1149;
},
{
layerId = "2777C4B8-28CF-4E18-816B-E5A8A64F0BAA";
name = Bold;
width = 600;
}
);
unicode = 007E;
},
{
glyphname = exclamdown;
lastChange = "2014-05-31 17:36:30 -0600";
layers = (
{
layerId = "9038F23B-D43E-461B-9F57-51F4A7075990";
name = Regular;
paths = (
{
closed = 1;
nodes = (
"459 -367 LINE",
"221 -367 LINE",
"293 684 LINE",
"387 684 LINE"
);
},
{
closed = 1;
nodes = (
"469 918 OFFCURVE",
"455 882 OFFCURVE",
"432 861 CURVE SMOOTH",
"408 840 OFFCURVE",
"376 831 OFFCURVE",
"340 831 CURVE SMOOTH",
"305 831 OFFCURVE",
"273 840 OFFCURVE",
"250 861 CURVE SMOOTH",
"226 882 OFFCURVE",
"211 918 OFFCURVE",
"211 971 CURVE SMOOTH",
"211 1023 OFFCURVE",
"226 1058 OFFCURVE",
"250 1080 CURVE SMOOTH",
"273 1102 OFFCURVE",
"305 1110 OFFCURVE",
"340 1110 CURVE SMOOTH",
"376 1110 OFFCURVE",
"408 1102 OFFCURVE",
"432 1080 CURVE SMOOTH",
"455 1058 OFFCURVE",
"469 1023 OFFCURVE",
"469 971 CURVE SMOOTH"
);
}
);
width = 682;
},
{
layerId = "2777C4B8-28CF-4E18-816B-E5A8A64F0BAA";
name = Bold;
width = 600;
}
);
unicode = 00A1;
},
{
glyphname = cent;
lastChange = "2014-05-31 17:36:30 -0600";
layers = (
{
layerId = "9038F23B-D43E-461B-9F57-51F4A7075990";
name = Regular;
paths = (
{
closed = 1;
nodes = (
"584 180 LINE",
"460 193 OFFCURVE",
"355 239 OFFCURVE",
"280 328 CURVE SMOOTH",
"205 416 OFFCURVE",
"162 550 OFFCURVE",
"162 739 CURVE SMOOTH",
"162 942 OFFCURVE",
"209 1081 OFFCURVE",
"285 1171 CURVE SMOOTH",
"361 1261 OFFCURVE",
"467 1302 OFFCURVE",
"584 1313 CURVE",
"584 1462 LINE",
"686 1462 LINE",
"686 1313 LINE",
"765 1306 OFFCURVE",
"847 1288 OFFCURVE",
"910 1254 CURVE SMOOTH",
"973 1220 OFFCURVE",
"1016 1170 OFFCURVE",
"1016 1106 CURVE SMOOTH",
"1016 1011 OFFCURVE",
"955 977 OFFCURVE",
"834 977 CURVE",
"834 1033 OFFCURVE",
"822 1086 OFFCURVE",
"798 1127 CURVE SMOOTH",
"774 1167 OFFCURVE",
"737 1197 OFFCURVE",
"686 1206 CURVE",
"686 297 LINE",
"742 297 OFFCURVE",
"800 306 OFFCURVE",
"852 319 CURVE SMOOTH",
"904 331 OFFCURVE",
"951 347 OFFCURVE",
"983 362 CURVE",
"983 250 LINE",
"912 213 OFFCURVE",
"807 179 OFFCURVE",
"686 176 CURVE",
"686 0 LINE",
"584 0 LINE"
);
},
{
closed = 1;
nodes = (
"360 497 OFFCURVE",
"431 350 OFFCURVE",
"584 309 CURVE",
"584 1206 LINE",
"519 1194 OFFCURVE",
"463 1158 OFFCURVE",
"423 1086 CURVE SMOOTH",
"383 1013 OFFCURVE",
"360 902 OFFCURVE",
"360 741 CURVE SMOOTH"
);
}
);
width = 1145;
},
{
layerId = "2777C4B8-28CF-4E18-816B-E5A8A64F0BAA";
name = Bold;
width = 600;
}
);
unicode = 00A2;
},
{
glyphname = sterling;
lastChange = "2014-05-31 17:36:30 -0600";
layers = (
{
layerId = "9038F23B-D43E-461B-9F57-51F4A7075990";
name = Regular;
paths = (
{
closed = 1;
nodes = (
"500 690 LINE",
"520 622 OFFCURVE",
"541 554 OFFCURVE",
"541 471 CURVE SMOOTH",
"541 354 OFFCURVE",
"469 266 OFFCURVE",
"360 193 CURVE",
"365 184 LINE",
"421 211 OFFCURVE",
"469 221 OFFCURVE",
"514 221 CURVE SMOOTH",
"569 221 OFFCURVE",
"637 202 OFFCURVE",
"702 182 CURVE SMOOTH",
"766 162 OFFCURVE",
"829 143 OFFCURVE",
"870 143 CURVE SMOOTH",
"918 143 OFFCURVE",
"958 158 OFFCURVE",
"994 181 CURVE SMOOTH",
"1030 204 OFFCURVE",
"1060 233 OFFCURVE",
"1085 264 CURVE",
"1085 131 LINE",
"1061 98 OFFCURVE",
"1028 59 OFFCURVE",
"984 30 CURVE SMOOTH",
"940 1 OFFCURVE",
"885 -20 OFFCURVE",
"817 -20 CURVE SMOOTH",
"749 -20 OFFCURVE",
"685 3 OFFCURVE",
"618 26 CURVE SMOOTH",
"551 49 OFFCURVE",
"483 72 OFFCURVE",
"410 72 CURVE SMOOTH",
"319 72 OFFCURVE",
"246 43 OFFCURVE",
"158 2 CURVE SMOOTH",
"131 -10 LINE",
"131 98 LINE",
"168 121 LINE SMOOTH",
"219 152 OFFCURVE",
"271 195 OFFCURVE",
"311 252 CURVE SMOOTH",
"351 308 OFFCURVE",
"379 378 OFFCURVE",
"379 459 CURVE SMOOTH",
"379 539 OFFCURVE",
"356 615 OFFCURVE",
"328 690 CURVE",
"100 690 LINE",
"100 786 LINE",
"289 786 LINE",
"270 829 OFFCURVE",
"251 882 OFFCURVE",
"236 939 CURVE SMOOTH",
"221 995 OFFCURVE",
"211 1056 OFFCURVE",
"211 1112 CURVE SMOOTH",
"211 1229 OFFCURVE",
"251 1322 OFFCURVE",
"323 1386 CURVE SMOOTH",
"395 1449 OFFCURVE",
"500 1483 OFFCURVE",
"629 1483 CURVE SMOOTH",
"761 1483 OFFCURVE",
"852 1458 OFFCURVE",
"909 1417 CURVE SMOOTH",
"966 1376 OFFCURVE",
"991 1318 OFFCURVE",
"991 1253 CURVE SMOOTH",
"991 1165 OFFCURVE",
"929 1120 OFFCURVE",
"829 1120 CURVE",
"829 1184 OFFCURVE",
"820 1249 OFFCURVE",
"790 1298 CURVE SMOOTH",
"760 1346 OFFCURVE",
"708 1380 OFFCURVE",
"621 1380 CURVE SMOOTH",
"462 1380 OFFCURVE",
"391 1287 OFFCURVE",
"391 1116 CURVE SMOOTH",
"391 1052 OFFCURVE",
"403 990 OFFCURVE",
"419 934 CURVE SMOOTH",
"435 877 OFFCURVE",
"455 826 OFFCURVE",
"471 786 CURVE",
"819 786 LINE",
"819 690 LINE"
);
}
);
width = 1145;
},
{
layerId = "2777C4B8-28CF-4E18-816B-E5A8A64F0BAA";
name = Bold;
width = 600;
}
);
unicode = 00A3;
},
{
glyphname = currency;
lastChange = "2014-05-31 17:36:30 -0600";
layers = (
{
layerId = "9038F23B-D43E-461B-9F57-51F4A7075990";
name = Regular;
paths = (
{
closed = 1;
nodes = (
"197 816 OFFCURVE",
"221 891 OFFCURVE",
"266 952 CURVE",
"131 1087 LINE",
"217 1174 LINE",
"350 1038 LINE",
"413 1083 OFFCURVE",
"487 1110 OFFCURVE",
"571 1110 CURVE SMOOTH",
"651 1110 OFFCURVE",
"727 1083 OFFCURVE",
"788 1038 CURVE",
"926 1176 LINE",
"1012 1087 LINE",
"877 952 LINE",
"922 891 OFFCURVE",
"948 816 OFFCURVE",
"948 733 CURVE SMOOTH",
"948 650 OFFCURVE",
"922 575 OFFCURVE",
"877 514 CURVE",
"1012 379 LINE",
"928 293 LINE",
"791 428 LINE",
"728 385 OFFCURVE",
"654 358 OFFCURVE",
"571 358 CURVE SMOOTH",
"488 358 OFFCURVE",
"415 383 OFFCURVE",
"352 428 CURVE",
"217 293 LINE",
"131 379 LINE",
"264 514 LINE",
"221 575 OFFCURVE",
"197 650 OFFCURVE",
"197 733 CURVE SMOOTH"
);
},
{
closed = 1;
nodes = (
"311 661 OFFCURVE",
"340 596 OFFCURVE",
"388 549 CURVE SMOOTH",
"435 501 OFFCURVE",
"499 471 OFFCURVE",
"571 471 CURVE SMOOTH",
"646 471 OFFCURVE",
"711 501 OFFCURVE",
"758 549 CURVE SMOOTH",
"805 596 OFFCURVE",
"834 661 OFFCURVE",
"834 733 CURVE SMOOTH",
"834 808 OFFCURVE",
"805 873 OFFCURVE",
"758 921 CURVE SMOOTH",
"711 968 OFFCURVE",
"646 997 OFFCURVE",
"571 997 CURVE SMOOTH",
"499 997 OFFCURVE",
"435 968 OFFCURVE",
"388 921 CURVE SMOOTH",
"340 873 OFFCURVE",
"311 808 OFFCURVE",
"311 733 CURVE SMOOTH"
);
}
);
width = 1145;
},
{
layerId = "2777C4B8-28CF-4E18-816B-E5A8A64F0BAA";
name = Bold;
width = 600;
}
);
unicode = 00A4;
},
{
glyphname = yen;
lastChange = "2014-05-31 17:36:30 -0600";
layers = (
{
layerId = "9038F23B-D43E-461B-9F57-51F4A7075990";
name = Regular;
paths = (
{
closed = 1;
nodes = (
"264 0 LINE",
"264 86 LINE",
"311 86 LINE SMOOTH",
"356 86 OFFCURVE",
"398 90 OFFCURVE",
"428 109 CURVE SMOOTH",
"458 128 OFFCURVE",
"476 163 OFFCURVE",
"479 223 CURVE",
"479 362 LINE",
"193 362 LINE",
"193 459 LINE",
"479 459 LINE",
"479 602 LINE",
"193 602 LINE",
"193 698 LINE",
"440 698 LINE",
"162 1268 LINE SMOOTH",
"142 1308 OFFCURVE",
"127 1335 OFFCURVE",
"105 1352 CURVE SMOOTH",
"83 1369 OFFCURVE",
"56 1376 OFFCURVE",
"16 1376 CURVE SMOOTH",
"10 1376 LINE",
"10 1462 LINE",
"508 1462 LINE",
"508 1376 LINE",
"494 1376 LINE SMOOTH",
"411 1376 OFFCURVE",
"377 1352 OFFCURVE",
"377 1296 CURVE SMOOTH",
"377 1264 OFFCURVE",
"387 1223 OFFCURVE",
"410 1176 CURVE SMOOTH",
"508 958 LINE SMOOTH",
"528 915 OFFCURVE",
"547 864 OFFCURVE",
"564 816 CURVE SMOOTH",
"580 768 OFFCURVE",
"594 725 OFFCURVE",
"602 698 CURVE",
"607 713 OFFCURVE",
"620 744 OFFCURVE",
"636 778 CURVE SMOOTH",
"651 812 OFFCURVE",
"669 849 OFFCURVE",
"682 877 CURVE SMOOTH",
"799 1126 LINE SMOOTH",
"831 1198 OFFCURVE",
"848 1263 OFFCURVE",
"848 1294 CURVE SMOOTH",
"848 1350 OFFCURVE",
"814 1376 OFFCURVE",
"723 1376 CURVE SMOOTH",
"717 1376 LINE",
"717 1462 LINE",
"1135 1462 LINE",
"1135 1376 LINE",
"1116 1376 LINE SMOOTH",
"1081 1376 OFFCURVE",
"1058 1368 OFFCURVE",
"1036 1344 CURVE SMOOTH",
"1014 1320 OFFCURVE",
"992 1280 OFFCURVE",
"961 1217 CURVE SMOOTH",
"711 698 LINE",
"965 698 LINE",
"965 602 LINE",
"678 602 LINE",
"678 459 LINE",
"965 459 LINE",
"965 362 LINE",
"678 362 LINE",
"678 233 LINE SMOOTH",
"678 169 OFFCURVE",
"698 132 OFFCURVE",
"728 112 CURVE SMOOTH",
"758 91 OFFCURVE",
"799 86 OFFCURVE",
"846 86 CURVE SMOOTH",
"893 86 LINE",
"893 0 LINE"
);
}
);
width = 1145;
},
{
layerId = "2777C4B8-28CF-4E18-816B-E5A8A64F0BAA";
name = Bold;
width = 600;
}
);
unicode = 00A5;
},
{
glyphname = brokenbar;
lastChange = "2014-05-31 17:36:30 -0600";
layers = (
{
layerId = "9038F23B-D43E-461B-9F57-51F4A7075990";
name = Regular;
paths = (
{
closed = 1;
nodes = (
"633 737 LINE",
"510 737 LINE",
"510 1556 LINE",
"633 1556 LINE"
);
},
{
closed = 1;
nodes = (
"633 -492 LINE",
"510 -492 LINE",
"510 328 LINE",
"633 328 LINE"
);
}
);
width = 1145;
},
{
layerId = "2777C4B8-28CF-4E18-816B-E5A8A64F0BAA";
name = Bold;
width = 600;
}
);
unicode = 00A6;
},
{
glyphname = section;
lastChange = "2014-05-31 17:36:30 -0600";
layers = (
{
layerId = "9038F23B-D43E-461B-9F57-51F4A7075990";
name = Regular;
paths = (
{
closed = 1;
nodes = (
"499 842 OFFCURVE",
"413 884 OFFCURVE",
"342 940 CURVE",
"313 913 OFFCURVE",
"291 878 OFFCURVE",
"291 823 CURVE SMOOTH",
"291 768 OFFCURVE",
"308 728 OFFCURVE",
"353 686 CURVE SMOOTH",
"398 644 OFFCURVE",
"473 602 OFFCURVE",
"590 545 CURVE SMOOTH",
"673 504 OFFCURVE",
"756 465 OFFCURVE",
"821 408 CURVE",
"844 440 OFFCURVE",
"860 479 OFFCURVE",
"860 524 CURVE SMOOTH",
"860 571 OFFCURVE",
"850 610 OFFCURVE",
"812 653 CURVE SMOOTH",
"774 696 OFFCURVE",
"707 740 OFFCURVE",
"598 795 CURVE SMOOTH"
);
},
{
closed = 1;
nodes = (
"739 -133 OFFCURVE",
"821 -53 OFFCURVE",
"821 72 CURVE SMOOTH",
"821 132 OFFCURVE",
"812 173 OFFCURVE",
"762 218 CURVE SMOOTH",
"712 262 OFFCURVE",
"621 312 OFFCURVE",
"461 391 CURVE SMOOTH",
"353 444 OFFCURVE",
"277 499 OFFCURVE",
"229 560 CURVE SMOOTH",
"181 621 OFFCURVE",
"160 691 OFFCURVE",
"160 772 CURVE SMOOTH",
"160 875 OFFCURVE",
"210 952 OFFCURVE",
"281 1001 CURVE",
"230 1061 OFFCURVE",
"205 1132 OFFCURVE",
"205 1231 CURVE SMOOTH",
"205 1335 OFFCURVE",
"245 1416 OFFCURVE",
"312 1472 CURVE SMOOTH",
"379 1527 OFFCURVE",
"474 1556 OFFCURVE",
"582 1556 CURVE SMOOTH",
"694 1556 OFFCURVE",
"777 1531 OFFCURVE",
"833 1491 CURVE SMOOTH",
"888 1450 OFFCURVE",
"915 1392 OFFCURVE",
"915 1327 CURVE SMOOTH",
"915 1239 OFFCURVE",
"858 1202 OFFCURVE",
"770 1202 CURVE",
"770 1266 OFFCURVE",
"758 1328 OFFCURVE",
"727 1376 CURVE SMOOTH",
"695 1423 OFFCURVE",
"646 1454 OFFCURVE",
"573 1454 CURVE SMOOTH",
"437 1454 OFFCURVE",
"358 1384 OFFCURVE",
"358 1255 CURVE SMOOTH",
"358 1183 OFFCURVE",
"386 1138 OFFCURVE",
"440 1099 CURVE SMOOTH",
"467 1079 OFFCURVE",
"500 1060 OFFCURVE",
"539 1041 CURVE SMOOTH",
"618 1004 OFFCURVE",
"742 947 OFFCURVE",
"826 891 CURVE SMOOTH",
"910 835 OFFCURVE",
"965 775 OFFCURVE",
"991 707 CURVE SMOOTH",
"1004 673 OFFCURVE",
"1010 636 OFFCURVE",
"1010 596 CURVE SMOOTH",
"1010 547 OFFCURVE",
"995 497 OFFCURVE",
"972 453 CURVE SMOOTH",
"949 408 OFFCURVE",
"919 368 OFFCURVE",
"887 336 CURVE",
"926 283 OFFCURVE",
"950 217 OFFCURVE",
"950 133 CURVE SMOOTH",
"950 25 OFFCURVE",
"921 -66 OFFCURVE",
"858 -130 CURVE SMOOTH",
"794 -195 OFFCURVE",
"696 -233 OFFCURVE",
"557 -233 CURVE SMOOTH",
"452 -233 OFFCURVE",
"364 -212 OFFCURVE",
"303 -172 CURVE SMOOTH",
"242 -132 OFFCURVE",
"207 -73 OFFCURVE",
"207 4 CURVE SMOOTH",
"207 60 OFFCURVE",
"228 96 OFFCURVE",
"254 118 CURVE SMOOTH",
"280 140 OFFCURVE",
"312 147 OFFCURVE",
"336 147 CURVE",
"336 75 OFFCURVE",
"354 5 OFFCURVE",
"392 -47 CURVE SMOOTH",
"430 -99 OFFCURVE",
"488 -133 OFFCURVE",
"571 -133 CURVE SMOOTH"
);
}
);
width = 1114;
},
{
layerId = "2777C4B8-28CF-4E18-816B-E5A8A64F0BAA";
name = Bold;
width = 600;
}
);
unicode = 00A7;
},
{
glyphname = dieresis;
lastChange = "2014-05-31 17:36:30 -0600";
layers = (
{
layerId = "9038F23B-D43E-461B-9F57-51F4A7075990";
name = Regular;
paths = (
{
closed = 1;
nodes = (
"291 1452 OFFCURVE",
"302 1481 OFFCURVE",
"321 1499 CURVE SMOOTH",
"340 1517 OFFCURVE",
"366 1524 OFFCURVE",
"395 1524 CURVE SMOOTH",
"424 1524 OFFCURVE",
"450 1517 OFFCURVE",
"470 1499 CURVE SMOOTH",
"489 1481 OFFCURVE",
"500 1452 OFFCURVE",
"500 1409 CURVE SMOOTH",
"500 1368 OFFCURVE",
"489 1339 OFFCURVE",
"470 1320 CURVE SMOOTH",
"450 1301 OFFCURVE",
"424 1294 OFFCURVE",
"395 1294 CURVE SMOOTH",
"335 1294 OFFCURVE",
"291 1325 OFFCURVE",
"291 1409 CURVE SMOOTH"
);
},
{
closed = 1;
nodes = (
"680 1452 OFFCURVE",
"691 1481 OFFCURVE",
"710 1499 CURVE SMOOTH",
"729 1517 OFFCURVE",
"755 1524 OFFCURVE",
"784 1524 CURVE SMOOTH",
"813 1524 OFFCURVE",
"839 1517 OFFCURVE",
"859 1499 CURVE SMOOTH",
"878 1481 OFFCURVE",
"889 1452 OFFCURVE",
"889 1409 CURVE SMOOTH",
"889 1368 OFFCURVE",
"878 1339 OFFCURVE",
"859 1320 CURVE SMOOTH",
"839 1301 OFFCURVE",
"813 1294 OFFCURVE",
"784 1294 CURVE SMOOTH",
"724 1294 OFFCURVE",
"680 1325 OFFCURVE",
"680 1409 CURVE SMOOTH"
);
}
);
width = 1182;
},
{
layerId = "2777C4B8-28CF-4E18-816B-E5A8A64F0BAA";
name = Bold;
width = 600;
}
);
unicode = 00A8;
},
{
glyphname = copyright;
lastChange = "2014-05-31 17:36:30 -0600";
layers = (
{
layerId = "9038F23B-D43E-461B-9F57-51F4A7075990";
name = Regular;
paths = (
{
closed = 1;
nodes = (
"964 365 OFFCURVE",
"1017 382 OFFCURVE",
"1060 409 CURVE SMOOTH",
"1103 436 OFFCURVE",
"1134 471 OFFCURVE",
"1153 504 CURVE",
"1169 492 OFFCURVE",
"1182 469 OFFCURVE",
"1182 440 CURVE SMOOTH",
"1182 403 OFFCURVE",
"1156 362 OFFCURVE",
"1105 330 CURVE SMOOTH",
"1053 298 OFFCURVE",
"977 276 OFFCURVE",
"874 276 CURVE SMOOTH",
"738 276 OFFCURVE",
"636 322 OFFCURVE",
"568 402 CURVE SMOOTH",
"499 482 OFFCURVE",
"465 596 OFFCURVE",
"465 733 CURVE SMOOTH",
"465 866 OFFCURVE",
"503 979 OFFCURVE",
"577 1059 CURVE SMOOTH",
"651 1139 OFFCURVE",
"759 1186 OFFCURVE",
"903 1186 CURVE SMOOTH",
"998 1186 OFFCURVE",
"1067 1170 OFFCURVE",
"1114 1144 CURVE SMOOTH",
"1161 1118 OFFCURVE",
"1184 1081 OFFCURVE",
"1184 1040 CURVE SMOOTH",
"1184 1011 OFFCURVE",
"1168 986 OFFCURVE",
"1143 970 CURVE SMOOTH",
"1118 953 OFFCURVE",
"1083 944 OFFCURVE",
"1044 944 CURVE",
"1044 983 OFFCURVE",
"1035 1021 OFFCURVE",
"1012 1051 CURVE SMOOTH",
"989 1081 OFFCURVE",
"954 1100 OFFCURVE",
"899 1100 CURVE SMOOTH",
"803 1100 OFFCURVE",
"737 1068 OFFCURVE",
"694 1005 CURVE SMOOTH",
"651 942 OFFCURVE",
"633 852 OFFCURVE",
"633 733 CURVE SMOOTH",
"633 497 OFFCURVE",
"728 365 OFFCURVE",
"901 365 CURVE SMOOTH"
);
},
{
closed = 1;
nodes = (
"113 870 OFFCURVE",
"151 1000 OFFCURVE",
"216 1112 CURVE SMOOTH",
"280 1223 OFFCURVE",
"373 1317 OFFCURVE",
"485 1382 CURVE SMOOTH",
"596 1447 OFFCURVE",
"725 1485 OFFCURVE",
"864 1485 CURVE SMOOTH",
"1003 1485 OFFCURVE",
"1133 1447 OFFCURVE",
"1245 1382 CURVE SMOOTH",
"1356 1317 OFFCURVE",
"1450 1223 OFFCURVE",
"1515 1112 CURVE SMOOTH",
"1580 1000 OFFCURVE",
"1618 870 OFFCURVE",
"1618 731 CURVE SMOOTH",
"1618 592 OFFCURVE",
"1580 463 OFFCURVE",
"1515 352 CURVE SMOOTH",
"1450 240 OFFCURVE",
"1356 147 OFFCURVE",
"1245 82 CURVE SMOOTH",
"1133 17 OFFCURVE",
"1003 -20 OFFCURVE",
"864 -20 CURVE SMOOTH",
"725 -20 OFFCURVE",
"596 17 OFFCURVE",
"485 82 CURVE SMOOTH",
"373 147 OFFCURVE",
"280 240 OFFCURVE",
"216 352 CURVE SMOOTH",
"151 463 OFFCURVE",
"113 592 OFFCURVE",
"113 731 CURVE SMOOTH"
);
},
{
closed = 1;
nodes = (
"225 614 OFFCURVE",
"257 504 OFFCURVE",
"313 409 CURVE SMOOTH",
"368 314 OFFCURVE",
"447 235 OFFCURVE",
"542 180 CURVE SMOOTH",
"637 124 OFFCURVE",
"747 92 OFFCURVE",
"864 92 CURVE SMOOTH",
"983 92 OFFCURVE",
"1093 124 OFFCURVE",
"1188 180 CURVE SMOOTH",
"1283 235 OFFCURVE",
"1362 314 OFFCURVE",
"1418 409 CURVE SMOOTH",
"1473 504 OFFCURVE",
"1505 614 OFFCURVE",
"1505 731 CURVE SMOOTH",
"1505 848 OFFCURVE",
"1473 959 OFFCURVE",
"1418 1055 CURVE SMOOTH",
"1362 1150 OFFCURVE",
"1283 1229 OFFCURVE",
"1188 1285 CURVE SMOOTH",
"1093 1340 OFFCURVE",
"983 1372 OFFCURVE",
"864 1372 CURVE SMOOTH",
"747 1372 OFFCURVE",
"637 1340 OFFCURVE",
"542 1285 CURVE SMOOTH",
"447 1229 OFFCURVE",
"368 1150 OFFCURVE",
"313 1055 CURVE SMOOTH",
"257 959 OFFCURVE",
"225 850 OFFCURVE",
"225 731 CURVE SMOOTH"
);
}
);
width = 1731;
},
{
layerId = "2777C4B8-28CF-4E18-816B-E5A8A64F0BAA";
name = Bold;
width = 600;
}
);
unicode = 00A9;
},
{
glyphname = ordfeminine;
lastChange = "2014-05-31 17:36:30 -0600";
layers = (
{
layerId = "9038F23B-D43E-461B-9F57-51F4A7075990";
name = Regular;
paths = (
{
closed = 1;
nodes = (
"250 900 OFFCURVE",
"291 872 OFFCURVE",
"344 872 CURVE SMOOTH",
"389 872 OFFCURVE",
"426 889 OFFCURVE",
"451 918 CURVE SMOOTH",
"475 947 OFFCURVE",
"489 988 OFFCURVE",
"489 1036 CURVE SMOOTH",
"489 1133 LINE",
"426 1130 LINE SMOOTH",
"359 1129 OFFCURVE",
"316 1114 OFFCURVE",
"289 1090 CURVE SMOOTH",
"261 1065 OFFCURVE",
"250 1030 OFFCURVE",
"250 985 CURVE SMOOTH"
);
},
{
closed = 1;
nodes = (
"346 1397 OFFCURVE",
"322 1381 OFFCURVE",
"308 1356 CURVE SMOOTH",
"294 1331 OFFCURVE",
"289 1296 OFFCURVE",
"289 1257 CURVE",
"185 1257 OFFCURVE",
"127 1282 OFFCURVE",
"127 1346 CURVE SMOOTH",
"127 1393 OFFCURVE",
"157 1424 OFFCURVE",
"205 1444 CURVE SMOOTH",
"253 1464 OFFCURVE",
"319 1473 OFFCURVE",
"391 1473 CURVE SMOOTH",
"482 1473 OFFCURVE",
"548 1458 OFFCURVE",
"593 1423 CURVE SMOOTH",
"637 1387 OFFCURVE",
"659 1332 OFFCURVE",
"659 1251 CURVE SMOOTH",
"659 940 LINE SMOOTH",
"659 879 OFFCURVE",
"681 860 OFFCURVE",
"748 860 CURVE",
"748 791 LINE",
"549 791 LINE",
"512 885 LINE",
"502 885 LINE",
"478 858 OFFCURVE",
"450 831 OFFCURVE",
"415 811 CURVE SMOOTH",
"379 791 OFFCURVE",
"337 778 OFFCURVE",
"285 778 CURVE SMOOTH",
"153 778 OFFCURVE",
"72 850 OFFCURVE",
"72 987 CURVE SMOOTH",
"72 1123 OFFCURVE",
"178 1183 OFFCURVE",
"401 1194 CURVE SMOOTH",
"489 1198 LINE",
"489 1257 LINE SMOOTH",
"489 1298 OFFCURVE",
"486 1333 OFFCURVE",
"472 1358 CURVE SMOOTH",
"458 1382 OFFCURVE",
"432 1397 OFFCURVE",
"387 1397 CURVE SMOOTH"
);
}
);
width = 782;
},
{
layerId = "2777C4B8-28CF-4E18-816B-E5A8A64F0BAA";
name = Bold;
width = 600;
}
);
unicode = 00AA;
},
{
glyphname = guillemotleft;
lastChange = "2014-05-31 17:36:30 -0600";
layers = (
{
layerId = "9038F23B-D43E-461B-9F57-51F4A7075990";
name = Regular;
paths = (
{
closed = 1;
nodes = (
"133 586 LINE",
"446 942 LINE",
"549 942 LINE",
"342 553 LINE",
"549 164 LINE",
"446 164 LINE",
"133 520 LINE"
);
},
{
closed = 1;
nodes = (
"504 586 LINE",
"817 942 LINE",
"920 942 LINE",
"713 553 LINE",
"920 164 LINE",
"817 164 LINE",
"504 520 LINE"
);
}
);
width = 1053;
},
{
layerId = "2777C4B8-28CF-4E18-816B-E5A8A64F0BAA";
name = Bold;
width = 600;
}
);
unicode = 00AB;
},
{
glyphname = logicalnot;
lastChange = "2014-05-31 17:36:30 -0600";
layers = (
{
layerId = "9038F23B-D43E-461B-9F57-51F4A7075990";
name = Regular;
paths = (
{
closed = 1;
nodes = (
"1012 793 LINE",
"1012 252 LINE",
"889 252 LINE",
"889 672 LINE",
"133 672 LINE",
"133 793 LINE"
);
}
);
width = 1145;
},
{
layerId = "2777C4B8-28CF-4E18-816B-E5A8A64F0BAA";
name = Bold;
width = 600;
}
);
unicode = 00AC;
},
{
glyphname = uni00AD;
lastChange = "2014-05-31 17:36:30 -0600";
layers = (
{
layerId = "9038F23B-D43E-461B-9F57-51F4A7075990";
name = Regular;
paths = (
{
closed = 1;
nodes = (
"51 481 LINE",
"51 635 LINE",
"584 635 LINE",
"584 481 LINE"
);
}
);
width = 635;
},
{
layerId = "2777C4B8-28CF-4E18-816B-E5A8A64F0BAA";
name = Bold;
width = 600;
}
);
unicode = 00AD;
},
{
glyphname = registered;
lastChange = "2014-05-31 17:36:30 -0600";
layers = (
{
layerId = "9038F23B-D43E-461B-9F57-51F4A7075990";
name = Regular;
paths = (
{
closed = 1;
nodes = (
"477 358 LINE",
"504 358 LINE SMOOTH",
"531 358 OFFCURVE",
"556 361 OFFCURVE",
"574 371 CURVE SMOOTH",
"592 381 OFFCURVE",
"603 398 OFFCURVE",
"604 430 CURVE SMOOTH",
"604 1030 LINE",
"603 1062 OFFCURVE",
"592 1081 OFFCURVE",
"574 1091 CURVE SMOOTH",
"556 1101 OFFCURVE",
"531 1102 OFFCURVE",
"504 1102 CURVE SMOOTH",
"477 1102 LINE",
"477 1174 LINE",
"846 1174 LINE SMOOTH",
"1081 1174 OFFCURVE",
"1198 1093 OFFCURVE",
"1198 930 CURVE SMOOTH",
"1198 865 OFFCURVE",
"1175 816 OFFCURVE",
"1140 780 CURVE SMOOTH",
"1105 744 OFFCURVE",
"1059 720 OFFCURVE",
"1012 705 CURVE",
"1194 412 LINE",
"1207 389 OFFCURVE",
"1219 376 OFFCURVE",
"1236 368 CURVE SMOOTH",
"1253 360 OFFCURVE",
"1276 358 OFFCURVE",
"1309 358 CURVE",
"1309 289 LINE",
"1092 289 LINE",
"866 670 LINE",
"758 670 LINE",
"758 430 LINE",
"761 398 OFFCURVE",
"772 381 OFFCURVE",
"790 371 CURVE SMOOTH",
"808 361 OFFCURVE",
"831 358 OFFCURVE",
"858 358 CURVE SMOOTH",
"887 358 LINE",
"887 289 LINE",
"477 289 LINE"
);
},
{
closed = 1;
nodes = (
"758 748 LINE",
"844 748 LINE SMOOTH",
"917 748 OFFCURVE",
"966 763 OFFCURVE",
"995 792 CURVE SMOOTH",
"1024 821 OFFCURVE",
"1036 867 OFFCURVE",
"1036 928 CURVE SMOOTH",
"1036 988 OFFCURVE",
"1022 1031 OFFCURVE",
"991 1057 CURVE SMOOTH",
"959 1083 OFFCURVE",
"910 1094 OFFCURVE",
"838 1094 CURVE SMOOTH",
"758 1094 LINE"
);
},
{
closed = 1;
nodes = (
"113 870 OFFCURVE",
"151 1000 OFFCURVE",
"216 1112 CURVE SMOOTH",
"280 1223 OFFCURVE",
"373 1317 OFFCURVE",
"485 1382 CURVE SMOOTH",
"596 1447 OFFCURVE",
"725 1485 OFFCURVE",
"864 1485 CURVE SMOOTH",
"1003 1485 OFFCURVE",
"1133 1447 OFFCURVE",
"1245 1382 CURVE SMOOTH",
"1356 1317 OFFCURVE",
"1450 1223 OFFCURVE",
"1515 1112 CURVE SMOOTH",
"1580 1000 OFFCURVE",
"1618 870 OFFCURVE",
"1618 731 CURVE SMOOTH",
"1618 592 OFFCURVE",
"1580 463 OFFCURVE",
"1515 352 CURVE SMOOTH",
"1450 240 OFFCURVE",
"1356 147 OFFCURVE",
"1245 82 CURVE SMOOTH",
"1133 17 OFFCURVE",
"1003 -20 OFFCURVE",
"864 -20 CURVE SMOOTH",
"725 -20 OFFCURVE",
"596 17 OFFCURVE",
"485 82 CURVE SMOOTH",
"373 147 OFFCURVE",
"280 240 OFFCURVE",
"216 352 CURVE SMOOTH",
"151 463 OFFCURVE",
"113 592 OFFCURVE",
"113 731 CURVE SMOOTH"
);
},
{
closed = 1;
nodes = (
"225 614 OFFCURVE",
"257 504 OFFCURVE",
"313 409 CURVE SMOOTH",
"368 314 OFFCURVE",
"447 235 OFFCURVE",
"542 180 CURVE SMOOTH",
"637 124 OFFCURVE",
"747 92 OFFCURVE",
"864 92 CURVE SMOOTH",
"983 92 OFFCURVE",
"1093 124 OFFCURVE",
"1188 180 CURVE SMOOTH",
"1283 235 OFFCURVE",
"1362 314 OFFCURVE",
"1418 409 CURVE SMOOTH",
"1473 504 OFFCURVE",
"1505 614 OFFCURVE",
"1505 731 CURVE SMOOTH",
"1505 848 OFFCURVE",
"1473 959 OFFCURVE",
"1418 1055 CURVE SMOOTH",
"1362 1150 OFFCURVE",
"1283 1229 OFFCURVE",
"1188 1285 CURVE SMOOTH",
"1093 1340 OFFCURVE",
"983 1372 OFFCURVE",
"864 1372 CURVE SMOOTH",
"747 1372 OFFCURVE",
"637 1340 OFFCURVE",
"542 1285 CURVE SMOOTH",
"447 1229 OFFCURVE",
"368 1150 OFFCURVE",
"313 1055 CURVE SMOOTH",
"257 959 OFFCURVE",
"225 850 OFFCURVE",
"225 731 CURVE SMOOTH"
);
}
);
width = 1731;
},
{
layerId = "2777C4B8-28CF-4E18-816B-E5A8A64F0BAA";
name = Bold;
width = 600;
}
);
unicode = 00AE;
},
{
glyphname = overscore;
lastChange = "2014-05-31 17:36:30 -0600";
layers = (
{
layerId = "9038F23B-D43E-461B-9F57-51F4A7075990";
name = Regular;
paths = (
{
closed = 1;
nodes = (
"950 1556 LINE",
"-10 1556 LINE",
"-10 1677 LINE",
"950 1677 LINE"
);
}
);
width = 940;
},
{
layerId = "2777C4B8-28CF-4E18-816B-E5A8A64F0BAA";
name = Bold;
width = 600;
}
);
unicode = 00AF;
},
{
glyphname = degree;
lastChange = "2014-05-31 17:36:30 -0600";
layers = (
{
layerId = "9038F23B-D43E-461B-9F57-51F4A7075990";
name = Regular;
paths = (
{
closed = 1;
nodes = (
"98 1238 OFFCURVE",
"133 1315 OFFCURVE",
"189 1371 CURVE SMOOTH",
"245 1427 OFFCURVE",
"323 1462 OFFCURVE",
"408 1462 CURVE SMOOTH",
"495 1462 OFFCURVE",
"572 1427 OFFCURVE",
"628 1371 CURVE SMOOTH",
"684 1315 OFFCURVE",
"719 1238 OFFCURVE",
"719 1151 CURVE SMOOTH",
"719 1066 OFFCURVE",
"684 988 OFFCURVE",
"628 932 CURVE SMOOTH",
"572 876 OFFCURVE",
"495 842 OFFCURVE",
"408 842 CURVE SMOOTH",
"323 842 OFFCURVE",
"245 876 OFFCURVE",
"189 932 CURVE SMOOTH",
"133 988 OFFCURVE",
"98 1066 OFFCURVE",
"98 1151 CURVE SMOOTH"
);
},
{
closed = 1;
nodes = (
"221 1100 OFFCURVE",
"242 1053 OFFCURVE",
"276 1019 CURVE SMOOTH",
"310 985 OFFCURVE",
"356 963 OFFCURVE",
"408 963 CURVE SMOOTH",
"461 963 OFFCURVE",
"508 985 OFFCURVE",
"542 1019 CURVE SMOOTH",
"576 1053 OFFCURVE",
"596 1100 OFFCURVE",
"596 1151 CURVE SMOOTH",
"596 1204 OFFCURVE",
"576 1252 OFFCURVE",
"542 1286 CURVE SMOOTH",
"508 1320 OFFCURVE",
"461 1341 OFFCURVE",
"408 1341 CURVE SMOOTH",
"356 1341 OFFCURVE",
"310 1320 OFFCURVE",
"276 1286 CURVE SMOOTH",
"242 1252 OFFCURVE",
"221 1204 OFFCURVE",
"221 1151 CURVE SMOOTH"
);
}
);
width = 819;
},
{
layerId = "2777C4B8-28CF-4E18-816B-E5A8A64F0BAA";
name = Bold;
width = 600;
}
);
unicode = 00B0;
},
{
glyphname = plusminus;
lastChange = "2014-05-31 17:36:30 -0600";
layers = (
{
layerId = "9038F23B-D43E-461B-9F57-51F4A7075990";
name = Regular;
paths = (
{
closed = 1;
nodes = (
"633 672 LINE",
"633 293 LINE",
"510 293 LINE",
"510 672 LINE",
"133 672 LINE",
"133 793 LINE",
"510 793 LINE",
"510 1171 LINE",
"633 1171 LINE",
"633 793 LINE",
"1012 793 LINE",
"1012 672 LINE"
);
},
{
closed = 1;
nodes = (
"1012 0 LINE",
"133 0 LINE",
"133 121 LINE",
"1012 121 LINE"
);
}
);
width = 1145;
},
{
layerId = "2777C4B8-28CF-4E18-816B-E5A8A64F0BAA";
name = Bold;
width = 600;
}
);
unicode = 00B1;
},
{
glyphname = twosuperior;
lastChange = "2014-05-31 17:36:30 -0600";
layers = (
{
layerId = "9038F23B-D43E-461B-9F57-51F4A7075990";
name = Regular;
paths = (
{
closed = 1;
nodes = (
"690 1198 OFFCURVE",
"677 1144 OFFCURVE",
"642 1088 CURVE SMOOTH",
"607 1032 OFFCURVE",
"552 974 OFFCURVE",
"467 901 CURVE SMOOTH",
"250 715 LINE",
"547 715 LINE SMOOTH",
"610 715 OFFCURVE",
"629 754 OFFCURVE",
"637 799 CURVE SMOOTH",
"645 842 LINE",
"715 842 LINE",
"709 586 LINE",
"86 586 LINE",
"86 678 LINE",
"346 911 LINE SMOOTH",
"406 966 OFFCURVE",
"447 1022 OFFCURVE",
"472 1079 CURVE SMOOTH",
"496 1135 OFFCURVE",
"506 1192 OFFCURVE",
"506 1245 CURVE SMOOTH",
"506 1290 OFFCURVE",
"498 1329 OFFCURVE",
"479 1357 CURVE SMOOTH",
"459 1385 OFFCURVE",
"429 1401 OFFCURVE",
"385 1401 CURVE SMOOTH",
"336 1401 OFFCURVE",
"301 1380 OFFCURVE",
"280 1348 CURVE SMOOTH",
"259 1315 OFFCURVE",
"250 1270 OFFCURVE",
"250 1223 CURVE",
"158 1223 OFFCURVE",
"102 1239 OFFCURVE",
"102 1311 CURVE SMOOTH",
"102 1360 OFFCURVE",
"126 1403 OFFCURVE",
"174 1434 CURVE SMOOTH",
"221 1465 OFFCURVE",
"292 1483 OFFCURVE",
"385 1483 CURVE SMOOTH",
"576 1483 OFFCURVE",
"690 1406 OFFCURVE",
"690 1262 CURVE SMOOTH"
);
}
);
width = 819;
},
{
layerId = "2777C4B8-28CF-4E18-816B-E5A8A64F0BAA";
name = Bold;
width = 600;
}
);
unicode = 00B2;
},
{
glyphname = threesuperior;
lastChange = "2014-05-31 17:36:30 -0600";
layers = (
{
layerId = "9038F23B-D43E-461B-9F57-51F4A7075990";
name = Regular;
paths = (
{
closed = 1;
nodes = (
"177 573 OFFCURVE",
"82 641 OFFCURVE",
"82 741 CURVE SMOOTH",
"82 801 OFFCURVE",
"119 842 OFFCURVE",
"176 842 CURVE",
"176 799 OFFCURVE",
"190 755 OFFCURVE",
"219 722 CURVE SMOOTH",
"247 689 OFFCURVE",
"290 666 OFFCURVE",
"350 666 CURVE SMOOTH",
"463 666 OFFCURVE",
"532 717 OFFCURVE",
"532 844 CURVE SMOOTH",
"532 940 OFFCURVE",
"466 1001 OFFCURVE",
"315 1001 CURVE SMOOTH",
"248 1001 LINE",
"248 1085 LINE",
"315 1085 LINE SMOOTH",
"367 1085 OFFCURVE",
"412 1102 OFFCURVE",
"445 1133 CURVE SMOOTH",
"478 1164 OFFCURVE",
"498 1207 OFFCURVE",
"498 1262 CURVE SMOOTH",
"498 1353 OFFCURVE",
"465 1401 OFFCURVE",
"381 1401 CURVE SMOOTH",
"329 1401 OFFCURVE",
"295 1380 OFFCURVE",
"275 1348 CURVE SMOOTH",
"254 1315 OFFCURVE",
"246 1270 OFFCURVE",
"246 1223 CURVE",
"199 1223 OFFCURVE",
"161 1227 OFFCURVE",
"135 1240 CURVE SMOOTH",
"109 1253 OFFCURVE",
"94 1275 OFFCURVE",
"94 1311 CURVE SMOOTH",
"94 1360 OFFCURVE",
"119 1403 OFFCURVE",
"168 1434 CURVE SMOOTH",
"216 1465 OFFCURVE",
"288 1483 OFFCURVE",
"381 1483 CURVE SMOOTH",
"472 1483 OFFCURVE",
"548 1464 OFFCURVE",
"601 1429 CURVE SMOOTH",
"654 1394 OFFCURVE",
"684 1344 OFFCURVE",
"684 1280 CURVE SMOOTH",
"684 1220 OFFCURVE",
"660 1173 OFFCURVE",
"622 1137 CURVE SMOOTH",
"584 1101 OFFCURVE",
"531 1075 OFFCURVE",
"475 1059 CURVE",
"475 1049 LINE",
"530 1040 OFFCURVE",
"590 1025 OFFCURVE",
"638 994 CURVE SMOOTH",
"685 963 OFFCURVE",
"719 917 OFFCURVE",
"719 842 CURVE SMOOTH",
"719 742 OFFCURVE",
"670 675 OFFCURVE",
"599 633 CURVE SMOOTH",
"528 591 OFFCURVE",
"439 573 OFFCURVE",
"356 573 CURVE SMOOTH"
);
}
);
width = 819;
},
{
layerId = "2777C4B8-28CF-4E18-816B-E5A8A64F0BAA";
name = Bold;
width = 600;
}
);
unicode = 00B3;
},
{
glyphname = acute;
lastChange = "2014-05-31 17:36:30 -0600";
layers = (
{
layerId = "9038F23B-D43E-461B-9F57-51F4A7075990";
name = Regular;
paths = (
{
closed = 1;
nodes = (
"391 1268 LINE",
"422 1307 OFFCURVE",
"455 1360 OFFCURVE",
"487 1414 CURVE SMOOTH",
"518 1468 OFFCURVE",
"548 1524 OFFCURVE",
"569 1569 CURVE",
"788 1569 LINE",
"788 1548 LINE",
"763 1512 OFFCURVE",
"710 1455 OFFCURVE",
"650 1396 CURVE SMOOTH",
"590 1337 OFFCURVE",
"524 1278 OFFCURVE",
"469 1241 CURVE",
"391 1241 LINE"
);
}
);
width = 1182;
},
{
layerId = "2777C4B8-28CF-4E18-816B-E5A8A64F0BAA";
name = Bold;
width = 600;
}
);
unicode = 00B4;
},
{
glyphname = mu;
lastChange = "2014-05-31 17:36:30 -0600";
layers = (
{
layerId = "9038F23B-D43E-461B-9F57-51F4A7075990";
name = Regular;
paths = (
{
closed = 1;
nodes = (
"454 -20 OFFCURVE",
"374 24 OFFCURVE",
"319 100 CURVE",
"322 -13 OFFCURVE",
"326 -111 OFFCURVE",
"348 -183 CURVE SMOOTH",
"370 -255 OFFCURVE",
"409 -301 OFFCURVE",
"485 -313 CURVE",
"485 -365 OFFCURVE",
"474 -409 OFFCURVE",
"451 -441 CURVE SMOOTH",
"427 -473 OFFCURVE",
"391 -492 OFFCURVE",
"342 -492 CURVE SMOOTH",
"299 -492 OFFCURVE",
"258 -477 OFFCURVE",
"227 -439 CURVE SMOOTH",
"196 -401 OFFCURVE",
"176 -340 OFFCURVE",
"176 -248 CURVE SMOOTH",
"176 -207 OFFCURVE",
"177 -163 OFFCURVE",
"180 -116 CURVE SMOOTH",
"184 -22 OFFCURVE",
"190 90 OFFCURVE",
"196 229 CURVE SMOOTH",
"199 298 OFFCURVE",
"200 376 OFFCURVE",
"201 461 CURVE SMOOTH",
"201 1098 LINE",
"393 1098 LINE",
"393 410 LINE SMOOTH",
"393 321 OFFCURVE",
"405 246 OFFCURVE",
"437 194 CURVE SMOOTH",
"468 141 OFFCURVE",
"519 111 OFFCURVE",
"598 111 CURVE SMOOTH",
"674 111 OFFCURVE",
"736 145 OFFCURVE",
"779 203 CURVE SMOOTH",
"822 261 OFFCURVE",
"846 343 OFFCURVE",
"846 442 CURVE SMOOTH",
"846 1098 LINE",
"1038 1098 LINE",
"1038 264 LINE SMOOTH",
"1038 204 OFFCURVE",
"1056 159 OFFCURVE",
"1081 130 CURVE SMOOTH",
"1105 101 OFFCURVE",
"1138 86 OFFCURVE",
"1167 86 CURVE SMOOTH",
"1174 86 LINE",
"1174 0 LINE",
"1063 0 LINE SMOOTH",
"951 0 OFFCURVE",
"889 56 OFFCURVE",
"864 164 CURVE",
"856 164 LINE",
"824 109 OFFCURVE",
"789 63 OFFCURVE",
"743 31 CURVE SMOOTH",
"697 -1 OFFCURVE",
"641 -20 OFFCURVE",
"569 -20 CURVE SMOOTH"
);
}
);
width = 1260;
},
{
layerId = "2777C4B8-28CF-4E18-816B-E5A8A64F0BAA";
name = Bold;
width = 600;
}
);
unicode = 00B5;
},
{
glyphname = paragraph;
lastChange = "2014-05-31 17:36:30 -0600";
layers = (
{
layerId = "9038F23B-D43E-461B-9F57-51F4A7075990";
name = Regular;
paths = (
{
closed = 1;
nodes = (
"860 1452 LINE",
"666 1452 LINE",
"666 -227 LINE",
"346 -227 LINE",
"346 -141 LINE",
"373 -141 LINE SMOOTH",
"420 -141 OFFCURVE",
"462 -136 OFFCURVE",
"492 -115 CURVE SMOOTH",
"522 -95 OFFCURVE",
"541 -58 OFFCURVE",
"541 6 CURVE SMOOTH",
"541 791 LINE",
"395 791 LINE SMOOTH",
"275 791 OFFCURVE",
"197 838 OFFCURVE",
"149 912 CURVE SMOOTH",
"101 986 OFFCURVE",
"82 1085 OFFCURVE",
"82 1192 CURVE SMOOTH",
"82 1301 OFFCURVE",
"103 1392 OFFCURVE",
"154 1456 CURVE SMOOTH",
"205 1520 OFFCURVE",
"283 1556 OFFCURVE",
"399 1556 CURVE SMOOTH",
"1180 1556 LINE",
"1180 1470 LINE",
"1153 1470 LINE SMOOTH",
"1108 1470 OFFCURVE",
"1065 1465 OFFCURVE",
"1035 1445 CURVE SMOOTH",
"1005 1424 OFFCURVE",
"985 1387 OFFCURVE",
"985 1323 CURVE SMOOTH",
"985 6 LINE SMOOTH",
"985 -58 OFFCURVE",
"1005 -95 OFFCURVE",
"1035 -115 CURVE SMOOTH",
"1065 -136 OFFCURVE",
"1108 -141 OFFCURVE",
"1153 -141 CURVE SMOOTH",
"1180 -141 LINE",
"1180 -227 LINE",
"860 -227 LINE"
);
}
);
width = 1264;
},
{
layerId = "2777C4B8-28CF-4E18-816B-E5A8A64F0BAA";
name = Bold;
width = 600;
}
);
unicode = 00B6;
},
{
glyphname = periodcentered;
lastChange = "2014-05-31 17:36:30 -0600";
layers = (
{
layerId = "9038F23B-D43E-461B-9F57-51F4A7075990";
name = Regular;
paths = (
{
closed = 1;
nodes = (
"166 782 OFFCURVE",
"180 818 OFFCURVE",
"204 839 CURVE SMOOTH",
"227 860 OFFCURVE",
"259 868 OFFCURVE",
"295 868 CURVE SMOOTH",
"330 868 OFFCURVE",
"362 860 OFFCURVE",
"386 839 CURVE SMOOTH",
"409 818 OFFCURVE",
"424 782 OFFCURVE",
"424 729 CURVE SMOOTH",
"424 677 OFFCURVE",
"409 643 OFFCURVE",
"386 621 CURVE SMOOTH",
"362 599 OFFCURVE",
"330 590 OFFCURVE",
"295 590 CURVE SMOOTH",
"259 590 OFFCURVE",
"227 599 OFFCURVE",
"204 621 CURVE SMOOTH",
"180 643 OFFCURVE",
"166 677 OFFCURVE",
"166 729 CURVE SMOOTH"
);
}
);
width = 586;
},
{
layerId = "2777C4B8-28CF-4E18-816B-E5A8A64F0BAA";
name = Bold;
width = 600;
}
);
unicode = 00B7;
},
{
glyphname = cedilla;
lastChange = "2014-05-31 17:36:30 -0600";
layers = (
{
layerId = "9038F23B-D43E-461B-9F57-51F4A7075990";
name = Regular;
paths = (
{
closed = 1;
nodes = (
"551 -403 OFFCURVE",
"456 -492 OFFCURVE",
"281 -492 CURVE SMOOTH",
"260 -492 OFFCURVE",
"232 -490 OFFCURVE",
"204 -486 CURVE SMOOTH",
"176 -482 OFFCURVE",
"147 -476 OFFCURVE",
"123 -469 CURVE",
"123 -365 LINE",
"172 -376 OFFCURVE",
"225 -381 OFFCURVE",
"262 -381 CURVE SMOOTH",
"341 -381 OFFCURVE",
"387 -337 OFFCURVE",
"387 -266 CURVE SMOOTH",
"387 -186 OFFCURVE",
"322 -148 OFFCURVE",
"233 -141 CURVE",
"276 18 LINE",
"373 18 LINE",
"352 -70 LINE",
"485 -81 OFFCURVE",
"551 -150 OFFCURVE",
"551 -258 CURVE SMOOTH"
);
}
);
width = 682;
},
{
layerId = "2777C4B8-28CF-4E18-816B-E5A8A64F0BAA";
name = Bold;
width = 600;
}
);
unicode = 00B8;
},
{
glyphname = onesuperior;
lastChange = "2014-05-31 17:36:30 -0600";
layers = (
{
layerId = "9038F23B-D43E-461B-9F57-51F4A7075990";
name = Regular;
paths = (
{
closed = 1;
nodes = (
"145 588 LINE",
"145 657 LINE",
"240 657 LINE SMOOTH",
"264 657 OFFCURVE",
"284 659 OFFCURVE",
"300 670 CURVE SMOOTH",
"315 681 OFFCURVE",
"324 700 OFFCURVE",
"324 735 CURVE SMOOTH",
"324 1325 LINE",
"133 1325 LINE",
"133 1395 LINE",
"236 1395 LINE SMOOTH",
"267 1395 OFFCURVE",
"303 1398 OFFCURVE",
"335 1410 CURVE SMOOTH",
"367 1422 OFFCURVE",
"394 1441 OFFCURVE",
"406 1473 CURVE",
"508 1473 LINE",
"508 735 LINE SMOOTH",
"508 700 OFFCURVE",
"518 681 OFFCURVE",
"534 670 CURVE SMOOTH",
"549 659 OFFCURVE",
"570 657 OFFCURVE",
"594 657 CURVE SMOOTH",
"688 657 LINE",
"688 588 LINE"
);
}
);
width = 819;
},
{
layerId = "2777C4B8-28CF-4E18-816B-E5A8A64F0BAA";
name = Bold;
width = 600;
}
);
unicode = 00B9;
},
{
glyphname = ordmasculine;
lastChange = "2014-05-31 17:36:30 -0600";
layers = (
{
layerId = "9038F23B-D43E-461B-9F57-51F4A7075990";
name = Regular;
paths = (
{
closed = 1;
nodes = (
"250 949 OFFCURVE",
"291 860 OFFCURVE",
"408 860 CURVE SMOOTH",
"523 860 OFFCURVE",
"565 949 OFFCURVE",
"565 1126 CURVE SMOOTH",
"565 1301 OFFCURVE",
"521 1386 OFFCURVE",
"406 1386 CURVE SMOOTH",
"291 1386 OFFCURVE",
"250 1301 OFFCURVE",
"250 1126 CURVE SMOOTH"
);
},
{
closed = 1;
nodes = (
"741 891 OFFCURVE",
"626 778 OFFCURVE",
"406 778 CURVE SMOOTH",
"195 778 OFFCURVE",
"72 893 OFFCURVE",
"72 1126 CURVE SMOOTH",
"72 1361 OFFCURVE",
"186 1473 OFFCURVE",
"410 1473 CURVE SMOOTH",
"513 1473 OFFCURVE",
"595 1444 OFFCURVE",
"652 1387 CURVE SMOOTH",
"709 1330 OFFCURVE",
"741 1243 OFFCURVE",
"741 1126 CURVE SMOOTH"
);
}
);
width = 813;
},
{
layerId = "2777C4B8-28CF-4E18-816B-E5A8A64F0BAA";
name = Bold;
width = 600;
}
);
unicode = 00BA;
},
{
glyphname = guillemotright;
lastChange = "2014-05-31 17:36:30 -0600";
layers = (
{
layerId = "9038F23B-D43E-461B-9F57-51F4A7075990";
name = Regular;
paths = (
{
closed = 1;
nodes = (
"920 520 LINE",
"606 164 LINE",
"504 164 LINE",
"711 553 LINE",
"504 942 LINE",
"606 942 LINE",
"920 586 LINE"
);
},
{
closed = 1;
nodes = (
"549 520 LINE",
"236 164 LINE",
"133 164 LINE",
"340 553 LINE",
"133 942 LINE",
"236 942 LINE",
"549 586 LINE"
);
}
);
width = 1053;
},
{
layerId = "2777C4B8-28CF-4E18-816B-E5A8A64F0BAA";
name = Bold;
width = 600;
}
);
unicode = 00BB;
},
{
glyphname = onequarter;
lastChange = "2014-05-31 17:36:30 -0600";
layers = (
{
layerId = "9038F23B-D43E-461B-9F57-51F4A7075990";
name = Regular;
paths = (
{
closed = 1;
nodes = (
"60 588 LINE",
"60 657 LINE",
"155 657 LINE SMOOTH",
"179 657 OFFCURVE",
"199 659 OFFCURVE",
"215 670 CURVE SMOOTH",
"230 681 OFFCURVE",
"239 700 OFFCURVE",
"239 735 CURVE SMOOTH",
"239 1325 LINE",
"48 1325 LINE",
"48 1395 LINE",
"151 1395 LINE SMOOTH",
"182 1395 OFFCURVE",
"218 1398 OFFCURVE",
"250 1410 CURVE SMOOTH",
"282 1422 OFFCURVE",
"309 1441 OFFCURVE",
"321 1473 CURVE",
"423 1473 LINE",
"423 735 LINE SMOOTH",
"423 700 OFFCURVE",
"433 681 OFFCURVE",
"449 670 CURVE SMOOTH",
"464 659 OFFCURVE",
"485 657 OFFCURVE",
"509 657 CURVE SMOOTH",
"603 657 LINE",
"603 588 LINE"
);
},
{
closed = 1;
nodes = (
"566 0 LINE",
"430 0 LINE",
"1161 1462 LINE",
"1295 1462 LINE"
);
},
{
closed = 1;
nodes = (
"1477 261 LINE",
"1477 148 LINE SMOOTH",
"1477 113 OFFCURVE",
"1487 94 OFFCURVE",
"1503 83 CURVE SMOOTH",
"1519 72 OFFCURVE",
"1540 70 OFFCURVE",
"1563 70 CURVE SMOOTH",
"1604 70 LINE",
"1604 1 LINE",
"1153 1 LINE",
"1153 70 LINE",
"1210 70 LINE SMOOTH",
"1233 70 OFFCURVE",
"1253 72 OFFCURVE",
"1269 83 CURVE SMOOTH",
"1284 94 OFFCURVE",
"1294 113 OFFCURVE",
"1294 148 CURVE SMOOTH",
"1294 261 LINE",
"930 261 LINE",
"930 322 LINE",
"1313 886 LINE",
"1477 886 LINE",
"1477 349 LINE",
"1673 349 LINE",
"1673 261 LINE"
);
},
{
closed = 1;
nodes = (
"1294 580 LINE SMOOTH",
"1294 623 OFFCURVE",
"1298 681 OFFCURVE",
"1305 732 CURVE",
"1294 709 OFFCURVE",
"1281 684 OFFCURVE",
"1274 673 CURVE",
"1051 349 LINE",
"1294 349 LINE"
);
}
);
width = 1720;
},
{
layerId = "2777C4B8-28CF-4E18-816B-E5A8A64F0BAA";
name = Bold;
width = 600;
}
);
unicode = 00BC;
},
{
glyphname = onehalf;
lastChange = "2014-05-31 17:36:30 -0600";
layers = (
{
layerId = "9038F23B-D43E-461B-9F57-51F4A7075990";
name = Regular;
paths = (
{
closed = 1;
nodes = (
"60 588 LINE",
"60 657 LINE",
"155 657 LINE SMOOTH",
"179 657 OFFCURVE",
"199 659 OFFCURVE",
"215 670 CURVE SMOOTH",
"230 681 OFFCURVE",
"239 700 OFFCURVE",
"239 735 CURVE SMOOTH",
"239 1325 LINE",
"48 1325 LINE",
"48 1395 LINE",
"151 1395 LINE SMOOTH",
"182 1395 OFFCURVE",
"218 1398 OFFCURVE",
"250 1410 CURVE SMOOTH",
"282 1422 OFFCURVE",
"309 1441 OFFCURVE",
"321 1473 CURVE",
"423 1473 LINE",
"423 735 LINE SMOOTH",
"423 700 OFFCURVE",
"433 681 OFFCURVE",
"449 670 CURVE SMOOTH",
"464 659 OFFCURVE",
"485 657 OFFCURVE",
"509 657 CURVE SMOOTH",
"603 657 LINE",
"603 588 LINE"
);
},
{
closed = 1;
nodes = (
"525 0 LINE",
"389 0 LINE",
"1120 1462 LINE",
"1254 1462 LINE"
);
},
{
closed = 1;
nodes = (
"1620 613 OFFCURVE",
"1607 559 OFFCURVE",
"1572 503 CURVE SMOOTH",
"1537 447 OFFCURVE",
"1482 389 OFFCURVE",
"1397 316 CURVE SMOOTH",
"1180 130 LINE",
"1477 130 LINE SMOOTH",
"1540 130 OFFCURVE",
"1559 169 OFFCURVE",
"1567 214 CURVE SMOOTH",
"1575 257 LINE",
"1645 257 LINE",
"1639 1 LINE",
"1016 1 LINE",
"1016 93 LINE",
"1276 326 LINE SMOOTH",
"1336 381 OFFCURVE",
"1377 437 OFFCURVE",
"1402 494 CURVE SMOOTH",
"1426 550 OFFCURVE",
"1436 607 OFFCURVE",
"1436 660 CURVE SMOOTH",
"1436 705 OFFCURVE",
"1428 744 OFFCURVE",
"1409 772 CURVE SMOOTH",
"1389 800 OFFCURVE",
"1359 816 OFFCURVE",
"1315 816 CURVE SMOOTH",
"1266 816 OFFCURVE",
"1231 795 OFFCURVE",
"1210 763 CURVE SMOOTH",
"1189 730 OFFCURVE",
"1180 685 OFFCURVE",
"1180 638 CURVE",
"1088 638 OFFCURVE",
"1032 654 OFFCURVE",
"1032 726 CURVE SMOOTH",
"1032 775 OFFCURVE",
"1056 818 OFFCURVE",
"1104 849 CURVE SMOOTH",
"1151 880 OFFCURVE",
"1222 898 OFFCURVE",
"1315 898 CURVE SMOOTH",
"1506 898 OFFCURVE",
"1620 821 OFFCURVE",
"1620 677 CURVE SMOOTH"
);
}
);
width = 1720;
},
{
layerId = "2777C4B8-28CF-4E18-816B-E5A8A64F0BAA";
name = Bold;
width = 600;
}
);
unicode = 00BD;
},
{
glyphname = threequarters;
lastChange = "2014-05-31 17:36:30 -0600";
layers = (
{
layerId = "9038F23B-D43E-461B-9F57-51F4A7075990";
name = Regular;
paths = (
{
closed = 1;
nodes = (
"177 573 OFFCURVE",
"82 641 OFFCURVE",
"82 741 CURVE SMOOTH",
"82 801 OFFCURVE",
"119 842 OFFCURVE",
"176 842 CURVE",
"176 799 OFFCURVE",
"190 755 OFFCURVE",
"219 722 CURVE SMOOTH",
"247 689 OFFCURVE",
"290 666 OFFCURVE",
"350 666 CURVE SMOOTH",
"463 666 OFFCURVE",
"532 717 OFFCURVE",
"532 844 CURVE SMOOTH",
"532 940 OFFCURVE",
"466 1001 OFFCURVE",
"315 1001 CURVE SMOOTH",
"248 1001 LINE",
"248 1085 LINE",
"315 1085 LINE SMOOTH",
"367 1085 OFFCURVE",
"412 1102 OFFCURVE",
"445 1133 CURVE SMOOTH",
"478 1164 OFFCURVE",
"498 1207 OFFCURVE",
"498 1262 CURVE SMOOTH",
"498 1353 OFFCURVE",
"465 1401 OFFCURVE",
"381 1401 CURVE SMOOTH",
"329 1401 OFFCURVE",
"295 1380 OFFCURVE",
"275 1348 CURVE SMOOTH",
"254 1315 OFFCURVE",
"246 1270 OFFCURVE",
"246 1223 CURVE",
"199 1223 OFFCURVE",
"161 1227 OFFCURVE",
"135 1240 CURVE SMOOTH",
"109 1253 OFFCURVE",
"94 1275 OFFCURVE",
"94 1311 CURVE SMOOTH",
"94 1360 OFFCURVE",
"119 1403 OFFCURVE",
"168 1434 CURVE SMOOTH",
"216 1465 OFFCURVE",
"288 1483 OFFCURVE",
"381 1483 CURVE SMOOTH",
"472 1483 OFFCURVE",
"548 1464 OFFCURVE",
"601 1429 CURVE SMOOTH",
"654 1394 OFFCURVE",
"684 1344 OFFCURVE",
"684 1280 CURVE SMOOTH",
"684 1220 OFFCURVE",
"660 1173 OFFCURVE",
"622 1137 CURVE SMOOTH",
"584 1101 OFFCURVE",
"531 1075 OFFCURVE",
"475 1059 CURVE",
"475 1049 LINE",
"530 1040 OFFCURVE",
"590 1025 OFFCURVE",
"638 994 CURVE SMOOTH",
"685 963 OFFCURVE",
"719 917 OFFCURVE",
"719 842 CURVE SMOOTH",
"719 742 OFFCURVE",
"670 675 OFFCURVE",
"599 633 CURVE SMOOTH",
"528 591 OFFCURVE",
"439 573 OFFCURVE",
"356 573 CURVE SMOOTH"
);
},
{
closed = 1;
nodes = (
"607 0 LINE",
"471 0 LINE",
"1202 1462 LINE",
"1336 1462 LINE"
);
},
{
closed = 1;
nodes = (
"1477 261 LINE",
"1477 148 LINE SMOOTH",
"1477 113 OFFCURVE",
"1487 94 OFFCURVE",
"1503 83 CURVE SMOOTH",
"1519 72 OFFCURVE",
"1540 70 OFFCURVE",
"1563 70 CURVE SMOOTH",
"1604 70 LINE",
"1604 1 LINE",
"1153 1 LINE",
"1153 70 LINE",
"1210 70 LINE SMOOTH",
"1233 70 OFFCURVE",
"1253 72 OFFCURVE",
"1269 83 CURVE SMOOTH",
"1284 94 OFFCURVE",
"1294 113 OFFCURVE",
"1294 148 CURVE SMOOTH",
"1294 261 LINE",
"930 261 LINE",
"930 322 LINE",
"1313 886 LINE",
"1477 886 LINE",
"1477 349 LINE",
"1673 349 LINE",
"1673 261 LINE"
);
},
{
closed = 1;
nodes = (
"1294 580 LINE SMOOTH",
"1294 623 OFFCURVE",
"1298 681 OFFCURVE",
"1305 732 CURVE",
"1294 709 OFFCURVE",
"1281 684 OFFCURVE",
"1274 673 CURVE",
"1051 349 LINE",
"1294 349 LINE"
);
}
);
width = 1720;
},
{
layerId = "2777C4B8-28CF-4E18-816B-E5A8A64F0BAA";
name = Bold;
width = 600;
}
);
unicode = 00BE;
},
{
glyphname = questiondown;
lastChange = "2014-05-31 17:36:30 -0600";
layers = (
{
layerId = "9038F23B-D43E-461B-9F57-51F4A7075990";
name = Regular;
paths = (
{
closed = 1;
nodes = (
"502 682 LINE",
"627 682 LINE",
"627 371 LINE",
"508 323 OFFCURVE",
"429 257 OFFCURVE",
"381 184 CURVE SMOOTH",
"332 111 OFFCURVE",
"313 30 OFFCURVE",
"313 -53 CURVE SMOOTH",
"313 -124 OFFCURVE",
"330 -183 OFFCURVE",
"366 -224 CURVE SMOOTH",
"402 -265 OFFCURVE",
"458 -289 OFFCURVE",
"537 -289 CURVE SMOOTH",
"622 -289 OFFCURVE",
"679 -259 OFFCURVE",
"715 -211 CURVE SMOOTH",
"751 -163 OFFCURVE",
"766 -98 OFFCURVE",
"766 -27 CURVE",
"815 -27 OFFCURVE",
"858 -38 OFFCURVE",
"888 -60 CURVE SMOOTH",
"918 -82 OFFCURVE",
"936 -116 OFFCURVE",
"936 -160 CURVE SMOOTH",
"936 -225 OFFCURVE",
"907 -283 OFFCURVE",
"844 -323 CURVE SMOOTH",
"780 -364 OFFCURVE",
"685 -389 OFFCURVE",
"553 -389 CURVE SMOOTH",
"424 -389 OFFCURVE",
"312 -355 OFFCURVE",
"232 -291 CURVE SMOOTH",
"152 -228 OFFCURVE",
"104 -135 OFFCURVE",
"104 -18 CURVE SMOOTH",
"104 94 OFFCURVE",
"140 186 OFFCURVE",
"208 262 CURVE SMOOTH",
"276 338 OFFCURVE",
"375 399 OFFCURVE",
"502 451 CURVE"
);
},
{
closed = 1;
nodes = (
"696 916 OFFCURVE",
"682 880 OFFCURVE",
"659 859 CURVE SMOOTH",
"635 838 OFFCURVE",
"603 829 OFFCURVE",
"567 829 CURVE SMOOTH",
"532 829 OFFCURVE",
"500 838 OFFCURVE",
"477 859 CURVE SMOOTH",
"453 880 OFFCURVE",
"438 916 OFFCURVE",
"438 969 CURVE SMOOTH",
"438 1021 OFFCURVE",
"453 1056 OFFCURVE",
"477 1078 CURVE SMOOTH",
"500 1100 OFFCURVE",
"532 1108 OFFCURVE",
"567 1108 CURVE SMOOTH",
"603 1108 OFFCURVE",
"635 1100 OFFCURVE",
"659 1078 CURVE SMOOTH",
"682 1056 OFFCURVE",
"696 1021 OFFCURVE",
"696 969 CURVE SMOOTH"
);
}
);
width = 1024;
},
{
layerId = "2777C4B8-28CF-4E18-816B-E5A8A64F0BAA";
name = Bold;
width = 600;
}
);
unicode = 00BF;
},
{
glyphname = Agrave;
lastChange = "2014-05-31 17:36:30 -0600";
layers = (
{
layerId = "9038F23B-D43E-461B-9F57-51F4A7075990";
name = Regular;
paths = (
{
closed = 1;
nodes = (
"414 489 LINE",
"336 274 LINE SMOOTH",
"324 242 OFFCURVE",
"317 209 OFFCURVE",
"317 186 CURVE SMOOTH",
"317 117 OFFCURVE",
"361 86 OFFCURVE",
"453 86 CURVE SMOOTH",
"500 86 LINE",
"500 0 LINE",
"0 0 LINE",
"0 86 LINE",
"39 86 LINE SMOOTH",
"79 86 OFFCURVE",
"105 93 OFFCURVE",
"128 117 CURVE SMOOTH",
"151 141 OFFCURVE",
"170 181 OFFCURVE",
"195 246 CURVE SMOOTH",
"649 1462 LINE",
"809 1462 LINE",
"1272 195 LINE SMOOTH",
"1288 152 OFFCURVE",
"1303 125 OFFCURVE",
"1326 109 CURVE SMOOTH",
"1349 92 OFFCURVE",
"1377 86 OFFCURVE",
"1417 86 CURVE SMOOTH",
"1444 86 LINE",
"1444 0 LINE",
"881 0 LINE",
"881 86 LINE",
"928 86 LINE SMOOTH",
"1010 86 OFFCURVE",
"1051 119 OFFCURVE",
"1051 184 CURVE SMOOTH",
"1051 207 OFFCURVE",
"1045 229 OFFCURVE",
"1034 260 CURVE SMOOTH",
"952 489 LINE"
);
},
{
closed = 1;
nodes = (
"788 950 LINE SMOOTH",
"745 1071 OFFCURVE",
"709 1175 OFFCURVE",
"686 1274 CURVE",
"677 1225 OFFCURVE",
"664 1180 OFFCURVE",
"649 1132 CURVE SMOOTH",
"634 1084 OFFCURVE",
"616 1033 OFFCURVE",
"592 969 CURVE SMOOTH",
"453 592 LINE",
"915 592 LINE"
);
},
{
closed = 1;
nodes = (
"805 1579 LINE",
"727 1579 LINE",
"672 1616 OFFCURVE",
"605 1675 OFFCURVE",
"545 1734 CURVE SMOOTH",
"485 1793 OFFCURVE",
"432 1850 OFFCURVE",
"407 1886 CURVE",
"407 1907 LINE",
"626 1907 LINE",
"647 1862 OFFCURVE",
"677 1806 OFFCURVE",
"709 1752 CURVE SMOOTH",
"741 1698 OFFCURVE",
"776 1645 OFFCURVE",
"805 1606 CURVE"
);
}
);
width = 1444;
},
{
layerId = "2777C4B8-28CF-4E18-816B-E5A8A64F0BAA";
name = Bold;
width = 600;
}
);
unicode = 00C0;
},
{
glyphname = Aacute;
lastChange = "2014-05-31 17:36:30 -0600";
layers = (
{
layerId = "9038F23B-D43E-461B-9F57-51F4A7075990";
name = Regular;
paths = (
{
closed = 1;
nodes = (
"414 489 LINE",
"336 274 LINE SMOOTH",
"324 242 OFFCURVE",
"317 209 OFFCURVE",
"317 186 CURVE SMOOTH",
"317 117 OFFCURVE",
"361 86 OFFCURVE",
"453 86 CURVE SMOOTH",
"500 86 LINE",
"500 0 LINE",
"0 0 LINE",
"0 86 LINE",
"39 86 LINE SMOOTH",
"79 86 OFFCURVE",
"105 93 OFFCURVE",
"128 117 CURVE SMOOTH",
"151 141 OFFCURVE",
"170 181 OFFCURVE",
"195 246 CURVE SMOOTH",
"649 1462 LINE",
"809 1462 LINE",
"1272 195 LINE SMOOTH",
"1288 152 OFFCURVE",
"1303 125 OFFCURVE",
"1326 109 CURVE SMOOTH",
"1349 92 OFFCURVE",
"1377 86 OFFCURVE",
"1417 86 CURVE SMOOTH",
"1444 86 LINE",
"1444 0 LINE",
"881 0 LINE",
"881 86 LINE",
"928 86 LINE SMOOTH",
"1010 86 OFFCURVE",
"1051 119 OFFCURVE",
"1051 184 CURVE SMOOTH",
"1051 207 OFFCURVE",
"1045 229 OFFCURVE",
"1034 260 CURVE SMOOTH",
"952 489 LINE"
);
},
{
closed = 1;
nodes = (
"788 950 LINE SMOOTH",
"745 1071 OFFCURVE",
"709 1175 OFFCURVE",
"686 1274 CURVE",
"677 1225 OFFCURVE",
"664 1180 OFFCURVE",
"649 1132 CURVE SMOOTH",
"634 1084 OFFCURVE",
"616 1033 OFFCURVE",
"592 969 CURVE SMOOTH",
"453 592 LINE",
"915 592 LINE"
);
},
{
closed = 1;
nodes = (
"637 1606 LINE",
"668 1645 OFFCURVE",
"701 1698 OFFCURVE",
"733 1752 CURVE SMOOTH",
"764 1806 OFFCURVE",
"794 1862 OFFCURVE",
"815 1907 CURVE",
"1034 1907 LINE",
"1034 1886 LINE",
"1009 1850 OFFCURVE",
"956 1793 OFFCURVE",
"896 1734 CURVE SMOOTH",
"836 1675 OFFCURVE",
"770 1616 OFFCURVE",
"715 1579 CURVE",
"637 1579 LINE"
);
}
);
width = 1444;
},
{
layerId = "2777C4B8-28CF-4E18-816B-E5A8A64F0BAA";
name = Bold;
width = 600;
}
);
unicode = 00C1;
},
{
glyphname = Acircumflex;
lastChange = "2014-06-11 11:22:26 -0600";
layers = (
{
layerId = "9038F23B-D43E-461B-9F57-51F4A7075990";
name = Regular;
paths = (
{
closed = 1;
nodes = (
"414 489 LINE",
"336 274 LINE SMOOTH",
"324 242 OFFCURVE",
"317 209 OFFCURVE",
"317 186 CURVE SMOOTH",
"317 117 OFFCURVE",
"361 86 OFFCURVE",
"453 86 CURVE SMOOTH",
"500 86 LINE",
"500 0 LINE",
"0 0 LINE",
"0 86 LINE",
"39 86 LINE SMOOTH",
"79 86 OFFCURVE",
"105 93 OFFCURVE",
"128 117 CURVE SMOOTH",
"151 141 OFFCURVE",
"170 181 OFFCURVE",
"195 246 CURVE SMOOTH",
"649 1462 LINE",
"809 1462 LINE",
"1272 195 LINE SMOOTH",
"1288 152 OFFCURVE",
"1303 125 OFFCURVE",
"1326 109 CURVE SMOOTH",
"1349 92 OFFCURVE",
"1377 86 OFFCURVE",
"1417 86 CURVE SMOOTH",
"1444 86 LINE",
"1444 0 LINE",
"881 0 LINE",
"881 86 LINE",
"928 86 LINE SMOOTH",
"1010 86 OFFCURVE",
"1051 119 OFFCURVE",
"1051 184 CURVE SMOOTH",
"1051 207 OFFCURVE",
"1045 229 OFFCURVE",
"1034 260 CURVE SMOOTH",
"952 489 LINE"
);
},
{
closed = 1;
nodes = (
"788 950 LINE SMOOTH",
"745 1071 OFFCURVE",
"709 1175 OFFCURVE",
"686 1274 CURVE",
"677 1225 OFFCURVE",
"664 1180 OFFCURVE",
"649 1132 CURVE SMOOTH",
"634 1084 OFFCURVE",
"616 1033 OFFCURVE",
"592 969 CURVE SMOOTH",
"453 592 LINE",
"915 592 LINE"
);
},
{
closed = 1;
nodes = (
"422 1606 LINE",
"454 1645 OFFCURVE",
"495 1698 OFFCURVE",
"533 1752 CURVE SMOOTH",
"571 1806 OFFCURVE",
"606 1862 OFFCURVE",
"627 1907 CURVE",
"821 1907 LINE",
"842 1862 OFFCURVE",
"878 1806 OFFCURVE",
"916 1752 CURVE SMOOTH",
"954 1698 OFFCURVE",
"994 1645 OFFCURVE",
"1026 1606 CURVE",
"1026 1579 LINE",
"946 1579 LINE",
"867 1624 OFFCURVE",
"784 1698 OFFCURVE",
"723 1763 CURVE",
"660 1698 OFFCURVE",
"579 1624 OFFCURVE",
"502 1579 CURVE",
"422 1579 LINE"
);
}
);
width = 1444;
},
{
layerId = "2777C4B8-28CF-4E18-816B-E5A8A64F0BAA";
name = Bold;
width = 600;
}
);
unicode = 00C2;
},
{
glyphname = Atilde;
lastChange = "2014-05-31 17:36:30 -0600";
layers = (
{
layerId = "9038F23B-D43E-461B-9F57-51F4A7075990";
name = Regular;
paths = (
{
closed = 1;
nodes = (
"414 489 LINE",
"336 274 LINE SMOOTH",
"324 242 OFFCURVE",
"317 209 OFFCURVE",
"317 186 CURVE SMOOTH",
"317 117 OFFCURVE",
"361 86 OFFCURVE",
"453 86 CURVE SMOOTH",
"500 86 LINE",
"500 0 LINE",
"0 0 LINE",
"0 86 LINE",
"39 86 LINE SMOOTH",
"79 86 OFFCURVE",
"105 93 OFFCURVE",
"128 117 CURVE SMOOTH",
"151 141 OFFCURVE",
"170 181 OFFCURVE",
"195 246 CURVE SMOOTH",
"649 1462 LINE",
"809 1462 LINE",
"1272 195 LINE SMOOTH",
"1288 152 OFFCURVE",
"1303 125 OFFCURVE",
"1326 109 CURVE SMOOTH",
"1349 92 OFFCURVE",
"1377 86 OFFCURVE",
"1417 86 CURVE SMOOTH",
"1444 86 LINE",
"1444 0 LINE",
"881 0 LINE",
"881 86 LINE",
"928 86 LINE SMOOTH",
"1010 86 OFFCURVE",
"1051 119 OFFCURVE",
"1051 184 CURVE SMOOTH",
"1051 207 OFFCURVE",
"1045 229 OFFCURVE",
"1034 260 CURVE SMOOTH",
"952 489 LINE"
);
},
{
closed = 1;
nodes = (
"788 950 LINE SMOOTH",
"745 1071 OFFCURVE",
"709 1175 OFFCURVE",
"686 1274 CURVE",
"677 1225 OFFCURVE",
"664 1180 OFFCURVE",
"649 1132 CURVE SMOOTH",
"634 1084 OFFCURVE",
"616 1033 OFFCURVE",
"592 969 CURVE SMOOTH",
"453 592 LINE",
"915 592 LINE"
);
},
{
closed = 1;
nodes = (
"935 1712 OFFCURVE",
"959 1725 OFFCURVE",
"973 1746 CURVE SMOOTH",
"987 1766 OFFCURVE",
"991 1793 OFFCURVE",
"995 1821 CURVE",
"1087 1821 LINE",
"1083 1758 OFFCURVE",
"1066 1698 OFFCURVE",
"1031 1653 CURVE SMOOTH",
"996 1608 OFFCURVE",
"945 1579 OFFCURVE",
"872 1579 CURVE SMOOTH",
"799 1579 OFFCURVE",
"741 1611 OFFCURVE",
"690 1644 CURVE SMOOTH",
"638 1676 OFFCURVE",
"595 1708 OFFCURVE",
"551 1708 CURVE SMOOTH",
"510 1708 OFFCURVE",
"488 1695 OFFCURVE",
"474 1675 CURVE SMOOTH",
"460 1655 OFFCURVE",
"454 1628 OFFCURVE",
"450 1600 CURVE",
"358 1600 LINE",
"362 1663 OFFCURVE",
"379 1722 OFFCURVE",
"415 1767 CURVE SMOOTH",
"450 1812 OFFCURVE",
"502 1841 OFFCURVE",
"575 1841 CURVE SMOOTH",
"648 1841 OFFCURVE",
"706 1809 OFFCURVE",
"758 1777 CURVE SMOOTH",
"809 1744 OFFCURVE",
"852 1712 OFFCURVE",
"895 1712 CURVE SMOOTH"
);
}
);
width = 1444;
},
{
layerId = "2777C4B8-28CF-4E18-816B-E5A8A64F0BAA";
name = Bold;
width = 600;
}
);
unicode = 00C3;
},
{
glyphname = Adieresis;
lastChange = "2014-05-31 17:36:30 -0600";
layers = (
{
layerId = "9038F23B-D43E-461B-9F57-51F4A7075990";
name = Regular;
paths = (
{
closed = 1;
nodes = (
"414 489 LINE",
"336 274 LINE SMOOTH",
"324 242 OFFCURVE",
"317 209 OFFCURVE",
"317 186 CURVE SMOOTH",
"317 117 OFFCURVE",
"361 86 OFFCURVE",
"453 86 CURVE SMOOTH",
"500 86 LINE",
"500 0 LINE",
"0 0 LINE",
"0 86 LINE",
"39 86 LINE SMOOTH",
"79 86 OFFCURVE",
"105 93 OFFCURVE",
"128 117 CURVE SMOOTH",
"151 141 OFFCURVE",
"170 181 OFFCURVE",
"195 246 CURVE SMOOTH",
"649 1462 LINE",
"809 1462 LINE",
"1272 195 LINE SMOOTH",
"1288 152 OFFCURVE",
"1303 125 OFFCURVE",
"1326 109 CURVE SMOOTH",
"1349 92 OFFCURVE",
"1377 86 OFFCURVE",
"1417 86 CURVE SMOOTH",
"1444 86 LINE",
"1444 0 LINE",
"881 0 LINE",
"881 86 LINE",
"928 86 LINE SMOOTH",
"1010 86 OFFCURVE",
"1051 119 OFFCURVE",
"1051 184 CURVE SMOOTH",
"1051 207 OFFCURVE",
"1045 229 OFFCURVE",
"1034 260 CURVE SMOOTH",
"952 489 LINE"
);
},
{
closed = 1;
nodes = (
"788 950 LINE SMOOTH",
"745 1071 OFFCURVE",
"709 1175 OFFCURVE",
"686 1274 CURVE",
"677 1225 OFFCURVE",
"664 1180 OFFCURVE",
"649 1132 CURVE SMOOTH",
"634 1084 OFFCURVE",
"616 1033 OFFCURVE",
"592 969 CURVE SMOOTH",
"453 592 LINE",
"915 592 LINE"
);
},
{
closed = 1;
nodes = (
"424 1790 OFFCURVE",
"435 1819 OFFCURVE",
"454 1837 CURVE SMOOTH",
"473 1855 OFFCURVE",
"499 1862 OFFCURVE",
"528 1862 CURVE SMOOTH",
"557 1862 OFFCURVE",
"583 1855 OFFCURVE",
"603 1837 CURVE SMOOTH",
"622 1819 OFFCURVE",
"633 1790 OFFCURVE",
"633 1747 CURVE SMOOTH",
"633 1706 OFFCURVE",
"622 1677 OFFCURVE",
"603 1658 CURVE SMOOTH",
"583 1639 OFFCURVE",
"557 1632 OFFCURVE",
"528 1632 CURVE SMOOTH",
"468 1632 OFFCURVE",
"424 1663 OFFCURVE",
"424 1747 CURVE SMOOTH"
);
},
{
closed = 1;
nodes = (
"813 1790 OFFCURVE",
"824 1819 OFFCURVE",
"843 1837 CURVE SMOOTH",
"862 1855 OFFCURVE",
"888 1862 OFFCURVE",
"917 1862 CURVE SMOOTH",
"946 1862 OFFCURVE",
"972 1855 OFFCURVE",
"992 1837 CURVE SMOOTH",
"1011 1819 OFFCURVE",
"1022 1790 OFFCURVE",
"1022 1747 CURVE SMOOTH",
"1022 1706 OFFCURVE",
"1011 1677 OFFCURVE",
"992 1658 CURVE SMOOTH",
"972 1639 OFFCURVE",
"946 1632 OFFCURVE",
"917 1632 CURVE SMOOTH",
"857 1632 OFFCURVE",
"813 1663 OFFCURVE",
"813 1747 CURVE SMOOTH"
);
}
);
width = 1444;
},
{
layerId = "2777C4B8-28CF-4E18-816B-E5A8A64F0BAA";
name = Bold;
width = 600;
}
);
unicode = 00C4;
},
{
glyphname = Aring;
lastChange = "2014-05-31 17:36:30 -0600";
layers = (
{
layerId = "9038F23B-D43E-461B-9F57-51F4A7075990";
name = Regular;
paths = (
{
closed = 1;
nodes = (
"414 489 LINE",
"336 274 LINE SMOOTH",
"324 242 OFFCURVE",
"317 209 OFFCURVE",
"317 186 CURVE SMOOTH",
"317 117 OFFCURVE",
"361 86 OFFCURVE",
"453 86 CURVE SMOOTH",
"500 86 LINE",
"500 0 LINE",
"0 0 LINE",
"0 86 LINE",
"39 86 LINE SMOOTH",
"79 86 OFFCURVE",
"105 93 OFFCURVE",
"128 117 CURVE SMOOTH",
"151 141 OFFCURVE",
"170 181 OFFCURVE",
"195 246 CURVE SMOOTH",
"649 1462 LINE",
"809 1462 LINE",
"1272 195 LINE SMOOTH",
"1288 152 OFFCURVE",
"1303 125 OFFCURVE",
"1326 109 CURVE SMOOTH",
"1349 92 OFFCURVE",
"1377 86 OFFCURVE",
"1417 86 CURVE SMOOTH",
"1444 86 LINE",
"1444 0 LINE",
"881 0 LINE",
"881 86 LINE",
"928 86 LINE SMOOTH",
"1010 86 OFFCURVE",
"1051 119 OFFCURVE",
"1051 184 CURVE SMOOTH",
"1051 207 OFFCURVE",
"1045 229 OFFCURVE",
"1034 260 CURVE SMOOTH",
"952 489 LINE"
);
},
{
closed = 1;
nodes = (
"788 950 LINE SMOOTH",
"745 1071 OFFCURVE",
"709 1175 OFFCURVE",
"686 1274 CURVE",
"677 1225 OFFCURVE",
"664 1180 OFFCURVE",
"649 1132 CURVE SMOOTH",
"634 1084 OFFCURVE",
"616 1033 OFFCURVE",
"592 969 CURVE SMOOTH",
"453 592 LINE",
"915 592 LINE"
);
},
{
closed = 1;
nodes = (
"971 1512 OFFCURVE",
"944 1456 OFFCURVE",
"900 1419 CURVE SMOOTH",
"855 1382 OFFCURVE",
"793 1362 OFFCURVE",
"725 1362 CURVE SMOOTH",
"657 1362 OFFCURVE",
"595 1382 OFFCURVE",
"551 1419 CURVE SMOOTH",
"506 1456 OFFCURVE",
"479 1512 OFFCURVE",
"479 1585 CURVE SMOOTH",
"479 1657 OFFCURVE",
"506 1714 OFFCURVE",
"551 1751 CURVE SMOOTH",
"595 1788 OFFCURVE",
"657 1808 OFFCURVE",
"725 1808 CURVE SMOOTH",
"793 1808 OFFCURVE",
"855 1788 OFFCURVE",
"900 1751 CURVE SMOOTH",
"944 1714 OFFCURVE",
"971 1657 OFFCURVE",
"971 1585 CURVE SMOOTH"
);
},
{
closed = 1;
nodes = (
"860 1629 OFFCURVE",
"845 1660 OFFCURVE",
"821 1680 CURVE",
"796 1699 OFFCURVE",
"762 1708 OFFCURVE",
"725 1708 CURVE SMOOTH",
"688 1708 OFFCURVE",
"654 1699 OFFCURVE",
"630 1680 CURVE SMOOTH",
"605 1660 OFFCURVE",
"590 1629 OFFCURVE",
"590 1585 CURVE SMOOTH",
"590 1541 OFFCURVE",
"605 1510 OFFCURVE",
"630 1491 CURVE",
"654 1471 OFFCURVE",
"688 1462 OFFCURVE",
"725 1462 CURVE SMOOTH",
"762 1462 OFFCURVE",
"796 1471 OFFCURVE",
"821 1491 CURVE SMOOTH",
"845 1510 OFFCURVE",
"860 1541 OFFCURVE",
"860 1585 CURVE SMOOTH"
);
}
);
width = 1444;
},
{
layerId = "2777C4B8-28CF-4E18-816B-E5A8A64F0BAA";
name = Bold;
width = 600;
}
);
unicode = 00C5;
},
{
glyphname = AE;
lastChange = "2014-05-31 17:36:30 -0600";
layers = (
{
layerId = "9038F23B-D43E-461B-9F57-51F4A7075990";
name = Regular;
paths = (
{
closed = 1;
nodes = (
"1151 102 LINE",
"1546 102 LINE SMOOTH",
"1610 102 OFFCURVE",
"1655 121 OFFCURVE",
"1686 152 CURVE SMOOTH",
"1717 183 OFFCURVE",
"1733 225 OFFCURVE",
"1741 270 CURVE SMOOTH",
"1755 358 LINE",
"1862 358 LINE",
"1847 0 LINE",
"750 0 LINE",
"750 86 LINE",
"776 86 LINE SMOOTH",
"821 86 OFFCURVE",
"863 90 OFFCURVE",
"893 109 CURVE SMOOTH",
"923 128 OFFCURVE",
"943 163 OFFCURVE",
"944 223 CURVE SMOOTH",
"944 489 LINE",
"473 489 LINE",
"360 274 LINE SMOOTH",
"337 231 OFFCURVE",
"328 190 OFFCURVE",
"328 166 CURVE SMOOTH",
"328 110 OFFCURVE",
"371 86 OFFCURVE",
"451 86 CURVE SMOOTH",
"498 86 LINE",
"498 0 LINE",
"0 0 LINE",
"0 86 LINE",
"33 86 LINE SMOOTH",
"105 86 OFFCURVE",
"158 134 OFFCURVE",
"215 246 CURVE SMOOTH",
"807 1366 LINE",
"647 1376 LINE",
"647 1462 LINE",
"1782 1462 LINE",
"1792 1104 LINE",
"1686 1104 LINE",
"1675 1192 LINE SMOOTH",
"1670 1237 OFFCURVE",
"1656 1279 OFFCURVE",
"1628 1309 CURVE SMOOTH",
"1599 1339 OFFCURVE",
"1556 1359 OFFCURVE",
"1495 1360 CURVE SMOOTH",
"1151 1360 LINE",
"1151 815 LINE",
"1645 815 LINE",
"1645 715 LINE",
"1151 715 LINE"
);
},
{
closed = 1;
nodes = (
"915 1360 LINE",
"882 1285 OFFCURVE",
"825 1172 OFFCURVE",
"757 1038 CURVE SMOOTH",
"688 904 OFFCURVE",
"607 748 OFFCURVE",
"526 592 CURVE",
"944 592 LINE",
"944 1360 LINE"
);
}
);
width = 1948;
},
{
layerId = "2777C4B8-28CF-4E18-816B-E5A8A64F0BAA";
name = Bold;
width = 600;
}
);
unicode = 00C6;
},
{
glyphname = Ccedilla;
lastChange = "2014-05-31 17:36:30 -0600";
layers = (
{
layerId = "9038F23B-D43E-461B-9F57-51F4A7075990";
name = Regular;
paths = (
{
closed = 1;
nodes = (
"914 1483 OFFCURVE",
"1017 1458 OFFCURVE",
"1086 1417 CURVE SMOOTH",
"1154 1376 OFFCURVE",
"1188 1318 OFFCURVE",
"1188 1253 CURVE SMOOTH",
"1188 1209 OFFCURVE",
"1169 1173 OFFCURVE",
"1137 1149 CURVE SMOOTH",
"1105 1124 OFFCURVE",
"1061 1110 OFFCURVE",
"1010 1110 CURVE",
"1010 1174 OFFCURVE",
"995 1240 OFFCURVE",
"957 1290 CURVE SMOOTH",
"919 1340 OFFCURVE",
"859 1374 OFFCURVE",
"770 1374 CURVE SMOOTH",
"615 1374 OFFCURVE",
"509 1316 OFFCURVE",
"441 1208 CURVE SMOOTH",
"373 1099 OFFCURVE",
"344 938 OFFCURVE",
"344 733 CURVE SMOOTH",
"344 550 OFFCURVE",
"375 395 OFFCURVE",
"444 287 CURVE SMOOTH",
"513 178 OFFCURVE",
"619 115 OFFCURVE",
"770 115 CURVE SMOOTH",
"870 115 OFFCURVE",
"945 136 OFFCURVE",
"1004 168 CURVE SMOOTH",
"1063 200 OFFCURVE",
"1106 244 OFFCURVE",
"1141 289 CURVE",
"1164 274 OFFCURVE",
"1180 250 OFFCURVE",
"1180 209 CURVE SMOOTH",
"1180 157 OFFCURVE",
"1145 100 OFFCURVE",
"1073 56 CURVE SMOOTH",
"1001 12 OFFCURVE",
"891 -20 OFFCURVE",
"739 -20 CURVE SMOOTH",
"535 -20 OFFCURVE",
"380 55 OFFCURVE",
"276 187 CURVE SMOOTH",
"171 319 OFFCURVE",
"117 508 OFFCURVE",
"117 733 CURVE SMOOTH",
"117 954 OFFCURVE",
"174 1142 OFFCURVE",
"284 1274 CURVE SMOOTH",
"394 1406 OFFCURVE",
"558 1483 OFFCURVE",
"774 1483 CURVE SMOOTH"
);
},
{
closed = 1;
nodes = (
"942 -403 OFFCURVE",
"847 -492 OFFCURVE",
"672 -492 CURVE SMOOTH",
"651 -492 OFFCURVE",
"623 -490 OFFCURVE",
"595 -486 CURVE SMOOTH",
"567 -482 OFFCURVE",
"538 -476 OFFCURVE",
"514 -469 CURVE",
"514 -365 LINE",
"563 -376 OFFCURVE",
"616 -381 OFFCURVE",
"653 -381 CURVE SMOOTH",
"732 -381 OFFCURVE",
"778 -337 OFFCURVE",
"778 -266 CURVE SMOOTH",
"778 -186 OFFCURVE",
"713 -148 OFFCURVE",
"624 -141 CURVE",
"667 18 LINE",
"764 18 LINE",
"743 -70 LINE",
"876 -81 OFFCURVE",
"942 -150 OFFCURVE",
"942 -258 CURVE SMOOTH"
);
}
);
width = 1257;
},
{
layerId = "2777C4B8-28CF-4E18-816B-E5A8A64F0BAA";
name = Bold;
width = 600;
}
);
unicode = 00C7;
},
{
glyphname = Egrave;
lastChange = "2014-05-31 17:36:30 -0600";
layers = (
{
layerId = "9038F23B-D43E-461B-9F57-51F4A7075990";
name = Regular;
paths = (
{
closed = 1;
nodes = (
"479 102 LINE",
"874 102 LINE SMOOTH",
"939 102 OFFCURVE",
"984 121 OFFCURVE",
"1015 152 CURVE SMOOTH",
"1046 183 OFFCURVE",
"1062 225 OFFCURVE",
"1069 270 CURVE SMOOTH",
"1083 358 LINE",
"1190 358 LINE",
"1176 0 LINE",
"78 0 LINE",
"78 86 LINE",
"104 86 LINE SMOOTH",
"149 86 OFFCURVE",
"191 90 OFFCURVE",
"222 109 CURVE SMOOTH",
"253 128 OFFCURVE",
"272 163 OFFCURVE",
"272 223 CURVE SMOOTH",
"272 1229 LINE SMOOTH",
"272 1293 OFFCURVE",
"254 1330 OFFCURVE",
"223 1351 CURVE SMOOTH",
"192 1371 OFFCURVE",
"151 1376 OFFCURVE",
"104 1376 CURVE SMOOTH",
"78 1376 LINE",
"78 1462 LINE",
"1110 1462 LINE",
"1120 1104 LINE",
"1014 1104 LINE",
"1004 1192 LINE SMOOTH",
"999 1237 OFFCURVE",
"984 1279 OFFCURVE",
"956 1310 CURVE SMOOTH",
"927 1341 OFFCURVE",
"884 1360 OFFCURVE",
"823 1360 CURVE SMOOTH",
"479 1360 LINE",
"479 815 LINE",
"973 815 LINE",
"973 715 LINE",
"479 715 LINE"
);
},
{
closed = 1;
nodes = (
"743 1579 LINE",
"665 1579 LINE",
"610 1616 OFFCURVE",
"543 1675 OFFCURVE",
"483 1734 CURVE SMOOTH",
"423 1793 OFFCURVE",
"370 1850 OFFCURVE",
"345 1886 CURVE",
"345 1907 LINE",
"564 1907 LINE",
"585 1862 OFFCURVE",
"615 1806 OFFCURVE",
"647 1752 CURVE SMOOTH",
"679 1698 OFFCURVE",
"714 1645 OFFCURVE",
"743 1606 CURVE"
);
}
);
width = 1276;
},
{
layerId = "2777C4B8-28CF-4E18-816B-E5A8A64F0BAA";
name = Bold;
width = 600;
}
);
unicode = 00C8;
},
{
glyphname = Eacute;
lastChange = "2014-05-31 17:36:30 -0600";
layers = (
{
layerId = "9038F23B-D43E-461B-9F57-51F4A7075990";
name = Regular;
paths = (
{
closed = 1;
nodes = (
"479 102 LINE",
"874 102 LINE SMOOTH",
"939 102 OFFCURVE",
"984 121 OFFCURVE",
"1015 152 CURVE SMOOTH",
"1046 183 OFFCURVE",
"1062 225 OFFCURVE",
"1069 270 CURVE SMOOTH",
"1083 358 LINE",
"1190 358 LINE",
"1176 0 LINE",
"78 0 LINE",
"78 86 LINE",
"104 86 LINE SMOOTH",
"149 86 OFFCURVE",
"191 90 OFFCURVE",
"222 109 CURVE SMOOTH",
"253 128 OFFCURVE",
"272 163 OFFCURVE",
"272 223 CURVE SMOOTH",
"272 1229 LINE SMOOTH",
"272 1293 OFFCURVE",
"254 1330 OFFCURVE",
"223 1351 CURVE SMOOTH",
"192 1371 OFFCURVE",
"151 1376 OFFCURVE",
"104 1376 CURVE SMOOTH",
"78 1376 LINE",
"78 1462 LINE",
"1110 1462 LINE",
"1120 1104 LINE",
"1014 1104 LINE",
"1004 1192 LINE SMOOTH",
"999 1237 OFFCURVE",
"984 1279 OFFCURVE",
"956 1310 CURVE SMOOTH",
"927 1341 OFFCURVE",
"884 1360 OFFCURVE",
"823 1360 CURVE SMOOTH",
"479 1360 LINE",
"479 815 LINE",
"973 815 LINE",
"973 715 LINE",
"479 715 LINE"
);
},
{
closed = 1;
nodes = (
"545 1606 LINE",
"576 1645 OFFCURVE",
"609 1698 OFFCURVE",
"641 1752 CURVE SMOOTH",
"672 1806 OFFCURVE",
"702 1862 OFFCURVE",
"723 1907 CURVE",
"942 1907 LINE",
"942 1886 LINE",
"917 1850 OFFCURVE",
"864 1793 OFFCURVE",
"804 1734 CURVE SMOOTH",
"744 1675 OFFCURVE",
"678 1616 OFFCURVE",
"623 1579 CURVE",
"545 1579 LINE"
);
}
);
width = 1276;
},
{
layerId = "2777C4B8-28CF-4E18-816B-E5A8A64F0BAA";
name = Bold;
width = 600;
}
);
unicode = 00C9;
},
{
glyphname = Ecircumflex;
lastChange = "2014-05-31 17:36:30 -0600";
layers = (
{
layerId = "9038F23B-D43E-461B-9F57-51F4A7075990";
name = Regular;
paths = (
{
closed = 1;
nodes = (
"479 102 LINE",
"874 102 LINE SMOOTH",
"939 102 OFFCURVE",
"984 121 OFFCURVE",
"1015 152 CURVE SMOOTH",
"1046 183 OFFCURVE",
"1062 225 OFFCURVE",
"1069 270 CURVE SMOOTH",
"1083 358 LINE",
"1190 358 LINE",
"1176 0 LINE",
"78 0 LINE",
"78 86 LINE",
"104 86 LINE SMOOTH",
"149 86 OFFCURVE",
"191 90 OFFCURVE",
"222 109 CURVE SMOOTH",
"253 128 OFFCURVE",
"272 163 OFFCURVE",
"272 223 CURVE SMOOTH",
"272 1229 LINE SMOOTH",
"272 1293 OFFCURVE",
"254 1330 OFFCURVE",
"223 1351 CURVE SMOOTH",
"192 1371 OFFCURVE",
"151 1376 OFFCURVE",
"104 1376 CURVE SMOOTH",
"78 1376 LINE",
"78 1462 LINE",
"1110 1462 LINE",
"1120 1104 LINE",
"1014 1104 LINE",
"1004 1192 LINE SMOOTH",
"999 1237 OFFCURVE",
"984 1279 OFFCURVE",
"956 1310 CURVE SMOOTH",
"927 1341 OFFCURVE",
"884 1360 OFFCURVE",
"823 1360 CURVE SMOOTH",
"479 1360 LINE",
"479 815 LINE",
"973 815 LINE",
"973 715 LINE",
"479 715 LINE"
);
},
{
closed = 1;
nodes = (
"350 1606 LINE",
"382 1645 OFFCURVE",
"423 1698 OFFCURVE",
"461 1752 CURVE SMOOTH",
"499 1806 OFFCURVE",
"534 1862 OFFCURVE",
"555 1907 CURVE",
"749 1907 LINE",
"770 1862 OFFCURVE",
"806 1806 OFFCURVE",
"844 1752 CURVE SMOOTH",
"882 1698 OFFCURVE",
"922 1645 OFFCURVE",
"954 1606 CURVE",
"954 1579 LINE",
"874 1579 LINE",
"795 1624 OFFCURVE",
"712 1698 OFFCURVE",
"651 1763 CURVE",
"588 1698 OFFCURVE",
"507 1624 OFFCURVE",
"430 1579 CURVE",
"350 1579 LINE"
);
}
);
width = 1276;
},
{
layerId = "2777C4B8-28CF-4E18-816B-E5A8A64F0BAA";
name = Bold;
width = 600;
}
);
unicode = 00CA;
},
{
glyphname = Edieresis;
lastChange = "2014-05-31 17:36:30 -0600";
layers = (
{
layerId = "9038F23B-D43E-461B-9F57-51F4A7075990";
name = Regular;
paths = (
{
closed = 1;
nodes = (
"479 102 LINE",
"874 102 LINE SMOOTH",
"939 102 OFFCURVE",
"984 121 OFFCURVE",
"1015 152 CURVE SMOOTH",
"1046 183 OFFCURVE",
"1062 225 OFFCURVE",
"1069 270 CURVE SMOOTH",
"1083 358 LINE",
"1190 358 LINE",
"1176 0 LINE",
"78 0 LINE",
"78 86 LINE",
"104 86 LINE SMOOTH",
"149 86 OFFCURVE",
"191 90 OFFCURVE",
"222 109 CURVE SMOOTH",
"253 128 OFFCURVE",
"272 163 OFFCURVE",
"272 223 CURVE SMOOTH",
"272 1229 LINE SMOOTH",
"272 1293 OFFCURVE",
"254 1330 OFFCURVE",
"223 1351 CURVE SMOOTH",
"192 1371 OFFCURVE",
"151 1376 OFFCURVE",
"104 1376 CURVE SMOOTH",
"78 1376 LINE",
"78 1462 LINE",
"1110 1462 LINE",
"1120 1104 LINE",
"1014 1104 LINE",
"1004 1192 LINE SMOOTH",
"999 1237 OFFCURVE",
"984 1279 OFFCURVE",
"956 1310 CURVE SMOOTH",
"927 1341 OFFCURVE",
"884 1360 OFFCURVE",
"823 1360 CURVE SMOOTH",
"479 1360 LINE",
"479 815 LINE",
"973 815 LINE",
"973 715 LINE",
"479 715 LINE"
);
},
{
closed = 1;
nodes = (
"342 1790 OFFCURVE",
"353 1819 OFFCURVE",
"372 1837 CURVE SMOOTH",
"391 1855 OFFCURVE",
"417 1862 OFFCURVE",
"446 1862 CURVE SMOOTH",
"475 1862 OFFCURVE",
"501 1855 OFFCURVE",
"521 1837 CURVE SMOOTH",
"540 1819 OFFCURVE",
"551 1790 OFFCURVE",
"551 1747 CURVE SMOOTH",
"551 1706 OFFCURVE",
"540 1677 OFFCURVE",
"521 1658 CURVE SMOOTH",
"501 1639 OFFCURVE",
"475 1632 OFFCURVE",
"446 1632 CURVE SMOOTH",
"386 1632 OFFCURVE",
"342 1663 OFFCURVE",
"342 1747 CURVE SMOOTH"
);
},
{
closed = 1;
nodes = (
"731 1790 OFFCURVE",
"742 1819 OFFCURVE",
"761 1837 CURVE SMOOTH",
"780 1855 OFFCURVE",
"806 1862 OFFCURVE",
"835 1862 CURVE SMOOTH",
"864 1862 OFFCURVE",
"890 1855 OFFCURVE",
"910 1837 CURVE SMOOTH",
"929 1819 OFFCURVE",
"940 1790 OFFCURVE",
"940 1747 CURVE SMOOTH",
"940 1706 OFFCURVE",
"929 1677 OFFCURVE",
"910 1658 CURVE SMOOTH",
"890 1639 OFFCURVE",
"864 1632 OFFCURVE",
"835 1632 CURVE SMOOTH",
"775 1632 OFFCURVE",
"731 1663 OFFCURVE",
"731 1747 CURVE SMOOTH"
);
}
);
width = 1276;
},
{
layerId = "2777C4B8-28CF-4E18-816B-E5A8A64F0BAA";
name = Bold;
width = 600;
}
);
unicode = 00CB;
},
{
glyphname = Igrave;
lastChange = "2014-05-31 17:36:30 -0600";
layers = (
{
layerId = "9038F23B-D43E-461B-9F57-51F4A7075990";
name = Regular;
paths = (
{
closed = 1;
nodes = (
"78 0 LINE",
"78 86 LINE",
"104 86 LINE SMOOTH",
"151 86 OFFCURVE",
"192 91 OFFCURVE",
"223 112 CURVE SMOOTH",
"254 132 OFFCURVE",
"272 169 OFFCURVE",
"272 233 CURVE SMOOTH",
"272 1229 LINE SMOOTH",
"272 1293 OFFCURVE",
"254 1330 OFFCURVE",
"223 1351 CURVE SMOOTH",
"192 1371 OFFCURVE",
"151 1376 OFFCURVE",
"104 1376 CURVE SMOOTH",
"78 1376 LINE",
"78 1462 LINE",
"674 1462 LINE",
"674 1376 LINE",
"647 1376 LINE SMOOTH",
"602 1376 OFFCURVE",
"559 1371 OFFCURVE",
"529 1351 CURVE SMOOTH",
"499 1330 OFFCURVE",
"479 1293 OFFCURVE",
"479 1229 CURVE SMOOTH",
"479 233 LINE SMOOTH",
"479 169 OFFCURVE",
"499 132 OFFCURVE",
"529 112 CURVE SMOOTH",
"559 91 OFFCURVE",
"602 86 OFFCURVE",
"647 86 CURVE SMOOTH",
"674 86 LINE",
"674 0 LINE"
);
},
{
closed = 1;
nodes = (
"473 1579 LINE",
"395 1579 LINE",
"340 1616 OFFCURVE",
"273 1675 OFFCURVE",
"213 1734 CURVE SMOOTH",
"153 1793 OFFCURVE",
"100 1850 OFFCURVE",
"75 1886 CURVE",
"75 1907 LINE",
"294 1907 LINE",
"315 1862 OFFCURVE",
"345 1806 OFFCURVE",
"377 1752 CURVE SMOOTH",
"409 1698 OFFCURVE",
"444 1645 OFFCURVE",
"473 1606 CURVE"
);
}
);
width = 752;
},
{
layerId = "2777C4B8-28CF-4E18-816B-E5A8A64F0BAA";
name = Bold;
width = 600;
}
);
unicode = 00CC;
},
{
glyphname = Iacute;
lastChange = "2014-05-31 17:36:30 -0600";
layers = (
{
layerId = "9038F23B-D43E-461B-9F57-51F4A7075990";
name = Regular;
paths = (
{
closed = 1;
nodes = (
"78 0 LINE",
"78 86 LINE",
"104 86 LINE SMOOTH",
"151 86 OFFCURVE",
"192 91 OFFCURVE",
"223 112 CURVE SMOOTH",
"254 132 OFFCURVE",
"272 169 OFFCURVE",
"272 233 CURVE SMOOTH",
"272 1229 LINE SMOOTH",
"272 1293 OFFCURVE",
"254 1330 OFFCURVE",
"223 1351 CURVE SMOOTH",
"192 1371 OFFCURVE",
"151 1376 OFFCURVE",
"104 1376 CURVE SMOOTH",
"78 1376 LINE",
"78 1462 LINE",
"674 1462 LINE",
"674 1376 LINE",
"647 1376 LINE SMOOTH",
"602 1376 OFFCURVE",
"559 1371 OFFCURVE",
"529 1351 CURVE SMOOTH",
"499 1330 OFFCURVE",
"479 1293 OFFCURVE",
"479 1229 CURVE SMOOTH",
"479 233 LINE SMOOTH",
"479 169 OFFCURVE",
"499 132 OFFCURVE",
"529 112 CURVE SMOOTH",
"559 91 OFFCURVE",
"602 86 OFFCURVE",
"647 86 CURVE SMOOTH",
"674 86 LINE",
"674 0 LINE"
);
},
{
closed = 1;
nodes = (
"271 1606 LINE",
"302 1645 OFFCURVE",
"335 1698 OFFCURVE",
"367 1752 CURVE SMOOTH",
"398 1806 OFFCURVE",
"428 1862 OFFCURVE",
"449 1907 CURVE",
"668 1907 LINE",
"668 1886 LINE",
"643 1850 OFFCURVE",
"590 1793 OFFCURVE",
"530 1734 CURVE SMOOTH",
"470 1675 OFFCURVE",
"404 1616 OFFCURVE",
"349 1579 CURVE",
"271 1579 LINE"
);
}
);
width = 752;
},
{
layerId = "2777C4B8-28CF-4E18-816B-E5A8A64F0BAA";
name = Bold;
width = 600;
}
);
unicode = 00CD;
},
